<?xml version="1.0" encoding="UTF-8"?>
<!DOCTYPE svg PUBLIC "-//W3C//DTD SVG 1.1//EN" "http://www.w3.org/Graphics/SVG/1.1/DTD/svg11.dtd">
<!-- Creator: CorelDRAW -->
<svg xmlns="http://www.w3.org/2000/svg" xml:space="preserve" width="100%" height="100%" style="shape-rendering:geometricPrecision; text-rendering:geometricPrecision; image-rendering:optimizeQuality; fill-rule:evenodd; clip-rule:evenodd"
viewBox="0 0 9.88222 9.88222"
 xmlns:xlink="http://www.w3.org/1999/xlink">
 <defs>
  <style type="text/css">
   <![CDATA[
    .str1 {stroke:white;stroke-width:0.14111}
    .str0 {stroke:#99F707;stroke-width:0.28222}
    .fil1 {fill:#99F707}
    .fil0 {fill:white}
   ]]>
  </style>
 </defs>
 <g id="Layer_x0020_1">
  <metadata id="CorelCorpID_0Corel-Layer"/>
  <circle class="fil0 str0" cx="4.94111" cy="4.94111" r="4.8"/>
  <g id="_124306432">
   <path id="_124306144" class="fil1" d="M1.02215 3.90393l6.35125 -1.53877 0.76939 3.17562 -6.35125 1.53877 -0.76939 -3.17562zm0.39287 0.46515c0.13854,-0.03181 0.2356,-0.18394 0.20052,-0.32875l5.29271 -1.28231c0.03181,0.13854 0.1836,0.22687 0.32875,0.20052l0.51292 2.11708c-0.14353,0.03302 -0.23564,0.19102 -0.20052,0.32876l-5.2927 1.28231c-0.03302,-0.14354 -0.20978,-0.22582 -0.32875,-0.20052l-0.51293 -2.11709zm2.97511 -0.44063c0.43838,-0.10621 0.88004,0.16317 0.98625,0.60156 0.10621,0.43838 -0.16317,0.88004 -0.60156,0.98625 -0.43839,0.10621 -0.88004,-0.16317 -0.98625,-0.60156 -0.10622,-0.43839 0.16317,-0.88004 0.60156,-0.98625zm1.4514 0.20869c0.14614,-0.0354 0.29335,0.05439 0.32875,0.20052 0.03541,0.14613 -0.05438,0.29335 -0.20052,0.32875 -0.14613,0.03541 -0.29334,-0.05439 -0.32875,-0.20052 -0.0354,-0.14613 0.05439,-0.29334 0.20052,-0.32875zm-2.64635 0.64116c0.14613,-0.03541 0.29335,0.05438 0.32875,0.20052 0.03541,0.14613 -0.05439,0.29334 -0.20052,0.32875 -0.14613,0.0354 -0.29335,-0.05439 -0.32875,-0.20052 -0.0354,-0.14613 0.05439,-0.29335 0.20052,-0.32875z"/>
   <rect id="_124306264" class="fil0 str1" transform="matrix(0.96231 -0.233147 0.233147 0.96231 1.73943 4.34143)" width="6.6" height="3.3"/>
   <path id="_124306360" class="fil1" d="M1.73943 4.34143l6.35125 -1.53878 0.76939 3.17563 -6.35125 1.53877 -0.76939 -3.17562zm0.39287 0.46515c0.13854,-0.03181 0.2356,-0.18394 0.20052,-0.32875l5.2927 -1.28231c0.03181,0.13854 0.1836,0.22687 0.32875,0.20052l0.51293 2.11708c-0.14354,0.03302 -0.23565,0.19102 -0.20052,0.32875l-5.29271 1.28231c-0.03302,-0.14353 -0.20977,-0.22581 -0.32875,-0.20052l-0.51292 -2.11708zm2.9751 -0.44063c0.43839,-0.10622 0.88004,0.16317 0.98625,0.60156 0.10622,0.43838 -0.16317,0.88004 -0.60156,0.98625 -0.43838,0.10621 -0.88004,-0.16318 -0.98625,-0.60156 -0.10621,-0.43839 0.16317,-0.88004 0.60156,-0.98625zm1.45141 0.20869c0.14613,-0.03541 0.29334,0.05439 0.32875,0.20052 0.0354,0.14613 -0.05439,0.29335 -0.20052,0.32875 -0.14613,0.0354 -0.29335,-0.05439 -0.32875,-0.20052 -0.03541,-0.14613 0.05439,-0.29335 0.20052,-0.32875zm-2.64636 0.64115c0.14614,-0.0354 0.29335,0.05439 0.32876,0.20052 0.0354,0.14614 -0.05439,0.29335 -0.20052,0.32876 -0.14614,0.0354 -0.29335,-0.05439 -0.32876,-0.20052 -0.0354,-0.14614 0.05439,-0.29335 0.20052,-0.32876z"/>
  </g>
  <circle class="fil0 str0" cx="7.20551" cy="6.87076" r="1.05"/>
  <polygon class="fil1" points="6.75551,6.72076 7.05551,6.72076 7.05551,6.42076 7.35551,6.42076 7.35551,6.72076 7.65551,6.72076 7.65551,7.02076 7.35551,7.02076 7.35551,7.32076 7.05551,7.32076 7.05551,7.02076 6.75551,7.02076 "/>
 </g>
</svg>
