<?xml version="1.0" encoding="UTF-8"?>
<!DOCTYPE svg PUBLIC "-//W3C//DTD SVG 1.1//EN" "http://www.w3.org/Graphics/SVG/1.1/DTD/svg11.dtd">
<!-- Creator: CorelDRAW -->
<svg xmlns="http://www.w3.org/2000/svg" xml:space="preserve" width="100%" height="100%" style="shape-rendering:geometricPrecision; text-rendering:geometricPrecision; image-rendering:optimizeQuality; fill-rule:evenodd; clip-rule:evenodd"
viewBox="0 0 9.81168 9.81168"
 xmlns:xlink="http://www.w3.org/1999/xlink">
 <defs>
  <style type="text/css">
   <![CDATA[
    .str3 {stroke:white;stroke-width:0.14111}
    .str0 {stroke:white;stroke-width:0.21167}
    .str2 {stroke:white;stroke-width:0.28222}
    .str1 {stroke:white;stroke-width:0.28222;stroke-linecap:round;stroke-linejoin:round}
    .fil0 {fill:none}
   ]]>
  </style>
 </defs>
 <g id="Layer_x0020_1">
  <metadata id="CorelCorpID_0Corel-Layer"/>
  <circle class="fil0 str0" cx="4.90584" cy="4.90584" r="4.8"/>
  <path class="fil0 str1" d="M2.78916 9.0886l0 -7.2c2.1,2.1 4.74052,3.6 6.84052,3.6"/>
  <line class="fil0 str2" x1="0.68916" y1="7.2886" x2="9.08916" y2= "7.2886" />
  <line class="fil0 str3" x1="3.38916" y1="7.2886" x2="3.38916" y2= "2.4886" />
  <line class="fil0 str3" x1="3.98916" y1="7.2886" x2="3.98916" y2= "3.0886" />
  <line class="fil0 str3" x1="4.58916" y1="7.2886" x2="4.58916" y2= "3.3886" />
  <line class="fil0 str3" x1="5.18916" y1="7.2886" x2="5.18916" y2= "3.9886" />
  <line class="fil0 str3" x1="5.78916" y1="7.2886" x2="5.78916" y2= "4.2886" />
  <line class="fil0 str3" x1="6.38916" y1="7.2886" x2="6.38916" y2= "4.5886" />
  <line class="fil0 str3" x1="6.98916" y1="7.2886" x2="6.98916" y2= "4.8886" />
  <line class="fil0 str3" x1="7.58916" y1="7.2886" x2="7.58916" y2= "5.1886" />
  <line class="fil0 str3" x1="8.18916" y1="7.2886" x2="8.18916" y2= "5.30182" />
  <line class="fil0 str3" x1="8.78916" y1="7.2886" x2="8.78916" y2= "5.4886" />
  <path class="fil0 str1" d="M2.78916 9.15937l0 -7.27077c-0.7875,0.7875 -1.65937,1.49063 -2.55234,2.06192"/>
  <line class="fil0 str3" x1="2.18916" y1="7.2886" x2="2.18916" y2= "2.4886" />
  <line class="fil0 str3" x1="1.58916" y1="7.2886" x2="1.58916" y2= "3.0886" />
  <line class="fil0 str3" x1="0.98916" y1="7.2886" x2="0.98916" y2= "3.45654" />
  <line class="fil0 str3" x1="9.38914" y1="6.56422" x2="9.38914" y2= "5.4886" />
  <line class="fil0 str3" x1="0.38916" y1="6.3886" x2="0.38918" y2= "3.75654" />
 </g>
</svg>
