<?xml version="1.0" encoding="UTF-8"?>
<!DOCTYPE svg PUBLIC "-//W3C//DTD SVG 1.1//EN" "http://www.w3.org/Graphics/SVG/1.1/DTD/svg11.dtd">
<!-- Creator: CorelDRAW -->
<svg xmlns="http://www.w3.org/2000/svg" xml:space="preserve" width="100%" height="100%" style="shape-rendering:geometricPrecision; text-rendering:geometricPrecision; image-rendering:optimizeQuality; fill-rule:evenodd; clip-rule:evenodd"
viewBox="0 0 9.88222 9.88222"
 xmlns:xlink="http://www.w3.org/1999/xlink">
 <defs>
  <style type="text/css">
   <![CDATA[
    .str0 {stroke:#fff;stroke-width:0.28222}
    .fil0 {fill:none}
    .fil1 {fill:#fff}
   ]]>
  </style>
 </defs>
 <g id="Layer_x0020_1">
  <metadata id="CorelCorpID_0Corel-Layer"/>
  <circle class="fil0 str0" cx="4.94111" cy="4.94111" r="4.8"/>
  <circle class="fil0 str0" cx="4.94111" cy="4.94111" r="4.8"/>
  <polygon class="fil1" points="6.62163,2.76993 6.9287,2.7722 6.96052,2.78015 6.97643,2.78811 6.98439,2.79607 7.00031,2.80402 7.00826,2.81198 7.01622,2.81992 7.02417,2.83583 7.03213,2.84379 7.04008,2.8597 7.04804,2.89151 7.04804,5.46869 7.04008,5.5005 7.03213,5.51641 7.02417,5.52437 7.01622,5.54028 7.00826,5.54824 7.00031,5.55618 6.98439,5.56414 6.97643,5.57209 6.96052,5.58005 6.9287,5.588 2.9428,5.588 2.91097,5.58005 2.89506,5.57209 2.88711,5.56414 2.8712,5.55618 2.86323,5.54824 2.85528,5.54028 2.84732,5.52437 2.83936,5.51641 2.83141,5.5005 2.82345,5.46869 2.82081,4.53271 2.54397,4.5316 2.545,5.50846 2.55296,5.54824 2.56091,5.58005 2.56887,5.59596 2.57682,5.61982 2.58478,5.63573 2.59273,5.65164 2.60069,5.66754 2.60864,5.6755 2.6166,5.69141 2.62456,5.69936 2.63251,5.70732 2.64047,5.72323 2.64842,5.73118 2.65639,5.73913 2.66434,5.74709 2.6723,5.75504 2.68025,5.763 2.68821,5.77095 2.70412,5.77891 2.71208,5.78686 2.72003,5.79481 2.73594,5.80277 2.7439,5.81072 2.75981,5.81868 2.77572,5.82663 2.79163,5.83459 2.8155,5.84253 2.83141,5.85049 2.86323,5.85845 2.91097,5.8664 6.96052,5.8664 7.00826,5.85845 7.04008,5.85049 7.056,5.84253 7.07986,5.83459 7.09577,5.82663 7.11168,5.81868 7.11964,5.81072 7.13555,5.80277 7.15146,5.79481 7.15942,5.78686 7.16737,5.77891 7.18328,5.77095 7.19124,5.763 7.1992,5.75504 7.20715,5.74709 7.21512,5.73913 7.22307,5.73118 7.23103,5.72323 7.23898,5.70732 7.24694,5.69936 7.25489,5.69141 7.26285,5.6755 7.2708,5.65959 7.27876,5.65164 7.28672,5.63573 7.29467,5.61982 7.30263,5.59596 7.31058,5.58005 7.31854,5.54824 7.31854,2.81198 7.31058,2.78015 7.30263,2.76424 7.29467,2.74039 7.28672,2.72447 7.27876,2.70856 7.2708,2.70062 7.26285,2.68471 7.25489,2.6688 7.24694,2.66084 7.23898,2.65288 7.23103,2.64493 7.22307,2.62903 7.21512,2.62107 7.20715,2.61312 7.1992,2.60516 7.19124,2.5972 7.17533,2.58925 7.16737,2.5813 7.15942,2.57335 7.15146,2.56539 7.13555,2.55744 7.11964,2.54948 7.11168,2.54153 7.09577,2.53357 7.07986,2.52562 7.056,2.51767 7.04008,2.50971 7.00826,2.50176 6.61201,2.50176 "/>
  <path class="fil0 str0" d="M2.75649 6.13493l4.32741 0c0.07796,0.00447 0.11867,0.03422 0.14608,0.07332l0.70175 1.16957c0.06217,0.10327 -0.0752,0.16925 -0.18862,0.166l-5.58991 -0.00267c-0.12827,0.00272 -0.29645,-0.05848 -0.20922,-0.18361l0.69282 -1.15472c0.02128,-0.04128 0.06117,-0.06925 0.11969,-0.06789z"/>
  <path class="fil1" d="M4.93177 6.97199l-0.46519 -0.00079c-0.01195,0.00089 -0.02884,0.00818 -0.03304,0.01599l-0.02644 0.22985c-0.00954,0.02065 0.01951,0.03784 0.0369,0.03719l0.48777 -0.00029 0 -0.28195z"/>
  <path class="fil1" d="M4.93177 6.97198l0.46519 -0.00079c0.01195,0.00089 0.02883,0.00818 0.03304,0.01599l0.02644 0.22985c0.00953,0.02065 -0.01951,0.03784 -0.0369,0.03719l-0.48777 -0.00029 0 -0.28195z"/>
  <path class="fil1" d="M3.04889 5.39088l3.78515 0c0.0117,0 0.02126,-0.00956 0.02126,-0.02126l0 -2.37636c0,-0.0117 -0.00957,-0.02094 -0.02126,-0.02126l-0.20868 -0.00567 0.00239 1.54853c2e-005,0.01158 -3.59385,-0.01141 -3.59393,0.00194l-0.0062 0.85282c-7e-005,0.01164 0.00956,0.02126 0.02127,0.02126z"/>
  <g id="_135433152">
   <path id="_134871848" class="fil1" d="M2.24201 3.67811l-0.00769 0.28682 -0.28721 -0.00079 0.00568 -2.0692 4.13841 0.01135 -0.00077 0.28011 -0.29983 0.00347c-0.02811,-0.03052 -0.04536,-0.0699 -0.04474,-0.11209l-3.44868 -0.00946c-0.00026,0.09436 -0.0829,0.17329 -0.1729,0.17196l-0.00379 1.37947c0.0409,0.00126 0.08726,0.02367 0.12152,0.05836z"/>
   <path id="_137249000" class="fil1" d="M2.32797 2.27219l4.13842 0.01136 -0.00568 2.0692 -4.13841 -0.01135 0.00567 -2.06921zm0.17149 0.34534c0.09001,0.00133 0.17265,-0.0776 0.17291,-0.17196l3.44867 0.00946c-0.00132,0.09001 0.07872,0.16723 0.17197,0.17291l-0.00379 1.37947c-0.09326,-0.00134 -0.17374,0.08195 -0.17291,0.17196l-3.44867 -0.00946c0.00133,-0.09326 -0.09497,-0.17052 -0.17196,-0.17291l0.00378 -1.37947zm1.8963 0.17764c0.28565,0.00078 0.51667,0.23307 0.51588,0.51872 -0.00078,0.28565 -0.23307,0.51667 -0.51872,0.51588 -0.28565,-0.00078 -0.51666,-0.23307 -0.51588,-0.51872 0.00078,-0.28565 0.23307,-0.51666 0.51872,-0.51588zm0.86122 0.34723c0.09522,0.00026 0.17223,0.07769 0.17196,0.17291 -0.00026,0.09522 -0.07768,0.17222 -0.1729,0.17196 -0.09522,-0.00026 -0.17222,-0.07769 -0.17196,-0.17291 0.00026,-0.09521 0.07769,-0.17222 0.1729,-0.17196zm-1.72433 -0.00473c0.09521,0.00026 0.17222,0.07769 0.17196,0.17291 -0.00026,0.09522 -0.07769,0.17222 -0.17291,0.17196 -0.09522,-0.00026 -0.17222,-0.07769 -0.17196,-0.17291 0.00026,-0.09522 0.07769,-0.17222 0.17291,-0.17196z"/>
  </g>
 </g>
</svg>
