<?xml version="1.0" encoding="UTF-8"?>
<!DOCTYPE svg PUBLIC "-//W3C//DTD SVG 1.1//EN" "http://www.w3.org/Graphics/SVG/1.1/DTD/svg11.dtd">
<!-- Creator: CorelDRAW -->
<svg xmlns="http://www.w3.org/2000/svg" xml:space="preserve" width="100%" height="100%" style="shape-rendering:geometricPrecision; text-rendering:geometricPrecision; image-rendering:optimizeQuality; fill-rule:evenodd; clip-rule:evenodd"
viewBox="0 0 9.88222 9.88222"
 xmlns:xlink="http://www.w3.org/1999/xlink">
 <defs>
  <style type="text/css">
   <![CDATA[
    .str0 {stroke:#fff;stroke-width:0.28222}
    .str1 {stroke:#fff;stroke-width:0.28222;stroke-linecap:round;stroke-linejoin:round}
    .fil0 {fill:none}
    .fil1 {fill:#fff}
   ]]>
  </style>
 </defs>
 <g id="Layer_x0020_1">
  <metadata id="CorelCorpID_0Corel-Layer"/>
  <circle class="fil0 str0" cx="4.94111" cy="4.94111" r="4.8"/>
  <path class="fil0 str1" d="M3.2852 2.57778c0.86486,-0.1926 1.66234,-0.37912 1.55023,-0.03947 -0.19163,0.58054 1.66825,-0.27306 2.96777,-0.31862l-0.02266 4.06747c-1.29952,0.04556 -3.13674,0.89569 -2.94511,0.31515 0.16969,-0.51408 -1.76132,0.17722 -2.83884,0.27056l0.00282 -3.03934m0 0l0.00283 -1.01335c0.36559,-0.03166 0.83883,-0.14065 1.28296,-0.23956"/>
  <path class="fil0" d="M3.28253 2.58225l-0.00283 1.01335m0 0l-0.0085 3.04279"/>
  <line class="fil0" x1="4.48351" y1="2.36698" x2="4.47218" y2= "6.42312" />
  <line class="fil0" x1="6.62488" y1="2.42363" x2="6.61355" y2= "6.47977" />
  <line class="fil0" x1="5.50321" y1="2.67289" x2="5.49188" y2= "6.72903" />
  <path class="fil1" d="M2.002 2.81009c0.42583,-0.04769 0.85165,-0.13089 1.2775,-0.22403l0 1.00954c-0.42343,0.10688 -0.84938,0.19088 -1.28033,0.22969l0.00283 -1.0152z"/>
  <path class="fil1" d="M2.002 4.83816c0.42583,-0.04769 0.85165,-0.13089 1.2775,-0.22403l0 1.00954c-0.42343,0.10688 -0.84938,0.19088 -1.28033,0.22969l0.00283 -1.0152z"/>
  <path class="fil1" d="M3.28229 3.59186c0.44235,-0.10146 0.79169,-0.17544 1.20386,-0.22403l0.00283 1.01805c-0.46168,0.04731 -0.80833,0.13603 -1.20952,0.22118l0.00283 -1.0152z"/>
  <path class="fil1" d="M3.27097 5.6238c0.44235,-0.10146 0.79169,-0.17544 1.20386,-0.22403l0.00283 1.01805c-0.46168,0.04731 -0.80833,0.13603 -1.20952,0.22118l0.00283 -1.0152z"/>
  <path class="fil1" d="M5.49165 3.6986c0.44235,-0.10146 0.72936,-0.17829 1.13587,-0.26941l-0.00849 1.01523c-0.43336,0.09836 -0.72902,0.18423 -1.13021,0.26938l0.00283 -1.0152z"/>
  <path class="fil1" d="M5.49165 5.71534c0.44235,-0.10146 0.72936,-0.17829 1.13587,-0.26941l-0.00849 1.01523c-0.43336,0.09836 -0.72902,0.18423 -1.13021,0.26938l0.00283 -1.0152z"/>
  <path class="fil1" d="M6.62182 4.44638c0.43709,-0.11704 0.75616,-0.14957 1.17269,-0.1815l-0.00566 1.01806c-0.27173,0.01743 -0.65525,0.03811 -1.16703,0.17864l0 -1.0152z"/>
  <path class="fil1" d="M6.63314 2.4201c0.43709,-0.11704 0.75616,-0.14957 1.17269,-0.1815l-0.00566 1.01806c-0.27173,0.01743 -0.65525,0.03811 -1.16703,0.17864l0 -1.0152z"/>
  <path class="fil1" d="M4.48674 2.36295c0.86165,-0.09297 -0.31431,0.55397 1.00582,0.32499l0.01698 1.00954c-1.34035,0.2597 -0.14188,-0.40342 -1.02563,-0.31933l0.00283 -1.0152z"/>
  <path class="fil1" d="M4.48108 4.39489c0.86165,-0.09297 -0.31431,0.55397 1.00582,0.32499l0.01698 1.00954c-1.34035,0.2597 -0.14188,-0.40342 -1.02563,-0.31933l0.00283 -1.0152z"/>
  <line class="fil0 str1" x1="2.00224" y1="8.04331" x2="1.95692" y2= "2.35565" />
 </g>
</svg>
