<?xml version="1.0" encoding="UTF-8"?>
<!DOCTYPE svg PUBLIC "-//W3C//DTD SVG 1.1//EN" "http://www.w3.org/Graphics/SVG/1.1/DTD/svg11.dtd">
<!-- Creator: CorelDRAW -->
<svg xmlns="http://www.w3.org/2000/svg" xml:space="preserve" width="100%" height="100%" style="shape-rendering:geometricPrecision; text-rendering:geometricPrecision; image-rendering:optimizeQuality; fill-rule:evenodd; clip-rule:evenodd"
viewBox="0 0 9.88222 9.88222"
 xmlns:xlink="http://www.w3.org/1999/xlink">
 <defs>
  <style type="text/css">
   <![CDATA[
    .str1 {stroke:white;stroke-width:0.14111}
    .str0 {stroke:#00c3ff;stroke-width:0.28222}
    .fil0 {fill:none}
    .fil1 {fill:#00c3ff}
    .fil2 {fill:white}
    .fil3 {fill:#00c3ff}
   ]]>
  </style>
 </defs>
 <g id="Layer_x0020_1">
  <metadata id="CorelCorpID_0Corel-Layer"/>
  <g id="_134138144">
   <circle id="_137242328" class="fil0 str0" cx="4.94111" cy="4.94111" r="4.8"/>
   <path id="_137238656" class="fil1" d="M1.65434 2.49004l4.65224 -1.12714 0.56357 2.32612 -4.65224 1.12714 -0.56357 -2.32612zm0.28777 0.34072c0.10148,-0.0233 0.17258,-0.13473 0.14688,-0.2408l3.87687 -0.93929c0.0233,0.10148 0.13448,0.16618 0.2408,0.14688l0.37572 1.55075c-0.10514,0.02419 -0.17261,0.13992 -0.14688,0.24081l-3.87687 0.93928c-0.02419,-0.10514 -0.15366,-0.16541 -0.24081,-0.14688l-0.37571 -1.55075zm2.17924 -0.32276c0.32111,-0.0778 0.64462,0.11952 0.72242,0.44064 0.0778,0.32111 -0.11952,0.64462 -0.44064,0.72242 -0.32111,0.0778 -0.64462,-0.11952 -0.72242,-0.44064 -0.0778,-0.32111 0.11952,-0.64462 0.44064,-0.72242zm1.06314 0.15287c0.10704,-0.02594 0.21488,0.03984 0.24081,0.14688 0.02594,0.10704 -0.03984,0.21487 -0.14688,0.2408 -0.10704,0.02594 -0.21487,-0.03983 -0.2408,-0.14687 -0.02594,-0.10704 0.03983,-0.21488 0.14687,-0.24081zm-1.93843 0.46964c0.10704,-0.02593 0.21487,0.03984 0.24081,0.14688 0.02593,0.10704 -0.03984,0.21487 -0.14688,0.24081 -0.10704,0.02593 -0.21488,-0.03984 -0.24081,-0.14688 -0.02593,-0.10704 0.03984,-0.21488 0.14688,-0.24081z"/>
   <rect id="_137247968" class="fil2 str1" transform="matrix(0.704885 -0.170779 0.170779 0.704885 2.17973 2.81051)" width="6.6" height="3.3"/>
   <path id="_137240984" class="fil1" d="M2.17973 2.81051l4.65225 -1.12714 0.56357 2.32612 -4.65225 1.12714 -0.56357 -2.32612zm0.28778 0.34072c0.10148,-0.0233 0.17257,-0.13474 0.14687,-0.24081l3.87687 -0.93928c0.0233,0.10148 0.13449,0.16618 0.24081,0.14688l0.37571 1.55074c-0.10513,0.02419 -0.1726,0.13992 -0.14687,0.24081l-3.87687 0.93928c-0.02419,-0.10513 -0.15366,-0.1654 -0.24081,-0.14687l-0.37571 -1.55075zm2.17924 -0.32276c0.32111,-0.0778 0.64462,0.11952 0.72242,0.44063 0.0778,0.32112 -0.11952,0.64463 -0.44064,0.72243 -0.32111,0.0778 -0.64462,-0.11953 -0.72242,-0.44064 -0.0778,-0.32112 0.11952,-0.64463 0.44064,-0.72242zm1.06314 0.15286c0.10704,-0.02593 0.21488,0.03984 0.24081,0.14688 0.02593,0.10704 -0.03984,0.21487 -0.14688,0.24081 -0.10704,0.02593 -0.21487,-0.03984 -0.24081,-0.14688 -0.02593,-0.10704 0.03984,-0.21487 0.14688,-0.24081zm-1.93843 0.46964c0.10704,-0.02593 0.21487,0.03984 0.24081,0.14688 0.02593,0.10704 -0.03984,0.21488 -0.14688,0.24081 -0.10704,0.02593 -0.21488,-0.03984 -0.24081,-0.14688 -0.02593,-0.10704 0.03984,-0.21487 0.14688,-0.24081z"/>
   <rect id="_137238584" class="fil2 str0" x="1.61581" y="3.42409" width="6.6" height="4.2" rx="0.3" ry="0.3"/>
   <rect id="_135310960" class="fil3" x="4.61581" y="4.62409" width="3" height="0.3"/>
   <rect id="_135432768" class="fil3" x="4.61581" y="5.22409" width="2.1" height="0.3"/>
   <rect id="_137246192" class="fil3" x="2.21581" y="6.17009" width="5.4" height="0.3"/>
   <rect id="_137246408" class="fil3" x="2.21581" y="6.77009" width="3.9" height="0.3"/>
   <circle id="_134259416" class="fil3" cx="3.11581" cy="4.92409" r="0.9"/>
   <circle id="_135434832" class="fil2" cx="3.11581" cy="4.62409" r="0.3"/>
   <path id="_134258144" class="fil2" d="M2.51488 5.36482c0.00093,-0.44073 1.20093,-0.44073 1.20102,0.00284 -0.36636,0.42725 -0.84317,0.41212 -1.20102,-0.00284z"/>
   <circle id="_135434040" class="fil2 str0" cx="7.46581" cy="7.17409" r="1.05"/>
   <polygon id="_137250344" class="fil1" points="7.01581,7.02409 7.31581,7.02409 7.31581,6.72409 7.61581,6.72409 7.61581,7.02409 7.91581,7.02409 7.91581,7.32409 7.61581,7.32409 7.61581,7.62409 7.31581,7.62409 7.31581,7.32409 7.01581,7.32409 "/>
  </g>
 </g>
</svg>
