<?xml version="1.0" encoding="UTF-8"?>
<!DOCTYPE svg PUBLIC "-//W3C//DTD SVG 1.1//EN" "http://www.w3.org/Graphics/SVG/1.1/DTD/svg11.dtd">
<!-- Creator: CorelDRAW -->
<svg xmlns="http://www.w3.org/2000/svg" xml:space="preserve" width="100%" height="100%" style="shape-rendering:geometricPrecision; text-rendering:geometricPrecision; image-rendering:optimizeQuality; fill-rule:evenodd; clip-rule:evenodd"
viewBox="0 0 9.88222 9.88222"
 xmlns:xlink="http://www.w3.org/1999/xlink">
 <defs>
  <style type="text/css">
   <![CDATA[
    .str0 {stroke:#fff;stroke-width:0.28222}
    .fil0 {fill:none}
    .fil1 {fill:#fff}
   ]]>
  </style>
 </defs>
 <g id="Layer_x0020_1">
  <metadata id="CorelCorpID_0Corel-Layer"/>
  <circle class="fil0 str0" cx="4.94111" cy="4.94111" r="4.8"/>
  <polygon class="fil1" points="6.90841,3.40607 6.86609,3.41453 6.82378,3.423 6.78993,3.43147 6.76454,3.43993 6.73915,3.4484 6.71376,3.45687 6.69683,3.46533 6.67144,3.4738 6.65452,3.48227 6.62913,3.49074 6.6122,3.4992 6.59528,3.50767 6.57835,3.51614 6.56989,3.5246 6.55296,3.53307 6.53604,3.54154 6.52757,3.55 6.51065,3.55847 6.49372,3.56694 6.48526,3.5754 6.4768,3.58387 6.45987,3.59234 6.45141,3.6008 6.43448,3.60927 6.42602,3.61774 6.41755,3.6262 6.40909,3.63467 6.39217,3.64314 6.3837,3.6516 6.37524,3.66007 6.36678,3.66854 6.35831,3.677 6.34985,3.68547 6.34139,3.69394 6.33292,3.7024 6.32446,3.71087 6.316,3.71934 6.30754,3.7278 6.29907,3.73627 6.29061,3.74474 6.28215,3.7532 6.27368,3.76167 6.26522,3.7786 6.25676,3.78707 6.24829,3.79554 6.23983,3.804 6.23137,3.82094 6.22291,3.8294 6.21444,3.83787 6.20598,3.8548 6.19752,3.86327 6.18905,3.8802 6.18059,3.88867 6.17213,3.9056 6.16366,3.92254 6.1552,3.93947 6.14674,3.94794 6.13828,3.96487 6.12981,3.98181 6.12135,3.99874 6.11289,4.02414 6.10442,4.04107 6.09596,4.05801 6.0875,4.08341 6.07903,4.10881 6.07057,4.13421 6.06211,4.15961 6.05364,4.19347 6.04518,4.22734 6.03672,4.26967 6.02826,4.33741 6.02826,4.56601 6.03672,4.62528 6.04518,4.67608 6.05364,4.70994 6.06211,4.74381 6.07057,4.76921 6.07903,4.79461 6.0875,4.82001 6.09596,4.83695 6.10442,4.86235 6.11289,4.87928 6.12135,4.89621 6.12981,4.92161 6.13828,4.93008 6.14674,4.94701 6.1552,4.96395 6.16366,4.98088 6.17213,4.99781 6.18059,5.00628 6.18905,5.02321 6.19752,5.03168 6.20598,5.04861 6.21444,5.05708 6.22291,5.07401 6.23137,5.08248 6.23983,5.09095 6.24829,5.10788 6.25676,5.11635 6.26522,5.12481 6.27368,5.13328 6.28215,5.14175 6.29061,5.15868 6.29907,5.16715 6.30754,5.17561 6.316,5.18408 6.32446,5.19255 6.33292,5.20101 6.34139,5.20948 6.34985,5.21795 6.35831,5.22641 6.36678,5.23488 6.37524,5.24335 6.39217,5.25182 6.40063,5.26028 6.40909,5.26875 6.41755,5.27722 6.42602,5.28568 6.44294,5.29415 6.45141,5.30262 6.45987,5.31108 6.4768,5.31955 6.48526,5.32802 6.50218,5.33648 6.51065,5.34495 6.52757,5.35342 6.5445,5.36188 6.55296,5.37035 6.56989,5.37882 6.58681,5.38728 6.60374,5.39575 6.62067,5.40422 6.63759,5.41268 6.65452,5.42115 6.67991,5.42962 6.69683,5.43808 6.72222,5.44655 6.74761,5.45502 6.773,5.46348 6.79839,5.47195 6.83224,5.48042 6.87456,5.48888 6.91687,5.49735 7.0015,5.50582 7.1623,5.50582 7.23847,5.49735 7.28924,5.48888 7.3231,5.48042 7.35695,5.47195 7.3908,5.46348 7.41619,5.45502 7.44158,5.44655 7.46697,5.43808 7.48389,5.42962 7.50082,5.42115 7.52621,5.41268 7.54314,5.40422 7.56006,5.39575 7.57699,5.38728 7.59391,5.37882 7.60238,5.37035 7.6193,5.36188 7.63623,5.35342 7.64469,5.34495 7.66162,5.33648 7.67008,5.32802 7.68701,5.31955 7.69547,5.31108 7.7124,5.30262 7.72086,5.29415 7.72932,5.28568 7.73778,5.27722 7.75471,5.26875 7.76317,5.26028 7.77164,5.25182 7.7801,5.24335 7.78856,5.23488 7.79703,5.22641 7.80549,5.21795 7.81395,5.20948 7.82241,5.20101 7.83088,5.19255 7.83934,5.18408 7.8478,5.17561 7.85627,5.16715 7.86473,5.15868 7.87319,5.15021 7.88166,5.14175 7.89012,5.13328 7.89858,5.12481 7.90704,5.10788 7.91551,5.09941 7.92397,5.09095 7.93243,5.08248 7.9409,5.06555 7.94936,5.05708 7.95782,5.04015 7.96629,5.03168 7.97475,5.01475 7.98321,5.00628 7.99167,4.98935 8.00014,4.97241 8.0086,4.96395 8.01706,4.94701 8.02553,4.93008 8.03399,4.91315 8.04245,4.89621 8.05092,4.87081 8.05938,4.85388 8.06784,4.82848 8.0763,4.81155 8.08477,4.78614 8.09323,4.76074 8.10169,4.72688 8.11016,4.69301 8.11862,4.65914 8.12708,4.60834 8.13555,4.53214 8.13555,4.37128 8.12708,4.29507 8.11862,4.24427 8.11016,4.20194 8.10169,4.16807 8.09323,4.14267 8.08477,4.11727 8.0763,4.09187 8.06784,4.06647 8.05938,4.04954 8.05092,4.02414 8.04245,4.00721 8.03399,3.99027 8.02553,3.97334 8.01706,3.95641 8.0086,3.93947 8.00014,3.92254 7.99167,3.91407 7.98321,3.89714 7.97475,3.88867 7.96629,3.87174 7.95782,3.8548 7.94936,3.84634 7.9409,3.83787 7.93243,3.82094 7.92397,3.81247 7.91551,3.804 7.90704,3.78707 7.89858,3.7786 7.89012,3.77014 7.88166,3.76167 7.87319,3.7532 7.86473,3.73627 7.85627,3.7278 7.8478,3.71934 7.83934,3.71087 7.83088,3.7024 7.82241,3.69394 7.81395,3.68547 7.80549,3.677 7.79703,3.66854 7.7801,3.66007 7.77164,3.6516 7.76317,3.64314 7.75471,3.63467 7.74625,3.6262 7.72932,3.61774 7.72086,3.60927 7.7124,3.6008 7.70393,3.59234 7.68701,3.58387 7.67854,3.5754 7.66162,3.56694 7.65315,3.55847 7.63623,3.55 7.6193,3.54154 7.61084,3.53307 7.59391,3.5246 7.57699,3.51614 7.56006,3.50767 7.54314,3.4992 7.52621,3.49074 7.50928,3.48227 7.49236,3.4738 7.46697,3.46533 7.45004,3.45687 7.42465,3.4484 7.39926,3.43993 7.36541,3.43147 7.33156,3.423 7.29771,3.41453 7.25539,3.40607 7.18769,3.3976 6.97611,3.3976 "/>
  <polygon class="fil1" points="2.91387,2.8134 2.87155,2.82186 2.8377,2.83033 2.80385,2.8388 2.77846,2.84726 2.75307,2.85573 2.72768,2.8642 2.71076,2.87266 2.68537,2.88113 2.66844,2.8896 2.64305,2.89806 2.62612,2.90653 2.6092,2.915 2.59227,2.92346 2.57535,2.93193 2.55842,2.9404 2.54996,2.94886 2.53303,2.95733 2.51611,2.9658 2.49918,2.97426 2.49072,2.98273 2.47379,2.9912 2.46533,2.99966 2.4484,3.00813 2.43994,3.0166 2.43148,3.02506 2.41455,3.03353 2.40609,3.042 2.39762,3.05047 2.3807,3.05893 2.37223,3.0674 2.36377,3.07587 2.35531,3.08433 2.34685,3.0928 2.33838,3.10127 2.32146,3.10973 2.31299,3.1182 2.30453,3.12667 2.29607,3.13513 2.2876,3.1436 2.27914,3.15207 2.27068,3.16053 2.26222,3.169 2.25375,3.17747 2.24529,3.18593 2.23683,3.20287 2.22836,3.21133 2.2199,3.2198 2.21144,3.22827 2.20297,3.23673 2.19451,3.25367 2.18605,3.26213 2.17759,3.2706 2.16912,3.27907 2.16066,3.296 2.1522,3.30447 2.14373,3.3214 2.13527,3.32987 2.12681,3.3468 2.11834,3.35527 2.10988,3.3722 2.10142,3.38067 2.09296,3.3976 2.08449,3.41453 2.07603,3.43147 2.06757,3.4484 2.0591,3.46533 2.05064,3.48227 2.04218,3.4992 2.03371,3.51614 2.02525,3.53307 2.01679,3.55847 2.00832,3.5754 1.99986,3.6008 1.9914,3.6262 1.98294,3.6516 1.97447,3.68547 1.96601,3.71934 1.95755,3.7532 1.94908,3.804 1.94062,3.86327 1.94062,4.14267 1.94908,4.20194 1.95755,4.24427 1.96601,4.28661 1.97447,4.32047 1.98294,4.34587 1.9914,4.37128 1.99986,4.39668 2.00832,4.42208 2.01679,4.44748 2.02525,4.46441 2.03371,4.48134 2.04218,4.50674 2.05064,4.52368 2.0591,4.54061 2.06757,4.55754 2.07603,4.57448 2.08449,4.59141 2.09296,4.59988 2.10142,4.61681 2.10988,4.63374 2.11834,4.64221 2.12681,4.65914 2.13527,4.66761 2.14373,4.68454 2.1522,4.69301 2.16066,4.70994 2.16912,4.71841 2.17759,4.72688 2.18605,4.74381 2.19451,4.75228 2.20297,4.76074 2.21144,4.76921 2.2199,4.78614 2.22836,4.79461 2.23683,4.80308 2.24529,4.81155 2.25375,4.82001 2.26222,4.82848 2.27068,4.83695 2.27914,4.84541 2.2876,4.85388 2.29607,4.86235 2.30453,4.87081 2.31299,4.87928 2.32146,4.88775 2.32992,4.89621 2.33838,4.90468 2.34685,4.91315 2.35531,4.92161 2.37223,4.93008 2.3807,4.93855 2.38916,4.94701 2.39762,4.95548 2.41455,4.96395 2.42301,4.97241 2.43148,4.98088 2.4484,4.98935 2.45686,4.99781 2.47379,5.00628 2.48225,5.01475 2.49918,5.02321 2.50764,5.03168 2.52457,5.04015 2.54149,5.04861 2.54996,5.05708 2.56688,5.06555 2.58381,5.07401 2.60074,5.08248 2.61766,5.09095 2.63459,5.09941 2.65151,5.10788 2.6769,5.11635 2.69383,5.12481 2.71922,5.13328 2.74461,5.14175 2.77,5.15021 2.79539,5.15868 2.82077,5.16715 2.85463,5.17561 2.89694,5.18408 2.93926,5.19255 2.9985,5.20101 3.27778,5.20101 3.34548,5.19255 3.3878,5.18408 3.42165,5.17561 3.4555,5.16715 3.48935,5.15868 3.51474,5.15021 3.54013,5.14175 3.56552,5.13328 3.58245,5.12481 3.60783,5.11635 3.62476,5.10788 3.64169,5.09941 3.66708,5.09095 3.684,5.08248 3.70093,5.07401 3.71785,5.06555 3.72632,5.05708 3.74324,5.04861 3.76017,5.04015 3.76863,5.03168 3.78556,5.02321 3.80248,5.01475 3.81095,5.00628 3.82787,4.99781 3.83634,4.98935 3.8448,4.98088 3.86172,4.97241 3.87019,4.96395 3.87865,4.95548 3.89558,4.94701 3.90404,4.93855 3.9125,4.93008 3.92097,4.92161 3.92943,4.91315 3.94635,4.90468 3.95482,4.89621 3.96328,4.88775 3.97174,4.87928 3.98021,4.87081 3.98867,4.86235 3.99713,4.85388 4.0056,4.84541 4.01406,4.83695 4.02252,4.82848 4.03098,4.82001 4.03945,4.81155 4.04791,4.80308 4.05637,4.78614 4.06484,4.77768 4.0733,4.76921 4.08176,4.76074 4.09023,4.75228 4.09869,4.73534 4.10715,4.72688 4.11562,4.71841 4.12408,4.70148 4.13254,4.69301 4.141,4.67608 4.14947,4.66761 4.15793,4.65068 4.16639,4.64221 4.17486,4.62528 4.18332,4.61681 4.19178,4.59988 4.20025,4.58294 4.20871,4.56601 4.21717,4.54908 4.22563,4.53214 4.2341,4.51521 4.24256,4.49828 4.25102,4.48134 4.25949,4.45594 4.26795,4.43901 4.27641,4.41361 4.28488,4.38821 4.29334,4.36281 4.3018,4.33741 4.31026,4.31201 4.31873,4.26967 4.32719,4.23581 4.33565,4.18501 4.34412,4.11727 4.34412,3.88867 4.33565,3.81247 4.32719,3.77014 4.31873,3.7278 4.31026,3.69394 4.3018,3.66007 4.29334,3.63467 4.28488,3.60927 4.27641,3.58387 4.26795,3.56694 4.25949,3.54154 4.25102,3.5246 4.24256,3.4992 4.2341,3.48227 4.22563,3.46533 4.21717,3.4484 4.20871,3.43147 4.20025,3.41453 4.19178,3.40607 4.18332,3.38913 4.17486,3.3722 4.16639,3.36373 4.15793,3.3468 4.14947,3.33833 4.141,3.3214 4.13254,3.31293 4.12408,3.296 4.11562,3.28753 4.10715,3.2706 4.09869,3.26213 4.09023,3.25367 4.08176,3.2452 4.0733,3.22827 4.06484,3.2198 4.05637,3.21133 4.04791,3.20287 4.03945,3.1944 4.03098,3.18593 4.02252,3.17747 4.01406,3.169 4.0056,3.16053 3.99713,3.15207 3.98867,3.1436 3.98021,3.13513 3.97174,3.12667 3.96328,3.1182 3.95482,3.10973 3.94635,3.10127 3.93789,3.0928 3.92943,3.08433 3.92097,3.07587 3.9125,3.0674 3.89558,3.05893 3.88711,3.05047 3.87865,3.042 3.86172,3.03353 3.85326,3.02506 3.8448,3.0166 3.82787,3.00813 3.81941,2.99966 3.80248,2.9912 3.79402,2.98273 3.77709,2.97426 3.76863,2.9658 3.75171,2.95733 3.73478,2.94886 3.71785,2.9404 3.70939,2.93193 3.69246,2.92346 3.67554,2.915 3.65861,2.90653 3.63322,2.89806 3.6163,2.8896 3.59937,2.88113 3.57398,2.87266 3.55706,2.8642 3.53167,2.85573 3.50628,2.84726 3.47243,2.8388 3.44704,2.83033 3.40472,2.82186 3.37087,2.8134 3.32009,2.80493 2.96465,2.80493 "/>
  <path class="fil1" d="M2.88848 5.50582l-0.05924 0.00846 -0.05924 0.00847 -0.04232 0.00847 -0.04231 0.00846 -0.04232 0.00847 -0.03385 0.00847 -0.02539 0.00846 -0.02539 0.00847 -0.03385 0.00847 -0.02539 0.00846 -0.01693 0.00847 -0.02539 0.00847 -0.02538 0.00846 -0.01693 0.00847 -0.02539 0.00847 -0.01693 0.00846 -0.01692 0.00847 -0.01693 0.00847 -0.01692 0.00846 -0.01693 0.00847 -0.01693 0.00847 -0.01692 0.00847 -0.01693 0.00846 -0.00846 0.00847 -0.01693 0.00847 -0.01692 0.00846 -0.00847 0.00847 -0.01692 0.00847 -0.00846 0.00846 -0.01693 0.00847 -0.00846 0.00847 -0.01693 0.00846 -0.00846 0.00847 -0.01693 0.00847 -0.00846 0.00846 -0.00846 0.00847 -0.00847 0.00847 -0.01692 0.00846 -0.00847 0.00847 -0.00846 0.00847 -0.00846 0.00846 -0.00847 0.00847 -0.01692 0.00847 -0.00847 0.00846 -0.00846 0.00847 -0.00846 0.00847 -0.00846 0.00846 -0.00847 0.00847 -0.00846 0.00847 -0.00846 0.00846 -0.00847 0.00847 -0.00846 0.00847 -0.00846 0.00846 -0.00847 0.00847 -0.00846 0.00847 -0.00846 0.00846 -0.00846 0.00847 -0.00847 0.00847 -0.00846 0.01693 -0.00846 0.00847 -0.00847 0.00846 -0.00846 0.00847 -0.00846 0.00847 -0.00847 0.01693 -0.00846 0.00847 -0.00846 0.00846 -0.00846 0.01694 -0.00847 0.00846 -0.00846 0.00847 -0.00846 0.01694 -0.00847 0.00846 -0.00846 0.00847 -0.00846 0.01693 -0.00847 0.01694 -0.00846 0.00846 -0.00846 0.01694 -0.00846 0.00846 -0.00847 0.01694 -0.00846 0.01693 -0.00846 0.00847 -0.00847 0.01693 -0.00846 0.01693 -0.00846 0.00847 -0.00847 0.01693 -0.00846 0.01694 -0.00846 0.01693 -0.00846 0.01693 -0.00847 0.01694 -0.00846 0.01693 -0.00846 0.0254 -0.00847 0.01693 -0.00846 0.01694 -0.00846 0.01693 -0.00847 0.0254 -0.00846 0.01693 -0.00846 0.0254 -0.00846 0.01694 -0.00847 0.0254 -0.00846 0.0254 -0.00846 0.0254 -0.00847 0.0254 -0.00846 0.0254 -0.00846 0.0254 -0.00847 0.0254 -0.00846 0.03387 -0.00846 0.0254 -0.00846 0.03386 -0.00847 0.03387 -0.00846 0.03387 -0.00846 0.03386 -0.00847 0.04234 -0.00846 0.03386 -0.00846 0.04234 -0.00847 0.0508 -0.00846 0.0508 -0.00846 0.0508 -0.00846 0.05927 -0.00847 0.06773 -0.00846 0.0762 -0.00846 0.09314 -0.00847 0.11006 -0.00846 0.16934 0 0.254 0.00846 0.00847 0.00847 0.00846 0.00846 0.00847 0.00846 0.00847 0.00847 0.00846 0.00846 0.00847 0.00846 0.00847 0.00846 0.00846 0.00847 0.00847 0.00846 0.00847 0.00846 0.00846 0.00847 0.01694 0.00846 0.00846 0.00846 0.00847 0.00847 0.00847 0.00846 0.00846 0.00846 0.00847 0.00846 0.00847 0.00847 0.00846 0.00846 0.00847 0.00846 0.00847 0.00847 0.00846 0.00846 0.00847 0.00846 0.00847 0.00847 0.00846 0.00846 0.00847 0.00846 0.00847 0.00846 0.00846 0.00847 0.00847 0.00846 0.00847 0.00846 0.00846 0.00847 0.00847 0.00846 0.00847 0.00846 0.00846 0.00847 0.00847 0.00846 0.00847 0.01692 0.00847 0.00847 0.00846 0.00846 0.00847 0.00846 0.00847 0.00847 0.00846 0.00846 0.00847 0.00846 0.00847 0.00847 0.00846 0.00846 0.00847 0.00846 0.00847 0.00846 0.00846 0.01693 0.00847 0.00846 0.00847 0.00847 0.00846 0.00846 0.00847 0.00846 0.00847 0.00847 0.00846 0.00846 0.00847 0.00846 0.00847 0.01693 0.00846 0.00846 0.00847 0.00846 0.00847 0.00847 0.00846 0.00846 0.00847 0.01693 0.00847 0.00846 0.00846 0.00846 0.00847 0.00846 0.00847 0.00847 0.00846 0.01692 0.00847 0.00847 0.00847 0.00846 0.00846 0.00846 0.00847 0.01693 0.00847 0.00846 0.00846 0.00846 0.00847 0.00847 0.00847 0.01692 0.00846 0.00847 0.00847 0.00846 0.00847 0.01693 0.00846 0.00846 0.00847 0.00846 0.00847 0.01693 0.00846 0.00846 0.00847 0.00846 0.00847 0.01693 0.00846 0.00846 0.00847 0.01693 0.00847 0.00846 0.00846 0.00847 0.00847 0.01692 0.00847 0.00846 0.00847 0.01693 0.00846 0.00846 0.00847 0.01693 0.00847 0.00846 0.00846 0.01693 0.00847 0.00846 0.00847 0.00846 0.00846 0.01693 0c0,-0.34049 0.09282,-0.61236 0.23013,-0.81964 0.06893,-0.10406 0.1697,-0.18362 0.2774,-0.24742 0.07178,-0.04253 0.29151,-0.13284 0.39801,-0.13521 -0.04802,-0.04177 -0.12636,-0.06912 -0.19247,-0.12919 -0.06658,-0.06048 -0.10531,-0.09465 -0.15801,-0.17211 -0.08688,-0.12769 -0.1573,-0.29228 -0.1573,-0.50304l0 -0.01694c0,-0.45947 0.39236,-0.88054 0.83784,-0.88054l0.10156 0c0.24304,0 0.44702,0.12673 0.57775,0.24327 0.10694,0.09532 0.26855,0.36408 0.26855,0.56107l0 0.1778c0,0.14166 -0.11515,0.38424 -0.184,0.4594 -0.05977,0.06523 -0.09071,0.10389 -0.16146,0.1602 -0.0337,0.02682 -0.19545,0.11293 -0.20464,0.12548 0.12395,0.01032 0.30705,0.13265 0.38779,0.19625 0.05985,0.04715 0.09426,0.08629 0.14306,0.14473 0.02723,0.03261 0.10575,0.16445 0.1208,0.17549 0.0166,-0.07127 0.11432,-0.20801 0.15731,-0.26597 0.04246,-0.05726 0.18191,-0.19441 0.19814,-0.2251l0 -0.0508 -0.00846 -0.16087 -0.00847 -0.11007 -0.00846 -0.08467 -0.00846 -0.0762 -0.00846 -0.05926 -0.00847 -0.05927 -0.00846 -0.0508 -0.00846 -0.0508 -0.00847 -0.04234 -0.00846 -0.04233 -0.00846 -0.03387 -0.00847 -0.03386 -0.00846 -0.04234 -0.00846 -0.0254 -0.00846 -0.03386 -0.00847 -0.03387 -0.00846 -0.0254 -0.00846 -0.0254 -0.00847 -0.0254 -0.00846 -0.0254 -0.00846 -0.0254 -0.00847 -0.0254 -0.00846 -0.0254 -0.00846 -0.01694 -0.00847 -0.0254 -0.00846 -0.01693 -0.00846 -0.0254 -0.00846 -0.01693 -0.00847 -0.01694 -0.00846 -0.01693 -0.00846 -0.01693 -0.00847 -0.01694 -0.00846 -0.0254 -0.00846 -0.01693 -0.00847 -0.00847 -0.00846 -0.01693 -0.00846 -0.01693 -0.00846 -0.01694 -0.00847 -0.01693 -0.00846 -0.00847 -0.00846 -0.01693 -0.00847 -0.01693 -0.00846 -0.00847 -0.00846 -0.01693 -0.00847 -0.00847 -0.00846 -0.01693 -0.00846 -0.00847 -0.00846 -0.01693 -0.00847 -0.00847 -0.00846 -0.01694 -0.00846 -0.00846 -0.00847 -0.00847 -0.00846 -0.01693 -0.00846 -0.00847 -0.00847 -0.00847 -0.00846 -0.00846 -0.00846 -0.01694 -0.00846 -0.00846 -0.00847 -0.00847 -0.00846 -0.00847 -0.00846 -0.00846 -0.00847 -0.00847 -0.00846 -0.00847 -0.00846 -0.00846 -0.00847 -0.01694 -0.00846 -0.00846 -0.00846 -0.00847 -0.00846 -0.00847 -0.00847 -0.00846 -0.00846 -0.00847 -0.01693 -0.00847 -0.00846 -0.00846 -0.00846 -0.00847 -0.00847 -0.00847 -0.00846 -0.00846 -0.00846 -0.00847 -0.00846 -0.00847 -0.00847 -0.00846 -0.01692 -0.00847 -0.00847 -0.00847 -0.00846 -0.00846 -0.00846 -0.00847 -0.01693 -0.00847 -0.00846 -0.00846 -0.01693 -0.00847 -0.00846 -0.00847 -0.00846 -0.00846 -0.01693 -0.00847 -0.00846 -0.00847 -0.01693 -0.00846 -0.01692 -0.00847 -0.00847 -0.00847 -0.01692 -0.00846 -0.01693 -0.00847 -0.00846 -0.00847 -0.01693 -0.00846 -0.01693 -0.00847 -0.01692 -0.00847 -0.01693 -0.00847 -0.01692 -0.00846 -0.01693 -0.00847 -0.02539 -0.00847 -0.01692 -0.00846 -0.02539 -0.00847 -0.01693 -0.00847 -0.02539 -0.00846 -0.02539 -0.00847 -0.02539 -0.00847 -0.01692 -0.00846 -0.03385 -0.00847 -0.02539 -0.00847 -0.03386 -0.00846 -0.03385 -0.00847 -0.04231 -0.00847 -0.04232 -0.00846 -0.04231 -0.00847 -0.05924 -0.00847 -0.06771 -0.00846 -0.10155 -0.00847 -0.31314 0 -0.10155 0.00847z"/>
  <path class="fil1" d="M2.98157 6.81816l0 0.01693c0,0.34518 0.26794,0.62654 0.60934,0.62654 0.32384,0 0.6178,-0.26676 0.6178,-0.5842l0 -0.06774c0,-0.29057 -0.2842,-0.57573 -0.57549,-0.57573l-0.11002 0c-0.26094,0 -0.54163,0.30665 -0.54163,0.5842z"/>
  <path class="fil1" d="M5.07194 6.39482c0,0.39632 0.32735,0.76201 0.70243,0.76201l0.11001 0c0.35651,0 0.70243,-0.35659 0.70243,-0.71967l0 -0.06774c0,-0.3847 -0.35155,-0.72814 -0.73628,-0.72814l-0.05924 0c-0.38128,0 -0.71935,0.35873 -0.71935,0.75354z"/>
  <path class="fil1" d="M5.17308 7.5975c0.13264,-0.09061 0.26812,-0.13868 0.45741,-0.16974 -0.12549,-0.02399 -0.29306,-0.0916 -0.41507,-0.21208l-0.04234 0.38182z"/>
  <path class="fil1" d="M4.72495 8.62157c0,0.00088 0.02389,0.1291 0.02877,0.15749 0.00902,0.05253 0.01297,0.11114 0.02021,0.15758 0.01315,0.08429 0.01026,0.25997 0.01026,0.35381l0.01133 0.40141c0.52758,0.16496 1.90218,-0.14 2.26249,-0.50813 0,-0.33101 -0.1688,-0.895 -0.3104,-1.08709 -0.15706,-0.21309 -0.45301,-0.39794 -0.82091,-0.39794l-0.18619 0c-0.28031,0 -0.53614,0.15199 -0.67917,0.2942 -0.09095,0.09044 -0.33639,0.4735 -0.33639,0.62867z"/>
  <path class="fil1" d="M6.82378 5.76829l-0.08463 0.00846 -0.05924 0.00847c0.01178,0.05062 0.09986,0.1753 0.128,0.26141 0.03648,0.11157 0.05818,0.17788 0.05818,0.33126l0 0.08467c0,0.28652 -0.13585,0.46988 -0.26393,0.63342 -0.0605,0.07726 -0.15807,0.15057 -0.24662,0.20201 -0.05051,0.02935 -0.09523,0.05261 -0.15282,0.07571 -0.03609,0.01448 -0.14856,0.0389 -0.166,0.05406 0.17912,0 0.45658,0.10219 0.57211,0.17272 0.15192,0.09274 0.28551,0.20836 0.38257,0.35386 0.11803,0.17693 0.16278,0.28732 0.23171,0.51327 0.04213,0.1381 0.09999,0.45941 0.09999,0.63657l0.00846 0 0.01693 -0.00847 0.01692 -0.00847 0.00846 -0.00846 0.01693 -0.00847 0.01693 -0.00847 0.01692 -0.00846 0.00847 -0.00847 0.01692 -0.00847 0.01693 -0.00846 0.00846 -0.00847 0.01693 -0.00847 0.01692 -0.00846 0.00847 -0.00847 0.01692 -0.00847 0.00847 -0.00846 0.01692 -0.00847 0.00846 -0.00847 0.01693 -0.00846 0.00846 -0.00847 0.01693 -0.00847 0.00846 -0.00846 0.01693 -0.00847 0.00846 -0.00847 0.01693 -0.00846 0.00846 -0.00847 0.01693 -0.00847 0.00846 -0.00846 0.00846 -0.00847 0.01693 -0.00847 0.00846 -0.00846 0.00846 -0.00847 0.01693 -0.00847 0.00846 -0.00846 0.01693 -0.00847 0.00846 -0.00847 0.00847 -0.00846 0.00846 -0.00847 0.01692 -0.00847 0.00847 -0.00847 0.00846 -0.00846 0.00846 -0.00847 0.01693 -0.00847 0.00846 -0.00846 0.00847 -0.00847 0.00846 -0.00847 0.01692 -0.00846 0.00847 -0.00847 0.00846 -0.00847 0.00846 -0.00846 0.00847 -0.00847 0.00846 -0.00847 0.01693 -0.00846 0.00846 -0.00847 0.00846 -0.00847 0.00846 -0.00846 0.00847 -0.00847 0.00846 -0.00847 0.00846 -0.00846 0.01693 -0.00847 0.00846 -0.00847 0.00847 -0.00846 0.00846 -0.00847 0.00846 -0.00847 0.00846 -0.00846 0.00847 -0.00847 0.00846 -0.00847 0.00846 -0.00846 0.00847 -0.00847 0.00846 -0.00847 0.00846 -0.00846 0.00847 -0.00847 0.00846 -0.00847 0.00846 -0.00846 0.00847 -0.00847 0.00846 -0.00847 0.00846 -0.00846 0.00846 -0.00847 0.00847 -0.00847 0.00846 -0.00846 0.00846 -0.00847 0.00847 -0.00847 0.00846 -0.00846 0.00846 -0.00847 0.00847 -0.00847 0.00846 -0.00846 0.00846 -0.00847 0.00846 -0.00847 0.00847 -0.00846 0.00846 -0.00847 0.00846 -0.00847 0.00847 -0.00847 0.00846 -0.00846 0.00846 -0.00847 0.00847 -0.00847 0.00846 -0.00846 0.00846 -0.00847 0.00846 -0.00847 0.00847 -0.00846 0.00846 -0.01694 0.00846 -0.00846 0.00847 -0.00847 0.00846 -0.00847 0.00846 -0.00846 0.00847 -0.00847 0.00846 -0.00847 0.00846 -0.00846 0.00846 -0.00847 0.00847 -0.01693 0.00846 -0.00847 0.00846 -0.00847 0.00847 -0.00846 0.00846 -0.00847 0.00846 -0.00847 0.00847 -0.00846 0.00846 -0.00847 0.00846 -0.01693 0.00846 -0.00847 0.00847 -0.00847 0.00846 -0.00846 0.00846 -0.00847 0.00847 -0.00847 0.00846 -0.01693 0.00846 -0.00847 0.00847 -0.00846 0.00846 -0.00847 0.00846 -0.00847 0.00846 -0.00846 0.00847 -0.01694 0.00846 -0.00846 0.00846 -0.00847 0.00847 -0.00847 0.00846 -0.00846 0.00846 -0.00847 0.00847 -0.01693 0.00846 -0.00847 0.00846 -0.00847 0.00846 -0.00847 0.00847 -0.00846 0.00846 -0.01694 0.00846 -0.00846 0.00847 -0.00847 0.00846 -0.00847 0.00846 -0.01693 0.00847 -0.00847 0.00846 -0.00846 0.00846 -0.00847 0.00846 -0.00847 0.00847 -0.01693 0.00846 -0.00847 0.00846 -0.00846 0.00847 -0.00847 0.00846 -0.00847 0 -0.1524 -0.00846 -0.08466 -0.00847 -0.06774 -0.00846 -0.0508 -0.00846 -0.05927 -0.00847 -0.04233 -0.00846 -0.0508 -0.00846 -0.03387 -0.00846 -0.04233 -0.00847 -0.03387 -0.00846 -0.03386 -0.00846 -0.03387 -0.00847 -0.03387 -0.00846 -0.03387 -0.00846 -0.0254 -0.00847 -0.0254 -0.00846 -0.0254 -0.00846 -0.0254 -0.00846 -0.0254 -0.00847 -0.0254 -0.00846 -0.0254 -0.00846 -0.01693 -0.00847 -0.0254 -0.00846 -0.01693 -0.00846 -0.0254 -0.00847 -0.01694 -0.00846 -0.01693 -0.00846 -0.0254 -0.00846 -0.01693 -0.00847 -0.01694 -0.00846 -0.01693 -0.00846 -0.01693 -0.00847 -0.01694 -0.00846 -0.01693 -0.00846 -0.00847 -0.00847 -0.01693 -0.00846 -0.01694 -0.00846 -0.01693 -0.00846 -0.00847 -0.00847 -0.01693 -0.00846 -0.01693 -0.00846 -0.00847 -0.00847 -0.01693 -0.00846 -0.00847 -0.00846 -0.01693 -0.00847 -0.00847 -0.00846 -0.01693 -0.00846 -0.00847 -0.00846 -0.00847 -0.00847 -0.01693 -0.00846 -0.00847 -0.00846 -0.00846 -0.00847 -0.01694 -0.00846 -0.00846 -0.00846 -0.00847 -0.00847 -0.00847 -0.00846 -0.00846 -0.00846 -0.01694 -0.00846 -0.00846 -0.00847 -0.00847 -0.00846 -0.00847 -0.00846 -0.00846 -0.00847 -0.00847 -0.00846 -0.00847 -0.00846 -0.00846 -0.00847 -0.00847 -0.00846 -0.00847 -0.00846 -0.00846 -0.00846 -0.00847 -0.00847 -0.00847 -0.00846 -0.00846 -0.00846 -0.00847 -0.00847 -0.00847 -0.01692 -0.00846 -0.00847 -0.00847 -0.00846 -0.00847 -0.00846 -0.00847 -0.00846 -0.00846 -0.01693 -0.00847 -0.00846 -0.00847 -0.00847 -0.00846 -0.01692 -0.00847 -0.00847 -0.00847 -0.00846 -0.00846 -0.01693 -0.00847 -0.00846 -0.00847 -0.01692 -0.00846 -0.00847 -0.00847 -0.01692 -0.00847 -0.00847 -0.00846 -0.01692 -0.00847 -0.01693 -0.00847 -0.01692 -0.00846 -0.00847 -0.00847 -0.01692 -0.00847 -0.01693 -0.00846 -0.01693 -0.00847 -0.01692 -0.00847 -0.01693 -0.00846 -0.02539 -0.00847 -0.01692 -0.00847 -0.01693 -0.00846 -0.02539 -0.00847 -0.01692 -0.00847 -0.02539 -0.00846 -0.02539 -0.00847 -0.02539 -0.00847 -0.02539 -0.00846 -0.02539 -0.00847 -0.03385 -0.00847 -0.03385 -0.00846 -0.03385 -0.00847 -0.04232 -0.00847 -0.04232 -0.00846 -0.05077 -0.00847 -0.05924 -0.00847 -0.07617 -0.00846 -0.1608 -0.00847 -0.12694 0 -0.1608 0.00847z"/>
  <path class="fil1" d="M2.55828 9.04827c0,0.04631 1.56769,0.64905 1.96083,0.65778l-0.02266 -0.58494c0,-0.69094 -0.23981,-1.21074 -0.93093,-1.21074 -0.661,0 -0.97325,0.27428 -0.97325,0.93134l-0.03399 0.20656z"/>
  <path class="fil0 str0" d="M5.32294 3.46285c1.34305,-1.16139 1.14587,-1.64046 0.96073,-1.87899 -0.18514,-0.23853 -0.70918,-0.37171 -0.96073,0.07899 -0.25155,-0.4507 -0.77559,-0.31876 -0.96073,-0.08023 -0.18514,0.23853 -0.38232,0.71884 0.96073,1.88023z"/>
 </g>
</svg>
