<?xml version="1.0" encoding="UTF-8"?>
<!DOCTYPE svg PUBLIC "-//W3C//DTD SVG 1.1//EN" "http://www.w3.org/Graphics/SVG/1.1/DTD/svg11.dtd">
<!-- Creator: CorelDRAW -->
<svg xmlns="http://www.w3.org/2000/svg" xml:space="preserve" width="100%" height="100%" style="shape-rendering:geometricPrecision; text-rendering:geometricPrecision; image-rendering:optimizeQuality; fill-rule:evenodd; clip-rule:evenodd"
viewBox="0 0 9.88587 9.90482"
 xmlns:xlink="http://www.w3.org/1999/xlink">
 <defs>
  <style type="text/css">
   <![CDATA[
    .str0 {stroke:#02D6C2;stroke-width:0.28222}
    .str1 {stroke:#02D6C2;stroke-width:0.28222;stroke-linecap:round;stroke-linejoin:round}
    .fil1 {fill:none}
    .fil0 {fill:white}
   ]]>
  </style>
 </defs>
 <g id="Layer_x0020_1">
  <metadata id="CorelCorpID_0Corel-Layer"/>
  <circle class="fil0 str0" cx="4.94476" cy="4.94111" r="4.8"/>
  <circle class="fil1 str0" cx="4.94111" cy="4.96371" r="4.8"/>
  <circle class="fil1 str1" cx="4.94111" cy="4.96371" r="3.39911"/>
  <path class="fil1 str1" d="M5.3491 1.60052c0.05665,0.02266 0.63448,0.15862 0.63448,0.15862l0.04532 0.21527 -0.31724 0 0.21527 0.13596 0.14729 0.15862 0.1133 0 -0.13596 0.06798 0.1133 0.14729 -0.12463 0.02266 0.06798 0.14729 -0.13596 -0.01133 -0.07931 0.23793 -0.14729 0.10197 0.06798 -0.1133 -0.09064 -0.09064 -0.27192 -0.07931 -0.19261 -0.01133 -0.2955 0.30591 -0.22568 0.37389 -0.01133 0.16995 0.23701 -0.09064 0 0.12463 0.09156 0.13596 0.20394 -0.27192 -0.05665 -0.30591 0.20394 -0.13596 -0.09064 0.27192 0.10197 0.15862 0.01133 0.23793 -0.15862 0.14729 -0.30683 0.05665 0 -0.29458 -0.14637 0.28325 -0.26059 0.1133 -0.12463 0.14729 -0.2266 0.05665 -0.09064 0.06798 0.15862 0.14729 -0.02266 0.18128 -0.19261 0.02266 -0.23793 -0.07931 0 0.15862 -0.09064 0.23793 0.07931 0.16995 0.19261 0.07931 0.30591 -0.15862 0 -0.20394 0.16995 -0.02266 0.06798 -0.09064 0.18128 -0.01133 0.12463 -0.09064 0.2266 0.24926 0.19261 0.13596 -0.07931 0.10197 -0.16995 -0.05665 0.16995 0.19261 0.09064 -0.16995 0.02266 -0.15862 0.10197 0.07931 -0.02266 -0.12463 -0.30591 -0.23793 0 -0.09064 0.31724 0.2266 0.15862 0.26059 0.09064 0.23793 0.05665 -0.10197 0 -0.1133 0.10197 0.05665 -0.1133 -0.20394 0.1133 -0.10197 0.06798 0.2266 0.10197 -0.21527 -0.13596 -0.20394 0.12463 -0.23793 0.2266 0.06798 0.07931 -0.07931 -0.04532 -0.06798 0.20394 -0.1133 -0.04532 0.21527 0.15862 0.07931 0.05665 0.12463 -0.35123 0.07931 -0.21527 0.07931 -0.13596 0.2266 0.03399 0.12463 0.23793 0.05665 0.07931 -0.06798 0.10197 0 0.07931 -0.06798 0.06798 0.20394 0 0.24926 -0.31724 0.01133 -0.1133 0.10197 -0.3399 -0.12463 -0.19261 0.12463 -0.1133 0.09064 -0.16995 -0.12463 -0.18128 -0.14729 -0.10289 0.06798 0 -0.13674 0 -0.12385 -0.30499 0.02266 -0.41921 -0.01133 -0.21528 0.11252 -0.14728 -0.13518 -0.2266 0.13518 -0.09064 0.14807 -0.03399 0.18128 -0.30591 0.14729 -0.14729 0.26059 0 0.38522 0.02266 0.28325 0.19261 0.28325 0.24926 0.20394 0.35123 0.02266 0.37389 0.07931 0.24926 -0.02266 0.07931 0.10197 0.28325 -0.01133 -0.04532 0.12463 -0.06798 0.18128 0.20302 0.07931 0.13688 0.15862 -0.03399 0.16995 -0.10289 0.10197 0.32949 0.10197"/>
  <path class="fil1 str1" d="M8.28357 5.55469l-0.15862 -0.71379 -0.09064 0.13596 -0.07931 -0.04532 -0.2266 0.27192 -0.20394 0 -0.29458 -0.03399 -0.04532 0.13518 0.21527 0.13674 0.14729 -0.13674 0.15862 0 0.10197 0.1594 -0.23793 0.46453 -0.36256 0.43054 -0.16995 -0.14729c0,0 -0.19261,-0.16995 -0.21527,-0.23793 -0.02266,-0.06798 -0.23793,-0.35123 -0.23793,-0.35123l-0.15862 0.07931 0.15862 0.23793 0.13596 0.23793 0.24926 0.23793 0.23793 0.1133 0.3399 -0.30591 -0.13596 0.38522 -0.47586 0.46453 -0.16995 0.37389 0.03399 0.20394 -0.46453 0.30591 -0.03399 0.05665"/>
  <path class="fil1 str1" d="M4.43137 4.02514l0.07931 -0.13596 -0.14729 -0.29458 0.09064 -0.05665 -0.1133 -0.1133c0,0 -0.07931,0.15862 -0.07931,0.21527 0,0.05665 0.03399,0.24926 0.03399,0.24926l-0.07931 0.05665 -0.07931 0.09064 0.29458 -0.01133z"/>
  <polygon class="fil1 str1" points="4.14812,3.86652 4.18211,3.73056 4.01216,3.69657 3.9895,3.88918 "/>
  <polyline class="fil1 str1" points="5.02053,2.38229 5.14516,2.24633 4.96296,2.26899 4.96296,2.37096 "/>
  <polygon class="fil1 str1" points="5.97225,2.51825 5.84762,2.4616 5.76831,2.235 5.689,2.24633 5.75698,2.47293 5.83629,2.55224 "/>
  <polygon class="fil1 str1" points="4.2161,3.00544 4.2161,2.9148 3.93285,2.86948 3.85354,2.96012 3.92152,3.08475 "/>
  <path class="fil1 str1" d="M4.08014 2.69953l0.10197 -0.21527 0.15862 0.04532 0.31724 -0.36256 -0.12463 -0.06798 -0.13596 -0.12463 0 -0.07931 -0.15862 -0.02266 -0.14729 0.13596 -0.16995 0.26059 -0.20394 0.13596 -0.23793 0.05665 -0.18128 0.26059 -0.10197 0.18128 0.41921 -0.1133 0.2266 -0.1133c0,0 0.20394,0 0.23793,0.02266z"/>
  <path class="fil1 str1" d="M4.4427 1.58919l-0.2266 0.16995 -0.29458 -0.02266 0 0.28325c0,0 -0.15862,-0.02266 -0.16995,0.03399 -0.01133,0.05665 -0.20394,0.21527 -0.20394,0.21527l-0.15862 0.13596 0 -0.21527 0.18128 -0.10197 0.16995 -0.13596 0.10197 -0.07931 -0.1133 0.01133 -0.35123 0.28325 -0.13596 0.04532 -0.26059 0.09064 -0.32857 0.31724 0.49852 -0.32857 -0.2266 0.30591 0.18128 -0.02266 -0.23793 0.27192 -0.07931 0.20394 -0.2266 0.2266 -0.09064 0.19261 -0.05665 -0.09064 0.18128 -0.27192 -0.16995 -0.18128 -0.06798 0.19261 -0.09064 0.16995 0.01133 0.06798 -0.09064 -0.07931 -0.2266 0.13596"/>
  <path class="fil1 str1" d="M3.1964 2.52958c0.05665,-0.02266 0.1133,-0.12463 0.1133,-0.12463l-0.02266 -0.14729 -0.13596 0.15862 0.04532 0.1133z"/>
  <polygon class="fil1 str1" points="4.7826,4.97686 4.80526,4.8409 4.85058,4.90888 4.87324,5.01085 "/>
 </g>
</svg>
