<?xml version="1.0" encoding="utf-8"?>
<!-- Generator: Adobe Illustrator 16.0.4, SVG Export Plug-In . SVG Version: 6.00 Build 0)  -->
<!DOCTYPE svg PUBLIC "-//W3C//DTD SVG 1.1//EN" "http://www.w3.org/Graphics/SVG/1.1/DTD/svg11.dtd">
<svg version="1.1" id="Layer_1" xmlns="http://www.w3.org/2000/svg" xmlns:xlink="http://www.w3.org/1999/xlink" x="0px" y="0px"
	 width="740px" height="490px" viewBox="0 0 740 490" enable-background="new 0 0 740 490" xml:space="preserve">
<rect fill="#23C0FF" width="740" height="490"/>
<g>
	<g opacity="0.2">
		<path fill="#FFFFFF" d="M566.2,48.8c25.5,25.5,45.5,55.2,59.5,88.2c14.5,34.2,21.8,70.5,21.8,108s-7.3,73.8-21.8,108
			c-14,33-34,62.7-59.5,88.2c-19.6,19.6-41.7,35.9-65.8,48.8h35.2c78.5-53.2,130.1-143.1,130.1-245S614.1,53.2,535.6,0h-35.2
			C524.5,12.9,546.6,29.2,566.2,48.8z"/>
		<path fill="#FFFFFF" d="M173.8,441.2c-25.5-25.5-45.5-55.2-59.5-88.2c-14.5-34.2-21.8-70.5-21.8-108s7.3-73.8,21.8-108
			c14-33,34-62.7,59.5-88.2c19.6-19.6,41.7-35.9,65.8-48.8h-35.2C125.9,53.2,74.3,143.1,74.3,245s51.6,191.8,130.1,245h35.2
			C215.5,477.1,193.4,460.8,173.8,441.2z"/>
	</g>
	<g opacity="0.6">
		<path fill="#FFFFFF" d="M556,257.1h-26.4v-64.8c8.4,2.4,17.3,3.6,26.4,3.6c2.5,0,4.6-2,4.6-4.6s-2-4.6-4.6-4.6
			c-48.8,0-88.4-39.7-88.4-88.4c0-2.5-2-4.6-4.6-4.6s-4.6,2-4.6,4.6c0,48.8-39.7,88.4-88.4,88.4s-88.4-39.7-88.4-88.4
			c0-2.5-2-4.6-4.6-4.6s-4.6,2-4.6,4.6c0,48.8-39.7,88.4-88.4,88.4c-2.5,0-4.6,2-4.6,4.6s2,4.6,4.6,4.6c9.2,0,18-1.3,26.4-3.6v64.8
			H184c-2.5,0-4.6,2-4.6,4.6v34.5c0,2.5,2,4.6,4.6,4.6h71.4v46.9h-24.9c-2.5,0-4.6,2-4.6,4.6s2,4.6,4.6,4.6H260h34h25.4
			c2.5,0,4.6-2,4.6-4.6s-2-4.6-4.6-4.6h-20.8v-46.9h142.9v46.9h-22.9c-2.5,0-4.6,2-4.6,4.6s2,4.6,4.6,4.6H446h34h27.5
			c2.5,0,4.6-2,4.6-4.6s-2-4.6-4.6-4.6h-22.9v-46.9H556c2.5,0,4.6-2,4.6-4.6v-34.5C560.6,259.2,558.5,257.1,556,257.1z M520.4,189.2
			v67.9h-52.9V139.5C478.1,162.1,497.1,180.1,520.4,189.2z M458.4,139.5v117.6h-52.9v-67.9C428.9,180.1,447.9,162.1,458.4,139.5z
			 M396.4,192.3v64.8h-52.9v-64.8c8.4,2.4,17.3,3.6,26.4,3.6S388,194.7,396.4,192.3z M334.4,189.2v67.9h-52.9V139.5
			C292.1,162.1,311.1,180.1,334.4,189.2z M219.6,189.2c23.3-9.2,42.3-27.1,52.9-49.7v117.6h-52.9V189.2z M289.4,347.6h-24.9v-46.9
			h24.9V347.6z M475.4,347.6h-24.9v-46.9h24.9V347.6z M551.4,291.6H480h-34H294h-34h-71.4v-25.4h362.9V291.6z"/>
		<path fill="#FFFFFF" d="M303.1,366.7h-56.3c-2.5,0-4.6,2-4.6,4.6s2,4.6,4.6,4.6h56.3c2.5,0,4.6-2,4.6-4.6S305.6,366.7,303.1,366.7
			z"/>
		<path fill="#FFFFFF" d="M285.4,386.9h-20.9c-2.5,0-4.6,2-4.6,4.6s2,4.6,4.6,4.6h20.9c2.5,0,4.6-2,4.6-4.6S287.9,386.9,285.4,386.9
			z"/>
		<path fill="#FFFFFF" d="M491.2,366.7h-56.4c-2.5,0-4.6,2-4.6,4.6s2,4.6,4.6,4.6h56.4c2.5,0,4.6-2,4.6-4.6S493.7,366.7,491.2,366.7
			z"/>
		<path fill="#FFFFFF" d="M473.4,386.9h-20.8c-2.5,0-4.6,2-4.6,4.6s2,4.6,4.6,4.6h20.8c2.5,0,4.6-2,4.6-4.6S475.9,386.9,473.4,386.9
			z"/>
	</g>
</g>
</svg>
