<?xml version="1.0" encoding="utf-8"?>
<!-- Generator: Adobe Illustrator 16.0.4, SVG Export Plug-In . SVG Version: 6.00 Build 0)  -->
<!DOCTYPE svg PUBLIC "-//W3C//DTD SVG 1.1//EN" "http://www.w3.org/Graphics/SVG/1.1/DTD/svg11.dtd">
<svg version="1.1" id="Layer_1" xmlns="http://www.w3.org/2000/svg" xmlns:xlink="http://www.w3.org/1999/xlink" x="0px" y="0px"
	 width="1400px" height="490px" viewBox="0 0 2800 980" enable-background="new 0 0 1400 490" xml:space="preserve">
<rect fill="#23C0FF" width="2800" height="980"/>
<g>
	<g opacity="0.2">
		<path fill="#FFFFFF" d="M896.2,48.8c25.5,25.5,45.5,55.2,59.5,88.2c14.5,34.2,21.8,70.5,21.8,108s-7.3,73.8-21.8,108
			c-14,33-34,62.7-59.5,88.2c-19.6,19.6-41.7,35.9-65.8,48.8h35.2c78.5-53.2,130.1-143.1,130.1-245S944.1,53.2,865.6,0h-35.2
			C854.5,12.9,876.6,29.2,896.2,48.8z"/>
		<path fill="#FFFFFF" d="M503.8,441.2c-25.5-25.5-45.5-55.2-59.5-88.2c-14.5-34.2-21.8-70.5-21.8-108s7.3-73.8,21.8-108
			c14-33,34-62.7,59.5-88.2c19.6-19.6,41.7-35.9,65.8-48.8h-35.2c-78.5,53.2-130.1,143.1-130.1,245s51.6,191.8,130.1,245h35.2
			C545.5,477.1,523.4,460.8,503.8,441.2z"/>
	</g>
	<g opacity="0.6">
		<path fill="#FFFFFF" d="M886,257.1h-26.4v-64.8c8.4,2.4,17.3,3.6,26.4,3.6c2.5,0,4.6-2,4.6-4.6s-2-4.6-4.6-4.6
			c-48.8,0-88.4-39.7-88.4-88.4c0-2.5-2-4.6-4.6-4.6s-4.6,2-4.6,4.6c0,48.8-39.7,88.4-88.4,88.4s-88.4-39.7-88.4-88.4
			c0-2.5-2-4.6-4.6-4.6s-4.6,2-4.6,4.6c0,48.8-39.7,88.4-88.4,88.4c-2.5,0-4.6,2-4.6,4.6s2,4.6,4.6,4.6c9.2,0,18-1.3,26.4-3.6v64.8
			H514c-2.5,0-4.6,2-4.6,4.6v34.5c0,2.5,2,4.6,4.6,4.6h71.4v46.9h-24.9c-2.5,0-4.6,2-4.6,4.6s2,4.6,4.6,4.6H590h34h25.4
			c2.5,0,4.6-2,4.6-4.6s-2-4.6-4.6-4.6h-20.8v-46.9h142.9v46.9h-22.9c-2.5,0-4.6,2-4.6,4.6s2,4.6,4.6,4.6H776h34h27.5
			c2.5,0,4.6-2,4.6-4.6s-2-4.6-4.6-4.6h-22.9v-46.9H886c2.5,0,4.6-2,4.6-4.6v-34.5C890.6,259.2,888.5,257.1,886,257.1z M850.4,189.2
			v67.9h-52.9V139.5C808.1,162.1,827.1,180.1,850.4,189.2z M788.4,139.5v117.6h-52.9v-67.9C758.9,180.1,777.9,162.1,788.4,139.5z
			 M726.4,192.3v64.8h-52.9v-64.8c8.4,2.4,17.3,3.6,26.4,3.6S718,194.7,726.4,192.3z M664.4,189.2v67.9h-52.9V139.5
			C622.1,162.1,641.1,180.1,664.4,189.2z M549.6,189.2c23.3-9.2,42.3-27.1,52.9-49.7v117.6h-52.9V189.2z M619.4,347.6h-24.9v-46.9
			h24.9V347.6z M805.4,347.6h-24.9v-46.9h24.9V347.6z M881.4,291.6H810h-34H624h-34h-71.4v-25.4h362.9V291.6z"/>
		<path fill="#FFFFFF" d="M633.1,366.7h-56.3c-2.5,0-4.6,2-4.6,4.6s2,4.6,4.6,4.6h56.3c2.5,0,4.6-2,4.6-4.6S635.6,366.7,633.1,366.7
			z"/>
		<path fill="#FFFFFF" d="M615.4,386.9h-20.9c-2.5,0-4.6,2-4.6,4.6s2,4.6,4.6,4.6h20.9c2.5,0,4.6-2,4.6-4.6S617.9,386.9,615.4,386.9
			z"/>
		<path fill="#FFFFFF" d="M821.2,366.7h-56.4c-2.5,0-4.6,2-4.6,4.6s2,4.6,4.6,4.6h56.4c2.5,0,4.6-2,4.6-4.6S823.7,366.7,821.2,366.7
			z"/>
		<path fill="#FFFFFF" d="M803.4,386.9h-20.8c-2.5,0-4.6,2-4.6,4.6s2,4.6,4.6,4.6h20.8c2.5,0,4.6-2,4.6-4.6S805.9,386.9,803.4,386.9
			z"/>
	</g>
</g>
</svg>
