<?xml version="1.0" encoding="utf-8"?>
<!-- Generator: Adobe Illustrator 16.0.4, SVG Export Plug-In . SVG Version: 6.00 Build 0)  -->
<!DOCTYPE svg PUBLIC "-//W3C//DTD SVG 1.1//EN" "http://www.w3.org/Graphics/SVG/1.1/DTD/svg11.dtd">
<svg version="1.1" id="Layer_1" xmlns="http://www.w3.org/2000/svg" xmlns:xlink="http://www.w3.org/1999/xlink" x="0px" y="0px"
	 width="204.7px" height="98.6px" viewBox="0 0 204.7 98.6" enable-background="new 0 0 204.7 98.6" xml:space="preserve">
<g>
	<g>
		<path fill="#23C0FF" d="M69.9,30.1c-0.3-1.1-1.1-1.6-2.1-1.6l-3.9,0c-1,0-1.9,0.5-2.1,1.6l-9.9,37.5c-0.3,1.3,0.3,2.2,1.6,2.2h3.5
			c0.9,0,1.5-0.4,1.7-1.2l2.5-10.4h9.2l2.8,10.4c0.2,0.8,0.7,1.2,1.7,1.2h3.5c1.3,0,1.9-0.9,1.6-2.2L69.9,30.1z M62.5,51.9l3.1-14.7
			l0,0H66l0,0l2.9,14.7H62.5z"/>
		<path fill="#40E41B" d="M129.4,28.5h-10.2c-1.3,0-2.5,1.1-2.5,2.5v36.4c0,1.3,1.1,2.5,2.5,2.5h10.2c7.6,0,13.9-5.6,13.9-12.6V41
			C143.3,34,137,28.5,129.4,28.5z M136.1,57.4c0,3.2-3.1,5.8-6.8,5.8H124v-28h5.3c3.7,0,6.8,2.6,6.8,5.7V57.4z"/>
		<path fill="#B9FB00" d="M162,27.8c-7.8,0-14,5.5-14,12.6v17.8c0,7,6.2,12.6,14,12.6c7.9,0,14.2-5.6,14.2-12.6V40.4
			C176.1,33.4,169.8,27.8,162,27.8z M168.9,58.2c0,3.1-3.3,5.8-6.8,5.7c-3.7,0-6.9-2.6-6.9-5.7V40.3c0-3.1,3.2-5.8,6.9-5.8
			c3.5,0,6.8,2.6,6.8,5.8V58.2z"/>
		<g>
			<g>
				<path fill="#1A71F8" d="M29.8,28.6c-0.7,0-1.3,0.5-1.3,1.2V34c0,0.7,0.5,1.2,1.3,1.2h12.6v16.6h-9c0,4.9,4,6.3,8.9,6.3l0,0.2
					c0,5.2-2.5,5.1-12.3,5.1c-0.8,0-1.4,0.6-1.4,1.5v3.3c0,0.9,0.6,1.5,1.4,1.5h2.7c9.8,0,17-1.5,17-12.8V28.6H29.8z M38.1,43.6
					c0-1.3-1.1-2.4-2.4-2.4c-1.3,0-2.4,1.1-2.4,2.4c0,1.3,1.1,2.4,2.4,2.4C37.1,45.9,38.1,44.9,38.1,43.6z"/>
			</g>
		</g>
		<path fill="#00D9BF" d="M109.7,28.5h-4.8c-0.7,0-1.2,0.6-1.2,1.3v23.7l-12.9-25h-4c-1.3,0-2.5,1.1-2.5,2.5v37.6
			c0,0.7,0.5,1.3,1.2,1.3h4.8c0.7,0,1.2-0.6,1.2-1.3V44.8c4.4,8.6,8.6,16.4,13,25.1h3.9c1.3,0,2.5-1.1,2.5-2.5V29.8
			C111,29.1,110.4,28.5,109.7,28.5z"/>
	</g>
</g>
</svg>
