<?xml version="1.0" encoding="UTF-8"?>
<!DOCTYPE svg PUBLIC "-//W3C//DTD SVG 1.1//EN" "http://www.w3.org/Graphics/SVG/1.1/DTD/svg11.dtd">
<!-- Creator: CorelDRAW -->
<svg xmlns="http://www.w3.org/2000/svg" xml:space="preserve" width="100%" height="100%" style="shape-rendering:geometricPrecision; text-rendering:geometricPrecision; image-rendering:optimizeQuality; fill-rule:evenodd; clip-rule:evenodd"
viewBox="0 0 9.88222 9.88222"
 xmlns:xlink="http://www.w3.org/1999/xlink">
 <defs>
  <style type="text/css">
   <![CDATA[
    .str0 {stroke:#02D6C2;stroke-width:0.28222}
    .str1 {stroke:#02D6C2;stroke-width:0.28222;stroke-linecap:round;stroke-linejoin:round}
    .fil2 {fill:none}
    .fil1 {fill:#02D6C2}
    .fil0 {fill:white}
   ]]>
  </style>
 </defs>
 <g id="Layer_x0020_1">
  <metadata id="CorelCorpID_0Corel-Layer"/>
  <circle class="fil0 str0" cx="4.94111" cy="4.94111" r="4.8"/>
  <path class="fil1" d="M3.48114 2.57508l3 0 0 4.2 -3 0 0 -4.2zm-0.0231 -0.6l3.0462 0c0.15231,0 0.27693,0.135 0.27693,0.3l0 5.1c0,0.165 -0.12462,0.3 -0.27693,0.3l-3.0462 0c-0.15231,0 -0.27693,-0.135 -0.27693,-0.3l0 -5.1c0,-0.165 0.12462,-0.3 0.27693,-0.3z"/>
  <path class="fil2 str1" d="M4.20453 3.61482l1.40257 0c0.14402,0 0.26185,0.11784 0.26185,0.26185l0 1.38924 0.27518 0.27518 -0.55036 0 -1.38924 0c-0.144,0 -0.26185,-0.11783 -0.26185,-0.26185l0 -1.40257c0,-0.14402 0.11783,-0.26185 0.26185,-0.26185z"/>
 </g>
</svg>
