<?xml version="1.0" encoding="UTF-8"?>
<!DOCTYPE svg PUBLIC "-//W3C//DTD SVG 1.1//EN" "http://www.w3.org/Graphics/SVG/1.1/DTD/svg11.dtd">
<!-- Creator: CorelDRAW -->
<svg xmlns="http://www.w3.org/2000/svg" xml:space="preserve" width="100%" height="100%" style="shape-rendering:geometricPrecision; text-rendering:geometricPrecision; image-rendering:optimizeQuality; fill-rule:evenodd; clip-rule:evenodd"
viewBox="0 0 9.88222 9.88222"
 xmlns:xlink="http://www.w3.org/1999/xlink">
 <defs>
  <style type="text/css">
   <![CDATA[
    .str1 {stroke:white;stroke-width:0.14111}
    .str3 {stroke:#99F707;stroke-width:0.21167}
    .str0 {stroke:#99F707;stroke-width:0.28222}
    .str2 {stroke:white;stroke-width:0.56444;stroke-linecap:round;stroke-linejoin:round}
    .str4 {stroke:#99F707;stroke-width:0.21167;stroke-dasharray:0.423340 0.211670}
    .fil2 {fill:none}
    .fil1 {fill:#99F707}
    .fil0 {fill:white}
   ]]>
  </style>
 </defs>
 <g id="Layer_x0020_1">
  <metadata id="CorelCorpID_0Corel-Layer"/>
  <circle class="fil0 str0" cx="4.94111" cy="4.94111" r="4.8"/>
  <path class="fil1" d="M1.38154 3.10952l4.65224 -1.12714 0.56357 2.32612 -4.65224 1.12714 -0.56357 -2.32612zm0.28777 0.34072c0.10148,-0.0233 0.17258,-0.13473 0.14688,-0.2408l3.87687 -0.93929c0.0233,0.10148 0.13448,0.16618 0.2408,0.14688l0.37572 1.55075c-0.10514,0.02419 -0.17261,0.13992 -0.14688,0.24081l-3.87687 0.93928c-0.02419,-0.10514 -0.15366,-0.16541 -0.24081,-0.14688l-0.37571 -1.55075zm2.17924 -0.32276c0.32111,-0.0778 0.64462,0.11952 0.72242,0.44064 0.0778,0.32111 -0.11952,0.64462 -0.44064,0.72242 -0.32111,0.0778 -0.64462,-0.11952 -0.72242,-0.44064 -0.0778,-0.32111 0.11952,-0.64462 0.44064,-0.72242zm1.06314 0.15287c0.10704,-0.02594 0.21488,0.03984 0.24081,0.14688 0.02594,0.10704 -0.03984,0.21487 -0.14688,0.2408 -0.10704,0.02594 -0.21487,-0.03983 -0.2408,-0.14687 -0.02594,-0.10704 0.03983,-0.21488 0.14687,-0.24081zm-1.93843 0.46964c0.10704,-0.02593 0.21487,0.03984 0.24081,0.14688 0.02593,0.10704 -0.03984,0.21487 -0.14688,0.24081 -0.10704,0.02593 -0.21488,-0.03984 -0.24081,-0.14688 -0.02593,-0.10704 0.03984,-0.21488 0.14688,-0.24081z"/>
  <rect class="fil0 str1" transform="matrix(0.704885 -0.170779 0.170779 0.704885 1.90693 3.42999)" width="6.6" height="3.3"/>
  <path class="fil1" d="M1.90693 3.42999l4.65225 -1.12714 0.56357 2.32612 -4.65225 1.12714 -0.56357 -2.32612zm0.28778 0.34072c0.10148,-0.0233 0.17257,-0.13474 0.14687,-0.24081l3.87687 -0.93928c0.0233,0.10148 0.13449,0.16618 0.24081,0.14688l0.37571 1.55074c-0.10513,0.02419 -0.1726,0.13992 -0.14687,0.24081l-3.87687 0.93928c-0.02419,-0.10513 -0.15366,-0.1654 -0.24081,-0.14687l-0.37571 -1.55075zm2.17924 -0.32276c0.32111,-0.0778 0.64462,0.11952 0.72242,0.44063 0.0778,0.32112 -0.11952,0.64463 -0.44064,0.72243 -0.32111,0.0778 -0.64462,-0.11953 -0.72242,-0.44064 -0.0778,-0.32112 0.11952,-0.64463 0.44064,-0.72242zm1.06314 0.15286c0.10704,-0.02593 0.21488,0.03984 0.24081,0.14688 0.02593,0.10704 -0.03984,0.21487 -0.14688,0.24081 -0.10704,0.02593 -0.21487,-0.03984 -0.24081,-0.14688 -0.02593,-0.10704 0.03984,-0.21487 0.14688,-0.24081zm-1.93843 0.46964c0.10704,-0.02593 0.21487,0.03984 0.24081,0.14688 0.02593,0.10704 -0.03984,0.21488 -0.14688,0.24081 -0.10704,0.02593 -0.21488,-0.03984 -0.24081,-0.14688 -0.02593,-0.10704 0.03984,-0.21487 0.14688,-0.24081z"/>
  <rect class="fil0 str2" x="3.63845" y="4.76656" width="4.48731" height="2.99154" rx="0.15" ry="0.15"/>
  <rect class="fil2 str3" x="3.63461" y="4.73649" width="4.49286" height="2.99524" rx="0.15" ry="0.15"/>
  <line class="fil2 str4" x1="6.62072" y1="4.73173" x2="6.62072" y2= "7.72697" />
  <rect class="fil1" x="3.93461" y="5.28372" width="2.24643" height="0.249603"/>
  <rect class="fil1" x="3.93461" y="5.78292" width="2.24643" height="0.249603"/>
  <rect class="fil1" x="3.93461" y="6.28213" width="1.49762" height="0.249603"/>
 </g>
</svg>
