<?xml version="1.0" encoding="UTF-8"?>
<!DOCTYPE svg PUBLIC "-//W3C//DTD SVG 1.1//EN" "http://www.w3.org/Graphics/SVG/1.1/DTD/svg11.dtd">
<!-- Creator: CorelDRAW -->
<svg xmlns="http://www.w3.org/2000/svg" xml:space="preserve" width="100%" height="100%" style="shape-rendering:geometricPrecision; text-rendering:geometricPrecision; image-rendering:optimizeQuality; fill-rule:evenodd; clip-rule:evenodd"
viewBox="0 0 9.88222 9.88222"
 xmlns:xlink="http://www.w3.org/1999/xlink">
 <defs>
  <style type="text/css">
   <![CDATA[
    .str0 {stroke:#04E407;stroke-width:0.28222}
    .str1 {stroke:white;stroke-width:0.84666;stroke-linecap:round;stroke-linejoin:round}
    .str2 {stroke:#04E407;stroke-width:0.28222;stroke-dasharray:0.564440 0.282220}
    .fil2 {fill:none}
    .fil3 {fill:#03E305}
    .fil0 {fill:white}
    .fil1 {fill:#03E305}
   ]]>
  </style>
 </defs>
 <g id="Layer_x0020_1">
  <metadata id="CorelCorpID_0Corel-Layer"/>
  <circle class="fil0 str0" cx="4.94111" cy="4.94111" r="4.8"/>
  <rect class="fil0 str0" x="1.85871" y="2.47037" width="4.6859" height="2.98193" rx="0.3" ry="0.3"/>
  <rect class="fil1" x="3.98866" y="3.32235" width="2.12995" height="0.212995"/>
  <rect class="fil1" x="3.98866" y="3.74834" width="1.49097" height="0.212995"/>
  <rect class="fil1" x="2.2847" y="4.41999" width="3.83392" height="0.212995"/>
  <rect class="fil1" x="2.2847" y="4.84598" width="2.76894" height="0.212995"/>
  <circle class="fil1" cx="2.92369" cy="3.53535" r="0.638986"/>
  <circle class="fil0" cx="2.92369" cy="3.32235" r="0.212995"/>
  <path class="fil0" d="M2.49704 3.84826c0.00066,-0.31291 0.85264,-0.31291 0.8527,0.00201 -0.26011,0.30335 -0.59864,0.2926 -0.8527,-0.00201z"/>
  <rect class="fil0 str1" x="3.63845" y="4.76656" width="4.48731" height="2.99154" rx="0.15" ry="0.15"/>
  <rect class="fil2 str0" x="3.63461" y="4.73649" width="4.49286" height="2.99524" rx="0.15" ry="0.15"/>
  <line class="fil2 str2" x1="6.62072" y1="4.73173" x2="6.62072" y2= "7.72697" />
  <rect class="fil3" x="3.93461" y="5.28372" width="2.24643" height="0.249603"/>
  <rect class="fil3" x="3.93461" y="5.78292" width="2.24643" height="0.249603"/>
  <rect class="fil3" x="3.93461" y="6.28213" width="1.49762" height="0.249603"/>
 </g>
</svg>
