<?xml version="1.0" encoding="UTF-8"?>
<!DOCTYPE svg PUBLIC "-//W3C//DTD SVG 1.1//EN" "http://www.w3.org/Graphics/SVG/1.1/DTD/svg11.dtd">
<!-- Creator: CorelDRAW -->
<svg xmlns="http://www.w3.org/2000/svg" xml:space="preserve" width="100%" height="100%" style="shape-rendering:geometricPrecision; text-rendering:geometricPrecision; image-rendering:optimizeQuality; fill-rule:evenodd; clip-rule:evenodd"
viewBox="0 0 9.88222 9.88222"
 xmlns:xlink="http://www.w3.org/1999/xlink">
 <defs>
  <style type="text/css">
   <![CDATA[
    .str1 {stroke:white;stroke-width:0.14111}
    .str0 {stroke:#99F707;stroke-width:0.28222}
    .str2 {stroke:white;stroke-width:0.84666}
    .fil1 {fill:#99F707}
    .fil0 {fill:white}
   ]]>
  </style>
 </defs>
 <g id="Layer_x0020_1">
  <metadata id="CorelCorpID_0Corel-Layer"/>
  <circle class="fil0 str0" cx="4.94111" cy="4.94111" r="4.8"/>
  <g id="_124268584">
   <path id="_124268296" class="fil1" d="M1.26349 3.42866l5.9294 -1.43657 0.71828 2.9647 -5.92939 1.43657 -0.71829 -2.9647zm0.36678 0.43426c0.12934,-0.0297 0.21995,-0.17173 0.1872,-0.30692l4.94116 -1.19714c0.0297,0.12934 0.17141,0.21181 0.30692,0.18721l0.47885 1.97646c-0.134,0.03083 -0.21999,0.17833 -0.1872,0.30692l-4.94116 1.19713c-0.03083,-0.134 -0.19584,-0.21081 -0.30692,-0.1872l-0.47885 -1.97646zm2.77749 -0.41137c0.40927,-0.09916 0.82159,0.15234 0.92075,0.5616 0.09915,0.40927 -0.15234,0.82159 -0.56161,0.92075 -0.40926,0.09916 -0.82158,-0.15234 -0.92074,-0.5616 -0.09916,-0.40927 0.15233,-0.82159 0.5616,-0.92075zm1.35501 0.19483c0.13642,-0.03305 0.27386,0.05078 0.30691,0.1872 0.03306,0.13643 -0.05077,0.27386 -0.1872,0.30692 -0.13642,0.03305 -0.27386,-0.05078 -0.30691,-0.1872 -0.03306,-0.13643 0.05077,-0.27387 0.1872,-0.30692zm-2.47058 0.59857c0.13642,-0.03305 0.27386,0.05078 0.30691,0.1872 0.03305,0.13643 -0.05077,0.27386 -0.1872,0.30692 -0.13643,0.03305 -0.27386,-0.05078 -0.30692,-0.1872 -0.03305,-0.13643 0.05078,-0.27387 0.18721,-0.30692z"/>
   <rect id="_137413768" class="fil0 str1" transform="matrix(0.898393 -0.217662 0.217662 0.898393 1.93313 3.8371)" width="6.6" height="3.3"/>
   <path id="_124347240" class="fil1" d="M1.93313 3.8371l5.92939 -1.43657 0.71829 2.9647 -5.9294 1.43657 -0.71828 -2.9647zm0.36677 0.43426c0.12934,-0.0297 0.21995,-0.17173 0.1872,-0.30692l4.94116 -1.19714c0.0297,0.12934 0.17141,0.2118 0.30692,0.1872l0.47885 1.97647c-0.134,0.03083 -0.21999,0.17833 -0.1872,0.30691l-4.94116 1.19714c-0.03083,-0.134 -0.19584,-0.21081 -0.30692,-0.1872l-0.47885 -1.97646zm2.7775 -0.41137c0.40926,-0.09916 0.82158,0.15233 0.92074,0.5616 0.09916,0.40927 -0.15233,0.82159 -0.5616,0.92075 -0.40927,0.09915 -0.82159,-0.15234 -0.92075,-0.56161 -0.09916,-0.40926 0.15234,-0.82158 0.56161,-0.92074zm1.355 0.19483c0.13643,-0.03305 0.27386,0.05078 0.30692,0.1872 0.03305,0.13643 -0.05078,0.27386 -0.18721,0.30692 -0.13642,0.03305 -0.27386,-0.05078 -0.30691,-0.1872 -0.03305,-0.13643 0.05077,-0.27387 0.1872,-0.30692zm-2.47058 0.59857c0.13642,-0.03305 0.27386,0.05078 0.30691,0.1872 0.03306,0.13643 -0.05077,0.27386 -0.1872,0.30692 -0.13642,0.03305 -0.27386,-0.05078 -0.30691,-0.18721 -0.03306,-0.13642 0.05077,-0.27386 0.1872,-0.30691z"/>
  </g>
  <polygon class="fil0 str2" points="8.61261,6.39915 7.11261,5.35777 7.11261,5.95777 5.31261,5.95777 5.31261,6.85777 7.11261,6.85777 7.11261,7.45777 "/>
  <polygon class="fil0 str0" points="8.61261,6.39915 7.11261,5.35777 7.11261,5.95777 5.31261,5.95777 5.31261,6.85777 7.11261,6.85777 7.11261,7.45777 "/>
 </g>
</svg>
