<?xml version="1.0" encoding="UTF-8"?>
<!DOCTYPE svg PUBLIC "-//W3C//DTD SVG 1.1//EN" "http://www.w3.org/Graphics/SVG/1.1/DTD/svg11.dtd">
<!-- Creator: CorelDRAW -->
<svg xmlns="http://www.w3.org/2000/svg" xml:space="preserve" width="100%" height="100%" style="shape-rendering:geometricPrecision; text-rendering:geometricPrecision; image-rendering:optimizeQuality; fill-rule:evenodd; clip-rule:evenodd"
viewBox="0 0 9.88222 9.88222"
 xmlns:xlink="http://www.w3.org/1999/xlink">
 <defs>
  <style type="text/css">
   <![CDATA[
    .str1 {stroke:white;stroke-width:0.14111}
    .str0 {stroke:#99F708;stroke-width:0.28222}
    .fil1 {fill:#99F707}
    .fil0 {fill:white}
    .fil2 {fill:#99F708}
   ]]>
  </style>
 </defs>
 <g id="Layer_x0020_1">
  <metadata id="CorelCorpID_0Corel-Layer"/>
  <circle class="fil0 str0" cx="4.94111" cy="4.94111" r="4.8"/>
  <path class="fil1" d="M1.01581 2.8775l4.65224 -1.12714 0.56357 2.32612 -4.65224 1.12714 -0.56357 -2.32612zm0.28777 0.34072c0.10148,-0.0233 0.17258,-0.13473 0.14688,-0.2408l3.87687 -0.93929c0.0233,0.10148 0.13448,0.16618 0.2408,0.14688l0.37572 1.55075c-0.10514,0.02419 -0.17261,0.13992 -0.14688,0.24081l-3.87687 0.93928c-0.02419,-0.10514 -0.15366,-0.16541 -0.24081,-0.14688l-0.37571 -1.55075zm2.17924 -0.32276c0.32111,-0.0778 0.64462,0.11952 0.72242,0.44064 0.0778,0.32111 -0.11952,0.64462 -0.44064,0.72242 -0.32111,0.0778 -0.64462,-0.11952 -0.72242,-0.44064 -0.0778,-0.32111 0.11952,-0.64462 0.44064,-0.72242zm1.06314 0.15287c0.10704,-0.02594 0.21488,0.03984 0.24081,0.14688 0.02594,0.10704 -0.03984,0.21487 -0.14688,0.2408 -0.10704,0.02594 -0.21487,-0.03983 -0.2408,-0.14687 -0.02594,-0.10704 0.03983,-0.21488 0.14687,-0.24081zm-1.93843 0.46964c0.10704,-0.02593 0.21487,0.03984 0.24081,0.14688 0.02593,0.10704 -0.03984,0.21487 -0.14688,0.24081 -0.10704,0.02593 -0.21488,-0.03984 -0.24081,-0.14688 -0.02593,-0.10704 0.03984,-0.21488 0.14688,-0.24081z"/>
  <rect class="fil0 str1" transform="matrix(0.704885 -0.170779 0.170779 0.704885 1.5412 3.19797)" width="6.6" height="3.3"/>
  <path class="fil1" d="M1.5412 3.19797l4.65225 -1.12714 0.56357 2.32612 -4.65225 1.12714 -0.56357 -2.32612zm0.28778 0.34072c0.10148,-0.0233 0.17257,-0.13474 0.14687,-0.24081l3.87687 -0.93928c0.0233,0.10148 0.13449,0.16618 0.24081,0.14688l0.37571 1.55074c-0.10513,0.02419 -0.1726,0.13992 -0.14687,0.24081l-3.87687 0.93928c-0.02419,-0.10513 -0.15366,-0.1654 -0.24081,-0.14687l-0.37571 -1.55075zm2.17924 -0.32276c0.32111,-0.0778 0.64462,0.11952 0.72242,0.44063 0.0778,0.32112 -0.11952,0.64463 -0.44064,0.72243 -0.32111,0.0778 -0.64462,-0.11953 -0.72242,-0.44064 -0.0778,-0.32112 0.11952,-0.64463 0.44064,-0.72242zm1.06314 0.15286c0.10704,-0.02593 0.21488,0.03984 0.24081,0.14688 0.02593,0.10704 -0.03984,0.21487 -0.14688,0.24081 -0.10704,0.02593 -0.21487,-0.03984 -0.24081,-0.14688 -0.02593,-0.10704 0.03984,-0.21487 0.14688,-0.24081zm-1.93843 0.46964c0.10704,-0.02593 0.21487,0.03984 0.24081,0.14688 0.02593,0.10704 -0.03984,0.21488 -0.14688,0.24081 -0.10704,0.02593 -0.21488,-0.03984 -0.24081,-0.14688 -0.02593,-0.10704 0.03984,-0.21487 0.14688,-0.24081z"/>
  <rect class="fil0 str0" x="2.81581" y="4.32409" width="5.4" height="3.43636" rx="0.3" ry="0.3"/>
  <rect class="fil2" x="5.27036" y="5.30591" width="2.45455" height="0.245455"/>
  <rect class="fil2" x="5.27036" y="5.79682" width="1.71818" height="0.245455"/>
  <rect class="fil2" x="3.30672" y="6.57082" width="4.41818" height="0.245455"/>
  <rect class="fil2" x="3.30672" y="7.06173" width="3.19091" height="0.245455"/>
  <circle class="fil2" cx="4.04308" cy="5.55136" r="0.736364"/>
  <circle class="fil0" cx="4.04308" cy="5.30591" r="0.245455"/>
  <path class="fil0" d="M3.55141 5.91196c0.00076,-0.3606 0.98258,-0.3606 0.98266,0.00232 -0.29975,0.34957 -0.68987,0.33719 -0.98266,-0.00232z"/>
 </g>
</svg>
