<?xml version="1.0" encoding="UTF-8"?>
<!DOCTYPE svg PUBLIC "-//W3C//DTD SVG 1.1//EN" "http://www.w3.org/Graphics/SVG/1.1/DTD/svg11.dtd">
<!-- Creator: CorelDRAW -->
<svg xmlns="http://www.w3.org/2000/svg" xml:space="preserve" width="100%" height="100%" style="shape-rendering:geometricPrecision; text-rendering:geometricPrecision; image-rendering:optimizeQuality; fill-rule:evenodd; clip-rule:evenodd"
viewBox="0 0 7.04978 5.85601"
 xmlns:xlink="http://www.w3.org/1999/xlink">
 <defs>
  <style type="text/css">
   <![CDATA[
    .str0 {stroke:#008fe2;stroke-width:0.14111}
    .str3 {stroke:#fff;stroke-width:0.21167;stroke-linecap:round;stroke-linejoin:round}
    .str2 {stroke:#008fe2;stroke-width:0.56444}
    .str1 {stroke:#008fe2;stroke-width:0.56444;stroke-linecap:round;stroke-linejoin:round}
    .fil2 {fill:none}
    .fil0 {fill:#fff}
    .fil1 {fill:#008fe2}
   ]]>
  </style>
 </defs>
 <g id="Layer_x0020_1">
  <metadata id="CorelCorpID_0Corel-Layer"/>
  <g id="_124558488">
   <path id="_124558656" class="fil0" d="M0 1.12716l4.65224 -1.12714 0.56357 2.32612 -4.65224 1.12714 -0.56357 -2.32612zm0.28777 0.34072c0.10148,-0.0233 0.17258,-0.13473 0.14688,-0.2408l3.87687 -0.93929c0.0233,0.10148 0.13448,0.16618 0.2408,0.14688l0.37572 1.55075c-0.10514,0.02419 -0.17261,0.13992 -0.14688,0.24081l-3.87687 0.93928c-0.02419,-0.10514 -0.15366,-0.16541 -0.24081,-0.14688l-0.37571 -1.55075zm2.17924 -0.32276c0.32111,-0.0778 0.64462,0.11952 0.72242,0.44064 0.0778,0.32111 -0.11952,0.64462 -0.44064,0.72242 -0.32111,0.0778 -0.64462,-0.11952 -0.72242,-0.44064 -0.0778,-0.32111 0.11952,-0.64462 0.44064,-0.72242zm1.06314 0.15287c0.10704,-0.02594 0.21488,0.03984 0.24081,0.14688 0.02594,0.10704 -0.03984,0.21487 -0.14688,0.2408 -0.10704,0.02594 -0.21487,-0.03983 -0.2408,-0.14687 -0.02594,-0.10704 0.03983,-0.21488 0.14687,-0.24081zm-1.93843 0.46964c0.10704,-0.02593 0.21487,0.03984 0.24081,0.14688 0.02593,0.10704 -0.03984,0.21487 -0.14688,0.24081 -0.10704,0.02593 -0.21488,-0.03984 -0.24081,-0.14688 -0.02593,-0.10704 0.03984,-0.21488 0.14688,-0.24081z"/>
   <rect id="_124558584" class="fil1 str0" transform="matrix(0.704885 -0.170779 0.170779 0.704885 0.525394 1.44763)" width="6.6" height="3.3"/>
   <path id="_124558512" class="fil0" d="M0.52539 1.44763l4.65225 -1.12714 0.56357 2.32612 -4.65225 1.12714 -0.56357 -2.32612zm0.28778 0.34072c0.10148,-0.0233 0.17257,-0.13474 0.14687,-0.24081l3.87687 -0.93928c0.0233,0.10148 0.13449,0.16618 0.24081,0.14688l0.37571 1.55074c-0.10513,0.02419 -0.1726,0.13992 -0.14687,0.24081l-3.87687 0.93928c-0.02419,-0.10513 -0.15366,-0.1654 -0.24081,-0.14687l-0.37571 -1.55075zm2.17924 -0.32276c0.32111,-0.0778 0.64462,0.11952 0.72242,0.44063 0.0778,0.32112 -0.11952,0.64463 -0.44064,0.72243 -0.32111,0.0778 -0.64462,-0.11953 -0.72242,-0.44064 -0.0778,-0.32112 0.11952,-0.64463 0.44064,-0.72242zm1.06314 0.15286c0.10704,-0.02593 0.21488,0.03984 0.24081,0.14688 0.02593,0.10704 -0.03984,0.21487 -0.14688,0.24081 -0.10704,0.02593 -0.21487,-0.03984 -0.24081,-0.14688 -0.02593,-0.10704 0.03984,-0.21487 0.14688,-0.24081zm-1.93843 0.46964c0.10704,-0.02593 0.21487,0.03984 0.24081,0.14688 0.02593,0.10704 -0.03984,0.21488 -0.14688,0.24081 -0.10704,0.02593 -0.21488,-0.03984 -0.24081,-0.14688 -0.02593,-0.10704 0.03984,-0.21487 0.14688,-0.24081z"/>
  </g>
  <g id="_124515144">
   <rect id="_124515384" class="fil1 str1" x="2.48121" y="2.71622" width="4.28635" height="2.85757" rx="0.15" ry="0.15"/>
   <rect id="_124515312" class="fil1 str2" x="2.48121" y="3.19248" width="4.28635" height="0.476262"/>
   <rect id="_124515240" class="fil1 str2" x="4.86252" y="4.62127" width="0.714392" height="0.476262"/>
   <rect id="_124515168" class="fil1 str2" x="5.81504" y="4.62127" width="0.714392" height="0.476262"/>
  </g>
  <rect class="fil2 str3" x="2.48121" y="2.71622" width="4.28635" height="2.85757" rx="0.15" ry="0.15"/>
  <rect class="fil0" x="2.48121" y="3.19248" width="4.28635" height="0.476262"/>
  <rect class="fil0" x="4.86252" y="4.62127" width="0.714392" height="0.476262"/>
  <rect class="fil0" x="5.81504" y="4.62127" width="0.714392" height="0.476262"/>
 </g>
</svg>
