<?xml version="1.0" encoding="UTF-8"?>
<!DOCTYPE svg PUBLIC "-//W3C//DTD SVG 1.1//EN" "http://www.w3.org/Graphics/SVG/1.1/DTD/svg11.dtd">
<!-- Creator: CorelDRAW -->
<svg xmlns="http://www.w3.org/2000/svg" xml:space="preserve" width="100%" height="100%" style="shape-rendering:geometricPrecision; text-rendering:geometricPrecision; image-rendering:optimizeQuality; fill-rule:evenodd; clip-rule:evenodd"
viewBox="0 0 6.88222 4.48222"
 xmlns:xlink="http://www.w3.org/1999/xlink">
 <defs>
  <style type="text/css">
   <![CDATA[
    .str0 {stroke:#fff;stroke-width:0.28222}
    .fil0 {fill:none}
    .fil1 {fill:#fff}
   ]]>
  </style>
 </defs>
 <g id="Layer_x0020_1">
  <metadata id="CorelCorpID_0Corel-Layer"/>
  <rect class="fil0 str0" x="0.14111" y="0.14111" width="6.6" height="4.2" rx="0.3" ry="0.3"/>
  <rect class="fil1" x="3.14111" y="1.34111" width="3" height="0.3"/>
  <rect class="fil1" x="3.14111" y="1.94111" width="2.1" height="0.3"/>
  <rect class="fil1" x="0.74111" y="2.88711" width="5.4" height="0.3"/>
  <rect class="fil1" x="0.74111" y="3.48711" width="3.9" height="0.3"/>
  <path class="fil1" d="M1.64111 0.74111c0.49697,0 0.9,0.40303 0.9,0.9 0,0.49697 -0.40303,0.9 -0.9,0.9 -0.49697,0 -0.9,-0.40303 -0.9,-0.9 0,-0.49697 0.40303,-0.9 0.9,-0.9zm0 0.3c0.16566,0 0.3,0.13434 0.3,0.3 0,0.16566 -0.13434,0.3 -0.3,0.3 -0.16566,0 -0.3,-0.13434 -0.3,-0.3 0,-0.16566 0.13434,-0.3 0.3,-0.3zm-0.60093 1.04073c0.00093,-0.44073 1.20093,-0.44073 1.20102,0.00284 -0.36636,0.42725 -0.84317,0.41212 -1.20102,-0.00284z"/>
 </g>
</svg>
