<?xml version="1.0" encoding="UTF-8"?>
<!DOCTYPE svg PUBLIC "-//W3C//DTD SVG 1.1//EN" "http://www.w3.org/Graphics/SVG/1.1/DTD/svg11.dtd">
<!-- Creator: CorelDRAW -->
<svg xmlns="http://www.w3.org/2000/svg" xml:space="preserve" width="100%" height="100%" style="shape-rendering:geometricPrecision; text-rendering:geometricPrecision; image-rendering:optimizeQuality; fill-rule:evenodd; clip-rule:evenodd"
viewBox="0 0 9.88222 9.88222"
 xmlns:xlink="http://www.w3.org/1999/xlink">
 <defs>
  <style type="text/css">
   <![CDATA[
    .str1 {stroke:#02e206;stroke-width:0.21167;stroke-linecap:round;stroke-linejoin:round}
    .str0 {stroke:#02e206;stroke-width:0.28222}
    .fil0 {fill:none}
    .fil2 {fill:#02e206}
    .fil1 {fill:white}
   ]]>
  </style>
 </defs>
 <g id="Layer_x0020_1">
  <metadata id="CorelCorpID_0Corel-Layer"/>
  <circle class="fil0 str0" cx="4.94111" cy="4.94111" r="4.8"/>
  <circle class="fil0 str1" cx="4.94111" cy="4.94111" r="3.39911"/>
  <path class="fil0 str1" d="M5.3491 1.57792c0.05665,0.02266 0.63448,0.15862 0.63448,0.15862l0.04532 0.21527 -0.31724 0 0.21527 0.13596 0.14729 0.15862 0.1133 0 -0.13596 0.06798 0.1133 0.14729 -0.12463 0.02266 0.06798 0.14729 -0.13596 -0.01133 -0.07931 0.23793 -0.14729 0.10197 0.06798 -0.1133 -0.09064 -0.09064 -0.27192 -0.07931 -0.19261 -0.01133 -0.2955 0.30591 -0.22568 0.37389 -0.01133 0.16995 0.23701 -0.09064 0 0.12463 0.09156 0.13596 0.20394 -0.27192 -0.05665 -0.30591 0.20394 -0.13596 -0.09064 0.27192 0.10197 0.15862 0.01133 0.23793 -0.15862 0.14729 -0.30683 0.05665 0 -0.29458 -0.14637 0.28325 -0.26059 0.1133 -0.12463 0.14729 -0.2266 0.05665 -0.09064 0.06798 0.15862 0.14729 -0.02266 0.18128 -0.19261 0.02266 -0.23793 -0.07931 0 0.15862 -0.09064 0.23793 0.07931 0.16995 0.19261 0.07931 0.30591 -0.15862 0 -0.20394 0.16995 -0.02266 0.06798 -0.09064 0.18128 -0.01133 0.12463 -0.09064 0.2266 0.24926 0.19261 0.13596 -0.07931 0.10197 -0.16995 -0.05665 0.16995 0.19261 0.09064 -0.16995 0.02266 -0.15862 0.10197 0.07931 -0.02266 -0.12463 -0.30591 -0.23793 0 -0.09064 0.31724 0.2266 0.15862 0.26059 0.09064 0.23793 0.05665 -0.10197 0 -0.1133 0.10197 0.05665 -0.1133 -0.20394 0.1133 -0.10197 0.06798 0.2266 0.10197 -0.21527 -0.13596 -0.20394 0.12463 -0.23793 0.2266 0.06798 0.07931 -0.07931 -0.04532 -0.06798 0.20394 -0.1133 -0.04532 0.21527 0.15862 0.07931 0.05665 0.12463 -0.35123 0.07931 -0.21527 0.07931 -0.13596 0.2266 0.03399 0.12463 0.23793 0.05665 0.07931 -0.06798 0.10197 0 0.07931 -0.06798 0.06798 0.20394 0 0.24926 -0.31724 0.01133 -0.1133 0.10197 -0.3399 -0.12463 -0.19261 0.12463 -0.1133 0.09064 -0.16995 -0.12463 -0.18128 -0.14729 -0.10289 0.06798 0 -0.13674 0 -0.12385 -0.30499 0.02266 -0.41921 -0.01133 -0.21528 0.11252 -0.14728 -0.13518 -0.2266 0.13518 -0.09064 0.14807 -0.03399 0.18128 -0.30591 0.14729 -0.14729 0.26059 0 0.38522 0.02266 0.28325 0.19261 0.28325 0.24926 0.20394 0.35123 0.02266 0.37389 0.07931 0.24926 -0.02266 0.07931 0.10197 0.28325 -0.01133 -0.04532 0.12463 -0.06798 0.18128 0.20302 0.07931 0.13688 0.15862 -0.03399 0.16995 -0.10289 0.10197 0.32949 0.10197"/>
  <path class="fil0 str1" d="M8.28357 5.53209l-0.15862 -0.71379 -0.09064 0.13596 -0.07931 -0.04532 -0.2266 0.27192 -0.20394 0 -0.29458 -0.03399 -0.04532 0.13518 0.21527 0.13674 0.14729 -0.13674 0.15862 0 0.10197 0.1594 -0.23793 0.46453 -0.36256 0.43054 -0.16995 -0.14729c0,0 -0.19261,-0.16995 -0.21527,-0.23793 -0.02266,-0.06798 -0.23793,-0.35123 -0.23793,-0.35123l-0.15862 0.07931 0.15862 0.23793 0.13596 0.23793 0.24926 0.23793 0.23793 0.1133 0.3399 -0.30591 -0.13596 0.38522 -0.47586 0.46453 -0.16995 0.37389 0.03399 0.20394 -0.46453 0.30591 -0.03399 0.05665"/>
  <path class="fil0 str1" d="M4.43137 4.00254l0.07931 -0.13596 -0.14729 -0.29458 0.09064 -0.05665 -0.1133 -0.1133c0,0 -0.07931,0.15862 -0.07931,0.21527 0,0.05665 0.03399,0.24926 0.03399,0.24926l-0.07931 0.05665 -0.07931 0.09064 0.29458 -0.01133z"/>
  <polygon class="fil0 str1" points="4.14812,3.84392 4.18211,3.70796 4.01216,3.67397 3.9895,3.86658 "/>
  <polyline class="fil0 str1" points="5.02053,2.35969 5.14516,2.22373 4.96296,2.24639 4.96296,2.34836 "/>
  <polygon class="fil0 str1" points="5.97225,2.49565 5.84762,2.439 5.76831,2.2124 5.689,2.22373 5.75698,2.45033 5.83629,2.52964 "/>
  <polygon class="fil0 str1" points="4.2161,2.98284 4.2161,2.8922 3.93285,2.84688 3.85354,2.93752 3.92152,3.06215 "/>
  <path class="fil0 str1" d="M4.08014 2.67693l0.10197 -0.21527 0.15862 0.04532 0.31724 -0.36256 -0.12463 -0.06798 -0.13596 -0.12463 0 -0.07931 -0.15862 -0.02266 -0.14729 0.13596 -0.16995 0.26059 -0.20394 0.13596 -0.23793 0.05665 -0.18128 0.26059 -0.10197 0.18128 0.41921 -0.1133 0.2266 -0.1133c0,0 0.20394,0 0.23793,0.02266z"/>
  <path class="fil0 str1" d="M4.4427 1.56659l-0.2266 0.16995 -0.29458 -0.02266 0 0.28325c0,0 -0.15862,-0.02266 -0.16995,0.03399 -0.01133,0.05665 -0.20394,0.21527 -0.20394,0.21527l-0.15862 0.13596 0 -0.21527 0.18128 -0.10197 0.16995 -0.13596 0.10197 -0.07931 -0.1133 0.01133 -0.35123 0.28325 -0.13596 0.04532 -0.26059 0.09064 -0.32857 0.31724 0.49852 -0.32857 -0.2266 0.30591 0.18128 -0.02266 -0.23793 0.27192 -0.07931 0.20394 -0.2266 0.2266 -0.09064 0.19261 -0.05665 -0.09064 0.18128 -0.27192 -0.16995 -0.18128 -0.06798 0.19261 -0.09064 0.16995 0.01133 0.06798 -0.09064 -0.07931 -0.2266 0.13596"/>
  <path class="fil0 str1" d="M3.1964 2.50698c0.05665,-0.02266 0.1133,-0.12463 0.1133,-0.12463l-0.02266 -0.14729 -0.13596 0.15862 0.04532 0.1133z"/>
  <polygon class="fil0 str1" points="4.7826,4.95426 4.80526,4.8183 4.85058,4.88628 4.87324,4.98825 "/>
  <g id="_137238920">
   <rect id="_137249936" class="fil1 str1" x="1.789" y="2.41305" width="4.52272" height="3.01515" rx="0.15" ry="0.15"/>
   <rect id="_137242016" class="fil2" x="1.789" y="2.91557" width="4.52272" height="0.502524"/>
   <rect id="_137236088" class="fil2" x="4.30162" y="4.42315" width="0.753787" height="0.502524"/>
   <rect id="_137244560" class="fil2" x="5.30667" y="4.42315" width="0.753787" height="0.502524"/>
  </g>
 </g>
</svg>
