<?xml version="1.0" encoding="UTF-8"?>
<!DOCTYPE svg PUBLIC "-//W3C//DTD SVG 1.1//EN" "http://www.w3.org/Graphics/SVG/1.1/DTD/svg11.dtd">
<!-- Creator: CorelDRAW -->
<svg xmlns="http://www.w3.org/2000/svg" xml:space="preserve" width="100%" height="100%" style="shape-rendering:geometricPrecision; text-rendering:geometricPrecision; image-rendering:optimizeQuality; fill-rule:evenodd; clip-rule:evenodd"
viewBox="0 0 9.88222 9.88222"
 xmlns:xlink="http://www.w3.org/1999/xlink">
 <defs>
  <style type="text/css">
   <![CDATA[
    .str1 {stroke:white;stroke-width:0.14111}
    .str0 {stroke:#99F707;stroke-width:0.28222}
    .str2 {stroke:white;stroke-width:0.84666}
    .fil1 {fill:#99F707}
    .fil0 {fill:white}
   ]]>
  </style>
 </defs>
 <g id="Layer_x0020_1">
  <metadata id="CorelCorpID_0Corel-Layer"/>
  <circle class="fil0 str0" cx="4.94111" cy="4.94111" r="4.8"/>
  <path class="fil1" d="M0.98034 4.04143l6.41443 -1.55408 0.77704 3.20721 -6.41443 1.55408 -0.77704 -3.20721zm0.39678 0.46978c0.13992,-0.03213 0.23795,-0.18577 0.20251,-0.33202l5.34536 -1.29507c0.03212,0.13992 0.18542,0.22913 0.33202,0.20252l0.51802 2.13814c-0.14496,0.03335 -0.23799,0.19291 -0.20251,0.33202l-5.34535 1.29507c-0.03335,-0.14497 -0.21187,-0.22806 -0.33203,-0.20252l-0.51802 -2.13814zm3.0047 -0.44502c0.44274,-0.10727 0.88879,0.1648 0.99606,0.60755 0.10727,0.44274 -0.1648,0.88879 -0.60754,0.99606 -0.44275,0.10727 -0.8888,-0.1648 -0.99607,-0.60754 -0.10727,-0.44275 0.1648,-0.8888 0.60755,-0.99607zm1.46584 0.21077c0.14759,-0.03576 0.29626,0.05493 0.33202,0.20252 0.03576,0.14758 -0.05493,0.29626 -0.20251,0.33202 -0.14759,0.03575 -0.29627,-0.05493 -0.33202,-0.20252 -0.03576,-0.14758 0.05493,-0.29626 0.20251,-0.33202zm-2.67268 0.64753c0.14759,-0.03575 0.29627,0.05493 0.33202,0.20252 0.03576,0.14758 -0.05492,0.29626 -0.20251,0.33202 -0.14758,0.03576 -0.29626,-0.05493 -0.33202,-0.20251 -0.03576,-0.14759 0.05493,-0.29627 0.20251,-0.33203z"/>
  <rect class="fil0 str1" transform="matrix(0.971882 -0.235467 0.235467 0.971882 1.70475 4.48328)" width="6.6" height="3.3"/>
  <path class="fil1" d="M1.70475 4.48328l6.41443 -1.55408 0.77704 3.20721 -6.41443 1.55408 -0.77704 -3.20721zm0.39678 0.46978c0.13992,-0.03213 0.23794,-0.18577 0.20251,-0.33202l5.34536 -1.29507c0.03212,0.13992 0.18542,0.22913 0.33202,0.20252l0.51802 2.13814c-0.14496,0.03335 -0.23799,0.19291 -0.20251,0.33202l-5.34536 1.29507c-0.03334,-0.14497 -0.21186,-0.22807 -0.33202,-0.20252l-0.51802 -2.13814zm3.00469 -0.44502c0.44275,-0.10727 0.8888,0.1648 0.99607,0.60754 0.10727,0.44275 -0.1648,0.8888 -0.60755,0.99607 -0.44274,0.10727 -0.88879,-0.1648 -0.99606,-0.60755 -0.10727,-0.44274 0.1648,-0.88879 0.60754,-0.99606zm1.46585 0.21077c0.14759,-0.03576 0.29626,0.05493 0.33202,0.20252 0.03576,0.14758 -0.05493,0.29626 -0.20251,0.33202 -0.14759,0.03575 -0.29627,-0.05493 -0.33202,-0.20252 -0.03576,-0.14758 0.05492,-0.29626 0.20251,-0.33202zm-2.67268 0.64753c0.14759,-0.03575 0.29627,0.05493 0.33202,0.20252 0.03576,0.14758 -0.05493,0.29626 -0.20251,0.33202 -0.14759,0.03576 -0.29626,-0.05493 -0.33202,-0.20252 -0.03576,-0.14758 0.05493,-0.29626 0.20251,-0.33202z"/>
  <circle class="fil0 str2" cx="7.13544" cy="3.19464" r="1.05"/>
  <circle class="fil0 str0" cx="7.13544" cy="3.19464" r="1.05"/>
  <polygon class="fil1" points="6.53544,3.19461 7.13256,2.59466 7.73544,3.19461 7.43544,3.19461 7.43544,3.79462 6.83545,3.79462 6.83545,3.19463 "/>
 </g>
</svg>
