<?xml version="1.0" encoding="UTF-8"?>
<!DOCTYPE svg PUBLIC "-//W3C//DTD SVG 1.1//EN" "http://www.w3.org/Graphics/SVG/1.1/DTD/svg11.dtd">
<!-- Creator: CorelDRAW -->
<svg xmlns="http://www.w3.org/2000/svg" xml:space="preserve" width="100%" height="100%" style="shape-rendering:geometricPrecision; text-rendering:geometricPrecision; image-rendering:optimizeQuality; fill-rule:evenodd; clip-rule:evenodd"
viewBox="0 0 9.88222 9.88222"
 xmlns:xlink="http://www.w3.org/1999/xlink">
 <defs>
  <style type="text/css">
   <![CDATA[
    .str0 {stroke:#fff;stroke-width:0.28222}
    .str1 {stroke:#fff;stroke-width:0.28222;stroke-linecap:round;stroke-linejoin:round}
    .fil0 {fill:none}
    .fil1 {fill:#fff}
   ]]>
  </style>
 </defs>
 <g id="Layer_x0020_1">
  <metadata id="CorelCorpID_0Corel-Layer"/>
  <circle class="fil0 str0" cx="4.94111" cy="4.94111" r="4.8"/>
  <path class="fil1" d="M2.21153 5.44066l-0.07392 -0.29759c-0.00747,-0.03009 -0.12417,-0.06321 -0.17955,-0.05144l-0.37571 -1.55075c0.10148,-0.0233 0.17258,-0.13473 0.14688,-0.2408l3.87687 -0.93929c0.01165,0.05074 0.07202,0.11692 0.12184,0.10456l0.29707 -0.07371 -0.07819 -0.31862 -4.65224 1.12714 0.56357 2.32612 0.35338 -0.08562z"/>
  <path class="fil1" d="M3.59617 5.55263l-1.21263 0.29412 -0.56357 -2.32612 4.65225 -1.12714 0.53659 2.22014 -0.40767 0.00606c-0.02573,-0.10089 0.04174,-0.21662 0.14687,-0.24081l-0.37571 -1.55074c-0.10632,0.0193 -0.21751,-0.0454 -0.24081,-0.14688l-3.87687 0.93928c0.0257,0.10607 -0.04539,0.21751 -0.14687,0.24081l0.37571 1.55075c0.08715,-0.01853 0.21662,0.04174 0.24081,0.14687l0.87562 -0.21156 -0.00372 0.20522zm0.69082 -2.01404c0.32111,-0.0778 0.64462,0.11952 0.72242,0.44063 0.062,0.25589 -0.05071,0.5133 -0.26155,0.64668l-0.63249 -0.00219c-0.14129,-0.0783 -0.228,-0.19337 -0.26902,-0.3627 -0.0778,-0.32112 0.11952,-0.64463 0.44064,-0.72242zm1.06314 0.15286c0.10704,-0.02593 0.21488,0.03984 0.24081,0.14688 0.02593,0.10704 -0.03984,0.21487 -0.14688,0.24081 -0.10704,0.02593 -0.21487,-0.03984 -0.24081,-0.14688 -0.02593,-0.10704 0.03984,-0.21487 0.14688,-0.24081zm-1.93843 0.46964c0.10704,-0.02593 0.21487,0.03984 0.24081,0.14688 0.02593,0.10704 -0.03984,0.21488 -0.14688,0.24081 -0.10704,0.02593 -0.21488,-0.03984 -0.24081,-0.14688 -0.02593,-0.10704 0.03984,-0.21487 0.14688,-0.24081z"/>
  <rect class="fil0 str1" x="3.91175" y="4.94677" width="4.28635" height="2.85757" rx="0.15" ry="0.15"/>
  <rect class="fil1" x="3.91175" y="5.42303" width="4.28635" height="0.476262"/>
  <rect class="fil1" x="6.29306" y="6.85182" width="0.714392" height="0.476262"/>
  <rect class="fil1" x="7.24558" y="6.85182" width="0.714392" height="0.476262"/>
 </g>
</svg>
