<?xml version="1.0" encoding="utf-8"?>
<!-- Generator: Adobe Illustrator 16.0.4, SVG Export Plug-In . SVG Version: 6.00 Build 0)  -->
<!DOCTYPE svg PUBLIC "-//W3C//DTD SVG 1.1//EN" "http://www.w3.org/Graphics/SVG/1.1/DTD/svg11.dtd">
<svg version="1.1" id="Layer_1" xmlns="http://www.w3.org/2000/svg" xmlns:xlink="http://www.w3.org/1999/xlink" x="0px" y="0px"
	 width="58.6px" height="58px" viewBox="0 0 58.6 58" enable-background="new 0 0 58.6 58" xml:space="preserve">
<path fill="#FFFFFF" d="M29.3,0c-16,0-29,13-29,29c0,16,13,29,29,29c16,0,29-13,29-29C58.3,13,45.3,0,29.3,0z M37.3,40.4h-16v-3.8
	c1.8-1.5,3.3-2.9,4.8-4.2c1.4-1.3,2.6-2.5,3.3-3.3s1.4-1.7,1.8-2.5c0.4-0.8,0.7-1.7,0.7-2.6c0-0.7-0.3-1.3-0.8-1.7s-1.3-0.6-2.2-0.6
	c-1,0-1.8,0.2-2.4,0.7c-0.6,0.5-1.2,1-1.6,1.6l-3.7-2.6c0.9-1.4,2-2.3,3.2-2.9c1.3-0.6,2.8-0.9,4.7-0.9c2.3,0,4.1,0.5,5.4,1.6
	c1.3,1.1,2,2.6,2,4.5c0,1.4-0.3,2.7-0.8,3.8c-0.5,1.1-1.3,2.1-2.2,3.1c-1,1-2.2,2.1-3.6,3.4c-1.4,1.2-2.3,2-2.7,2.2h10V40.4z"/>
</svg>
