<?xml version="1.0" encoding="utf-8"?>
<!-- Generator: Adobe Illustrator 16.0.4, SVG Export Plug-In . SVG Version: 6.00 Build 0)  -->
<!DOCTYPE svg PUBLIC "-//W3C//DTD SVG 1.1//EN" "http://www.w3.org/Graphics/SVG/1.1/DTD/svg11.dtd">
<svg version="1.1" xmlns="http://www.w3.org/2000/svg" xmlns:xlink="http://www.w3.org/1999/xlink" x="0px" y="0px" width="234.4px"
	 height="234.4px" viewBox="0 0 234.4 234.4" enable-background="new 0 0 234.4 234.4" xml:space="preserve">
<g id="Layer_2">
</g>
<g id="Layer_1">
	<g>
		<g>
			<path fill="#EEEEEE" d="M117.2,22.2c52.4,0,95,42.6,95,95s-42.6,95-95,95s-95-42.6-95-95S64.8,22.2,117.2,22.2 M117.2,14.2
				c-56.9,0-103,46.1-103,103c0,56.9,46.1,103,103,103s103-46.1,103-103C220.2,60.3,174.1,14.2,117.2,14.2L117.2,14.2z"/>
		</g>
		<g>
			<polygon fill="#00D9BF" points="113.8,50 134.2,62.3 113.8,74.7 			"/>
			<polygon fill="#23C0FF" points="177.5,148.5 156.2,159.2 156.7,135.4 			"/>
			<polygon fill="#DFDFE1" points="61.8,152.3 63.9,128.5 83.9,141.5 			"/>
			<g>
				<path fill="#787878" d="M129.9,118.5c-1.3-1-2.9-1.9-4.7-2.5c-1.8-0.6-3.7-1.2-5.7-1.7v-17c1.3,0.1,2.6,0.3,3.6,0.7
					c1.1,0.4,2,0.9,2.9,1.5c0.8,0.6,1.6,1.3,2.2,2.1c0.6,0.8,1.2,1.7,1.7,2.6l4.2-2.3c-0.8-1.3-1.6-2.5-2.5-3.5
					c-0.9-1-1.9-1.9-3.1-2.7c-1.2-0.8-2.5-1.3-4-1.8c-1.5-0.4-3.2-0.7-5-0.8v-4h-4v4c-2.5,0.1-4.6,0.5-6.4,1.2s-3.3,1.6-4.4,2.8
					c-1.2,1.1-2,2.4-2.5,3.9c-0.5,1.5-0.8,3-0.8,4.6c0,1.6,0.3,3.1,0.8,4.3c0.5,1.3,1.3,2.5,2.4,3.5c1.1,1,2.6,1.9,4.4,2.7
					c1.8,0.8,4,1.4,6.6,2v18.5c-1.6-0.2-2.9-0.5-4.1-1c-1.2-0.5-2.2-1.1-3.1-1.8c-0.9-0.7-1.7-1.5-2.3-2.3c-0.6-0.8-1.2-1.7-1.6-2.5
					l-4.1,2.4c0.6,1,1.4,2,2.2,3.1c0.9,1.1,1.9,2,3.1,2.9c1.2,0.9,2.6,1.6,4.3,2.3c1.6,0.6,3.5,1,5.7,1.1v8.3h4v-8.3
					c2.1-0.1,4-0.4,5.8-1c1.8-0.6,3.4-1.4,4.7-2.5c1.3-1.1,2.4-2.4,3.2-4c0.8-1.6,1.2-3.4,1.2-5.5c0-2.2-0.4-4-1.2-5.5
					C132.3,120.8,131.2,119.6,129.9,118.5z M115.4,113.4c-1.2-0.3-2.3-0.6-3.4-1c-1.1-0.4-2.1-0.9-2.9-1.5c-0.9-0.6-1.5-1.3-2.1-2.2
					c-0.5-0.9-0.8-1.9-0.8-3.1c0-1.2,0.2-2.2,0.5-3.2c0.3-1,0.8-1.8,1.6-2.5c0.7-0.7,1.7-1.3,2.8-1.7c1.2-0.4,2.6-0.7,4.3-0.8V113.4
					z M128.4,131.8c-0.6,1.1-1.3,1.9-2.2,2.6c-0.9,0.7-2,1.2-3.1,1.6c-1.2,0.4-2.4,0.6-3.6,0.7V119c3.4,0.8,5.9,1.9,7.5,3.4
					c1.6,1.4,2.4,3.3,2.4,5.5C129.2,129.4,129,130.7,128.4,131.8z"/>
				<path fill="#787878" d="M68.5,109.1l-4-0.4c-0.2,1.7-0.3,3.5-0.3,5.3h4.1C68.3,112.3,68.4,110.7,68.5,109.1z"/>
				<path fill="#787878" d="M83.1,78.5c7.8-7.7,17.9-12.6,28.7-14v13.7l26.4-15.9l-26.4-15.9v14c-11.9,1.4-23,6.8-31.5,15.2
					L83.1,78.5z M115.8,53.6l14.5,8.7l-14.5,8.7V53.6z"/>
				<path fill="#787878" d="M77.5,85.1l-3.3-2.4c-3.6,5.1-6.3,10.7-8,16.8l3.9,1.1C71.6,95,74.1,89.8,77.5,85.1z"/>
				<path fill="#787878" d="M149.9,72.5l-2.2,3.4c1.4,0.9,2.7,1.8,4,2.8l2.5-3.2C152.8,74.5,151.4,73.4,149.9,72.5z"/>
				<path fill="#787878" d="M171,97.6c-2.4-5.8-5.7-11.1-9.9-15.7l-3,2.7c3.9,4.3,7,9.2,9.2,14.5L171,97.6z"/>
				<path fill="#787878" d="M169.8,141.2c5.1-10.8,6.6-23.1,4-34.8l-4,0.9c2.4,10.7,1.1,21.9-3.5,31.7l-11.6-7.3l-0.6,30.8
					l27.6-13.8L169.8,141.2z M158.6,139l14.8,9.3l-15.1,7.6L158.6,139z"/>
				<path fill="#787878" d="M134.7,167l1.4,3.8c1.6-0.6,3.3-1.3,4.8-2.1l-1.8-3.6C137.7,165.8,136.2,166.4,134.7,167z"/>
				<path fill="#787878" d="M75.7,147.7l12.3-6L62.1,125l-2.7,30.7l12.6-6.2c6.5,10,16.2,17.7,27.5,21.6l1.3-3.8
					C90.5,163.7,81.7,156.8,75.7,147.7z M65.6,132l14.2,9.2l-15.7,7.7L65.6,132z"/>
				<path fill="#787878" d="M109.2,169.5l-0.7,4c6.2,1,12.4,1,18.6-0.2l-0.7-4C120.7,170.3,114.9,170.4,109.2,169.5z"/>
			</g>
		</g>
	</g>
</g>
</svg>
