<?xml version="1.0" encoding="utf-8"?>
<!-- Generator: Adobe Illustrator 16.0.4, SVG Export Plug-In . SVG Version: 6.00 Build 0)  -->
<!DOCTYPE svg PUBLIC "-//W3C//DTD SVG 1.1//EN" "http://www.w3.org/Graphics/SVG/1.1/DTD/svg11.dtd">
<svg version="1.1" xmlns="http://www.w3.org/2000/svg" xmlns:xlink="http://www.w3.org/1999/xlink" x="0px" y="0px" width="34px"
	 height="35.5px" viewBox="0 0 34 35.5" enable-background="new 0 0 34 35.5" xml:space="preserve">
<g id="Layer_2">
</g>
<g id="Layer_1">
	<g>
		<g>
			<path fill="#1977FC" d="M23.5,0H10.5c-2.2,0-4,1.8-4,4v27.5c0,2.2,1.8,4,4,4h12.9c2.2,0,4-1.8,4-4V4C27.5,1.8,25.7,0,23.5,0z
				 M17,33.9c-1.3,0-2.4-1.1-2.4-2.4s1.1-2.4,2.4-2.4s2.4,1.1,2.4,2.4S18.3,33.9,17,33.9z M24.3,27.5H9.7V4.8h14.5V27.5z"/>
			<path fill="#1977FC" d="M18.3,24v-1.8c1.6-0.3,2.9-1.3,3-3c0-2.4-2-3.2-4-3.7c-1.9-0.5-2.5-1-2.5-1.8c0-0.9,0.9-1.6,2.3-1.6
				c1.5,0,2.1,0.7,2.1,1.8H21c-0.1-1.5-0.9-2.8-2.7-3.2V8.8h-2.5v1.8c-1.6,0.3-2.9,1.4-2.9,3c0,1.9,1.6,2.9,4,3.5
				c2.1,0.5,2.5,1.2,2.5,2c0,0.6-0.4,1.5-2.3,1.5c-1.7,0-2.4-0.8-2.5-1.8h-1.9c0.1,1.8,1.5,2.9,3.1,3.2V24H18.3z"/>
		</g>
	</g>
</g>
</svg>
