<?xml version="1.0" encoding="utf-8"?>
<!-- Generator: Adobe Illustrator 16.0.4, SVG Export Plug-In . SVG Version: 6.00 Build 0)  -->
<!DOCTYPE svg PUBLIC "-//W3C//DTD SVG 1.1//EN" "http://www.w3.org/Graphics/SVG/1.1/DTD/svg11.dtd">
<svg version="1.1" xmlns="http://www.w3.org/2000/svg" xmlns:xlink="http://www.w3.org/1999/xlink" x="0px" y="0px" width="130.4px"
	 height="130.2px" viewBox="0 0 130.4 130.2" enable-background="new 0 0 130.4 130.2" xml:space="preserve">
<g id="Layer_2">
</g>
<g id="Layer_1">
	<g>
		<circle fill="#40E41B" cx="65.2" cy="65.1" r="62.6"/>
		<g>
			<path fill="#FFFFFF" d="M98.9,59.1h-8.2V38.4c0-0.9-0.7-1.6-1.6-1.6H31.4c-0.9,0-1.6,0.7-1.6,1.6V71c0,0.9,0.7,1.6,1.6,1.6h12.8
				v22.9c0,0.9,0.8,1.7,1.7,1.7h53.1c0.9,0,1.7-0.8,1.7-1.7V60.8C100.6,59.8,99.8,59.1,98.9,59.1z M60.2,48.7c3.3,0,6,2.7,6,6
				c0,1.7-0.7,3.3-1.9,4.4h-8.2c-1.2-1.1-1.9-2.7-1.9-4.4C54.2,51.4,56.9,48.7,60.2,48.7z M82.8,46.2c-0.8,0-1.5-0.7-1.5-1.5V42
				H39.2v2.7c0,0.8-0.7,1.5-1.5,1.5H35v17.1h2.7c0.8,0,1.5,0.7,1.5,1.5v2.7h5v2H32.9V39.9h54.5v19.1h-2V46.2H82.8z M44.1,60.8v3.5
				h-1.8c-0.2-2.2-2-3.9-4.2-4.2V49.3c2.2-0.2,3.9-2,4.2-4.2h35.9c0.2,2.2,2,3.9,4.2,4.2v9.8H67.8c0.8-1.3,1.2-2.8,1.2-4.4
				c0-4.9-3.9-8.8-8.8-8.8c-4.9,0-8.8,3.9-8.8,8.8c0,1.6,0.4,3.1,1.2,4.4h-6.8C44.9,59.1,44.1,59.8,44.1,60.8z M97.2,70v2.9H47.5V70
				H97.2z M97.2,76.3v17.5H47.5V76.3H97.2z M47.5,66.6v-4.2h49.7v4.2H47.5z"/>
			<path fill="#FFFFFF" d="M84.7,91.1h7.7c0.8,0,1.5-0.7,1.5-1.5v-5c0-0.8-0.7-1.5-1.5-1.5h-7.7c-0.8,0-1.5,0.7-1.5,1.5v5
				C83.2,90.4,83.9,91.1,84.7,91.1z M90.9,86.1v2h-4.7v-2H90.9z"/>
		</g>
	</g>
</g>
</svg>
