<?xml version="1.0" encoding="utf-8"?>
<!-- Generator: Adobe Illustrator 16.0.4, SVG Export Plug-In . SVG Version: 6.00 Build 0)  -->
<!DOCTYPE svg PUBLIC "-//W3C//DTD SVG 1.1//EN" "http://www.w3.org/Graphics/SVG/1.1/DTD/svg11.dtd">
<svg version="1.1" xmlns="http://www.w3.org/2000/svg" xmlns:xlink="http://www.w3.org/1999/xlink" x="0px" y="0px" width="130.4px"
	 height="130.2px" viewBox="0 0 130.4 130.2" enable-background="new 0 0 130.4 130.2" xml:space="preserve">
<g id="Layer_2">
</g>
<g id="Layer_1">
	<g>
		<circle fill="#23C0FF" cx="65.2" cy="65.1" r="62.6"/>
		<path fill="#FFFFFF" d="M61.5,101.9c-1.5,0-2.8-1.2-3-2.6l-0.7-6c-2.6-0.7-5-1.7-7.3-3l-4.8,3.7c-0.5,0.4-1.2,0.6-1.8,0.6
			c-0.8,0-1.6-0.3-2.1-0.8l-5.2-5.2c-1.1-1.1-1.2-2.8-0.2-4l3.7-4.7c-1.4-2.3-2.4-4.8-3-7.3l-6-0.7c-1.5-0.2-2.6-1.5-2.6-3v-7.3
			c0-1.5,1.2-2.8,2.6-3l6-0.7c0.7-2.6,1.7-5,3-7.3l-3.7-4.8c-0.9-1.2-0.8-2.9,0.2-4l5.2-5.2c0.5-0.5,1.3-0.8,2.1-0.8
			c0.7,0,1.3,0.2,1.8,0.6l4.8,3.7c2.3-1.4,4.8-2.4,7.3-3l0.7-6c0.2-1.5,1.5-2.6,3-2.6h7.3c1.5,0,2.8,1.2,3,2.6l0.7,6
			c2.6,0.7,5,1.7,7.3,3l4.8-3.7c0.5-0.4,1.2-0.6,1.8-0.6c0.8,0,1.6,0.3,2.1,0.8l5.2,5.2c1.1,1.1,1.2,2.8,0.2,4l-3.7,4.7
			c1.4,2.3,2.4,4.8,3,7.3l6,0.7c1.5,0.2,2.6,1.5,2.6,3v7.3c0,1.5-1.2,2.8-2.6,3l-6,0.7c-0.7,2.6-1.7,5-3,7.3l3.7,4.8
			c0.9,1.2,0.8,2.9-0.2,4l-5.2,5.2c-0.6,0.6-1.3,0.9-2.1,0.9c-0.7,0-1.3-0.2-1.8-0.6l-4.8-3.8c-2.3,1.4-4.8,2.4-7.3,3l-0.7,6
			c-0.2,1.5-1.5,2.6-3,2.6H61.5z M50.4,85.9c0.4,0,0.7,0.1,1.1,0.3c2.6,1.7,5.5,2.9,8.6,3.6c0.8,0.2,1.4,0.8,1.5,1.7l0.8,6.6l5.9,0
			l0.8-6.6c0.1-0.8,0.7-1.5,1.5-1.7c3.1-0.6,5.9-1.8,8.6-3.6c0.3-0.2,0.7-0.3,1-0.3c0.4,0,0.9,0.1,1.2,0.4l5.3,4.1l4.1-4.2l-4.2-5.2
			c-0.5-0.6-0.6-1.5-0.1-2.2c1.7-2.6,2.9-5.5,3.6-8.6c0.2-0.8,0.8-1.4,1.7-1.5l6.7-0.8l-0.1-5.9l-6.6-0.7c-0.8-0.1-1.5-0.7-1.7-1.5
			c-0.6-3-1.8-5.9-3.6-8.6c-0.5-0.7-0.4-1.6,0.1-2.2l4.1-5.3l-4.2-4.1l-5.2,4.2c-0.3,0.3-0.8,0.4-1.2,0.4c-0.4,0-0.7-0.1-1.1-0.3
			c-2.6-1.7-5.5-2.9-8.6-3.6c-0.8-0.2-1.4-0.8-1.5-1.7l-0.8-6.7l-5.9,0l-0.7,6.6c-0.1,0.8-0.7,1.5-1.5,1.7c-3,0.6-5.9,1.8-8.6,3.6
			c-0.3,0.2-0.7,0.3-1.1,0.3c-0.4,0-0.9-0.1-1.2-0.4l-5.3-4.1l-4.1,4.2l4.2,5.2c0.5,0.7,0.6,1.5,0.1,2.2c-1.7,2.6-2.9,5.5-3.6,8.6
			c-0.2,0.8-0.8,1.4-1.7,1.5l-6.7,0.8l0.1,5.9l6.6,0.7c0.8,0.1,1.5,0.7,1.7,1.5c0.6,3.1,1.8,5.9,3.6,8.6c0.4,0.7,0.4,1.6-0.1,2.2
			l-4.1,5.3l4.2,4.1l5.2-4.2C49.5,86.1,49.9,85.9,50.4,85.9z M65.2,84.9c-10.9,0-19.8-8.9-19.8-19.9s8.9-19.9,19.8-19.9
			c10.9,0,19.9,8.9,19.9,19.9S76.1,84.9,65.2,84.9z M65.2,49.1c-8.8,0-16,7.2-16,16c0,8.8,7.2,16,16,16c8.8,0,16-7.2,16-16
			C81.2,56.3,74,49.1,65.2,49.1z"/>
	</g>
</g>
</svg>
