<?xml version="1.0" encoding="utf-8"?>
<!-- Generator: Adobe Illustrator 16.0.4, SVG Export Plug-In . SVG Version: 6.00 Build 0)  -->
<!DOCTYPE svg PUBLIC "-//W3C//DTD SVG 1.1//EN" "http://www.w3.org/Graphics/SVG/1.1/DTD/svg11.dtd">
<svg version="1.1" xmlns="http://www.w3.org/2000/svg" xmlns:xlink="http://www.w3.org/1999/xlink" x="0px" y="0px" width="72.8px"
	 height="72.8px" viewBox="0 0 72.8 72.8" enable-background="new 0 0 72.8 72.8" xml:space="preserve">
<g id="Layer_2">
</g>
<g id="Layer_1">
	<g>
		<circle fill="#FFFFFF" cx="36.4" cy="36.4" r="33.9"/>
		<g>
			<g>
				<path fill="#1A71F8" d="M27.9,17.5c-0.6,0-1.2,0.5-1.2,1.1v3.9c0,0.6,0.5,1.1,1.2,1.1h11.5v15.2h-8.3c0,4.4,3.6,5.8,8.1,5.8
					l0,0.2c0,4.7-2.3,4.7-11.2,4.7c-0.7,0-1.3,0.5-1.3,1.4V54c0,0.8,0.5,1.4,1.3,1.4h2.5c8.9,0,15.6-1.4,15.6-11.7V17.5H27.9z
					 M35.5,31.2c0-1.2-1-2.2-2.2-2.2c-1.2,0-2.2,1-2.2,2.2c0,1.2,1,2.2,2.2,2.2C34.6,33.4,35.5,32.4,35.5,31.2z"/>
			</g>
		</g>
	</g>
</g>
</svg>
