<?xml version="1.0" encoding="utf-8"?>
<!-- Generator: Adobe Illustrator 16.0.4, SVG Export Plug-In . SVG Version: 6.00 Build 0)  -->
<!DOCTYPE svg PUBLIC "-//W3C//DTD SVG 1.1//EN" "http://www.w3.org/Graphics/SVG/1.1/DTD/svg11.dtd">
<svg version="1.1" xmlns="http://www.w3.org/2000/svg" xmlns:xlink="http://www.w3.org/1999/xlink" x="0px" y="0px" width="234.4px"
	 height="234.4px" viewBox="0 0 234.4 234.4" enable-background="new 0 0 234.4 234.4" xml:space="preserve">
<g id="Layer_2">
</g>
<g id="Layer_1">
	<g>
		<g>
			<path fill="#EFEFF0" d="M131.1,87.3c9.4,9.4,9.4,24.8,0,34.2c-9.4,9.4-24.8,9.4-34.2,0"/>
			<g>
				<path fill="#00D9BF" d="M114,68.7c-19.5,0-35.3,15.8-35.3,35.3c0,5.7,1.4,11.2,3.8,16l31.5,49.6l31.5-49.6
					c2.4-4.8,3.8-10.2,3.8-16C149.3,84.6,133.5,68.7,114,68.7z M114,128.6c-13.4,0-24.2-10.8-24.2-24.2c0-13.4,10.8-24.2,24.2-24.2
					c13.4,0,24.2,10.8,24.2,24.2C138.2,117.7,127.3,128.6,114,128.6z"/>
				<g>
					<path fill="#787878" d="M114,78.5c-14.3,0-25.9,11.6-25.9,25.9c0,14.3,11.6,25.9,25.9,25.9c14.3,0,25.9-11.6,25.9-25.9
						C139.9,90.1,128.3,78.5,114,78.5z M114,126.9c-12.4,0-22.5-10.1-22.5-22.5c0-12.4,10.1-22.5,22.5-22.5
						c12.4,0,22.5,10.1,22.5,22.5C136.5,116.8,126.4,126.9,114,126.9z"/>
					<path fill="#787878" d="M114,67.1c-20.4,0-37,16.6-37,37c0,5.8,1.4,11.5,4,16.7c0,0,0.1,0.1,0.1,0.1l31.5,49.6
						c0.3,0.5,0.8,0.8,1.4,0.8c0.6,0,1.1-0.3,1.4-0.8l31.5-49.6c0,0,0.1-0.1,0.1-0.1c2.7-5.3,4-10.9,4-16.7
						C151,83.7,134.4,67.1,114,67.1z M144,119.2l-30,47.3l-30-47.3c-2.4-4.8-3.6-9.8-3.6-15.1c0-18.5,15.1-33.6,33.6-33.6
						c18.5,0,33.6,15.1,33.6,33.6C147.6,109.3,146.4,114.4,144,119.2z"/>
				</g>
			</g>
			<path fill="#23C0FF" d="M107.8,90.4c-0.5,0-0.9,0.4-0.9,0.8v2.9c0,0.5,0.4,0.8,0.9,0.8h8.5v11.2h-6.1c0,3.3,2.7,4.3,6,4.3l0,0.1
				c0,3.5-1.7,3.4-8.3,3.4c-0.5,0-0.9,0.4-0.9,1v2.3c0,0.6,0.4,1,0.9,1h1.8c6.6,0,11.4-1,11.4-8.6V90.4H107.8z M113.3,100.5
				c0-0.9-0.7-1.6-1.6-1.6s-1.6,0.7-1.6,1.6c0,0.9,0.7,1.6,1.6,1.6S113.3,101.4,113.3,100.5z"/>
		</g>
		<g>
			<path fill="#EEEEEE" d="M117.2,22.2c52.4,0,95,42.6,95,95s-42.6,95-95,95s-95-42.6-95-95S64.8,22.2,117.2,22.2 M117.2,14.2
				c-56.9,0-103,46.1-103,103c0,56.9,46.1,103,103,103c56.9,0,103-46.1,103-103C220.2,60.3,174.1,14.2,117.2,14.2L117.2,14.2z"/>
		</g>
	</g>
</g>
</svg>
