<?xml version="1.0" encoding="utf-8"?>
<!-- Generator: Adobe Illustrator 16.0.4, SVG Export Plug-In . SVG Version: 6.00 Build 0)  -->
<!DOCTYPE svg PUBLIC "-//W3C//DTD SVG 1.1//EN" "http://www.w3.org/Graphics/SVG/1.1/DTD/svg11.dtd">
<svg version="1.1" id="Layer_1" xmlns="http://www.w3.org/2000/svg" xmlns:xlink="http://www.w3.org/1999/xlink" x="0px" y="0px"
	 width="56.7px" height="57.4px" viewBox="0 0 56.7 57.4" enable-background="new 0 0 56.7 57.4" xml:space="preserve">
<path fill="#FFFFFF" d="M51.4,28.7c0-0.8-0.4-1.4-1-1.8l-20-20c-0.9-0.9-2.2-0.9-3.1,0c-0.9,0.9-0.9,2.2,0,3.1l16.5,16.5H7.4
	c-1.2,0-2.2,1-2.2,2.2c0,1.2,1,2.2,2.2,2.2h36.5L27.4,47.4c-0.9,0.9-0.9,2.2,0,3.1c0.9,0.9,2.2,0.9,3.1,0l20.1-20.1
	c0.1,0,0.1-0.1,0.2-0.1c0,0,0,0,0,0C51.2,29.9,51.4,29.3,51.4,28.7z"/>
</svg>
