<?xml version="1.0" encoding="utf-8"?>
<!-- Generator: Adobe Illustrator 16.0.4, SVG Export Plug-In . SVG Version: 6.00 Build 0)  -->
<!DOCTYPE svg PUBLIC "-//W3C//DTD SVG 1.1//EN" "http://www.w3.org/Graphics/SVG/1.1/DTD/svg11.dtd">
<svg version="1.1" xmlns="http://www.w3.org/2000/svg" xmlns:xlink="http://www.w3.org/1999/xlink" x="0px" y="0px" width="34px"
	 height="34px" viewBox="0 0 34 34" enable-background="new 0 0 34 34" xml:space="preserve">
<g id="Layer_2">
</g>
<g id="Layer_1">
	<path fill="#0AA8DB" d="M31,26.9v1.6c0,1.8-1.5,3.3-3.3,3.3h-23c-1.8,0-3.3-1.5-3.3-3.3v-23c0-1.8,1.5-3.3,3.3-3.3h23
		c1.8,0,3.3,1.5,3.3,3.3v1.6H16.2c-1.8,0-3.3,1.5-3.3,3.3v13.2c0,1.8,1.5,3.3,3.3,3.3H31z M16.2,23.6h16.5V10.4H16.2V23.6z
		 M22.8,19.5c-1.4,0-2.5-1.1-2.5-2.5c0-1.4,1.1-2.5,2.5-2.5c1.4,0,2.5,1.1,2.5,2.5C25.2,18.4,24.1,19.5,22.8,19.5z"/>
</g>
</svg>
