<?xml version="1.0" encoding="utf-8"?>
<!-- Generator: Adobe Illustrator 16.0.4, SVG Export Plug-In . SVG Version: 6.00 Build 0)  -->
<!DOCTYPE svg PUBLIC "-//W3C//DTD SVG 1.1//EN" "http://www.w3.org/Graphics/SVG/1.1/DTD/svg11.dtd">
<svg version="1.1" xmlns="http://www.w3.org/2000/svg" xmlns:xlink="http://www.w3.org/1999/xlink" x="0px" y="0px" width="34px"
	 height="34px" viewBox="0 0 34 34" enable-background="new 0 0 34 34" xml:space="preserve">
<g id="Layer_2">
</g>
<g id="Layer_1">
	<path fill="#00B9D0" d="M27.8,8.8c-2.3-5-7.3-8.4-13.2-8.4c-8,0-14.5,6.5-14.5,14.5C0.1,21,4,26.2,9.4,28.3
		c2.5,3.2,6.4,5.3,10.8,5.3c7.5,0,13.6-6.1,13.6-13.6C33.9,15.4,31.5,11.2,27.8,8.8z M3.4,14.8c0-6.2,5.1-11.3,11.3-11.3
		c3,0,5.7,1.2,7.7,3.1c-0.7-0.1-1.4-0.2-2.1-0.2c-7.5,0-13.6,6.1-13.6,13.6c0,1,0.1,2,0.3,3C4.8,21,3.4,18.1,3.4,14.8z M22.2,28.4
		V31h-3.6v-2.6c-2.3-0.5-4.3-2-4.5-4.6h2.7c0.1,1.4,1.1,2.5,3.6,2.5c2.7,0,3.3-1.3,3.3-2.2c0-1.1-0.6-2.2-3.6-2.9
		c-3.4-0.8-5.7-2.2-5.7-5c0-2.3,1.9-3.9,4.2-4.4V9.2h3.6v2.7c2.5,0.6,3.8,2.5,3.9,4.6h-2.7c-0.1-1.5-0.9-2.5-3-2.5
		c-2,0-3.3,0.9-3.3,2.2c0,1.1,0.9,1.9,3.6,2.6c2.8,0.7,5.7,1.9,5.7,5.3C26.4,26.5,24.5,27.9,22.2,28.4z"/>
</g>
</svg>
