<?xml version="1.0" encoding="utf-8"?>
<!-- Generator: Adobe Illustrator 16.0.4, SVG Export Plug-In . SVG Version: 6.00 Build 0)  -->
<!DOCTYPE svg PUBLIC "-//W3C//DTD SVG 1.1//EN" "http://www.w3.org/Graphics/SVG/1.1/DTD/svg11.dtd">
<svg version="1.1" xmlns="http://www.w3.org/2000/svg" xmlns:xlink="http://www.w3.org/1999/xlink" x="0px" y="0px" width="136.5px"
	 height="195.8px" viewBox="0 0 136.5 195.8" enable-background="new 0 0 136.5 195.8" xml:space="preserve">
<g id="Layer_2">
</g>
<g id="Layer_1">
	<g>
		<polygon fill="#1A71F8" points="136.5,26.9 0,26.9 0,183.9 59.1,183.9 68.2,195.8 77.4,183.9 136.5,183.9 		"/>
		<g id="bank_1_">
			<g>
				<g id="XMLID_1_">
					<g>
						<path fill="#555555" d="M101.9,136v6.5H34.5V136h3.4v-4.9h3.6V88.5h-3.6V78.3l30.2-12.8l30.3,12.8v10.2h-4v42.6h4v4.9H101.9z
							 M96.4,136v-2.8h-4V86.5h4v-6.8l-28.3-12l-28.1,12v6.8h3.6v46.7h-3.6v2.8H96.4z"/>
						<path fill="#FFFFFF" d="M96.4,133.2v2.8H39.9v-2.8h3.6V86.5h-3.6v-6.8l28.1-12l28.3,12v6.8h-4v46.7H96.4z M87.5,132.7v-13.3
							h-9.8v13.3H87.5z M87.5,116.2V103h-9.8v13.3H87.5z M87.5,99.8V86.5h-9.8v13.3H87.5z M72.9,132.7v-13.3h-9.8v13.3H72.9z
							 M72.9,116.2V103h-9.8v13.3H72.9z M72.9,99.8V86.5h-9.8v13.3H72.9z M58.2,132.7v-13.3h-9.8v13.3H58.2z M58.2,116.2V103h-9.8
							v13.3H58.2z M58.2,99.8V86.5h-9.8v13.3H58.2z"/>
						<path fill="#555555" d="M87.5,119.4v13.3h-9.8v-13.3H87.5z M85.5,130.7v-9.2h-5.7v9.2H85.5z"/>
						<path fill="#555555" d="M87.5,103v13.3h-9.8V103H87.5z M85.5,114.2V105h-5.7v9.2H85.5z"/>
						<path fill="#555555" d="M87.5,86.5v13.3h-9.8V86.5H87.5z M85.5,97.7v-9.2h-5.7v9.2H85.5z"/>
						<rect x="79.8" y="121.5" fill="#00D9BF" width="5.7" height="9.2"/>
						<rect x="79.8" y="105" fill="#23C0FF" width="5.7" height="9.2"/>
						<rect x="79.8" y="88.5" fill="#23C0FF" width="5.7" height="9.2"/>
						<path fill="#555555" d="M72.9,119.4v13.3h-9.8v-13.3H72.9z M70.8,130.7v-9.2h-5.7v9.2H70.8z"/>
						<path fill="#555555" d="M72.9,103v13.3h-9.8V103H72.9z M70.8,114.2V105h-5.7v9.2H70.8z"/>
						<path fill="#555555" d="M72.9,86.5v13.3h-9.8V86.5H72.9z M70.8,97.7v-9.2h-5.7v9.2H70.8z"/>
						<rect x="65.1" y="121.5" fill="#00D9BF" width="5.7" height="9.2"/>
						<rect x="65.1" y="105" fill="#23C0FF" width="5.7" height="9.2"/>
						<rect x="65.1" y="88.5" fill="#23C0FF" width="5.7" height="9.2"/>
						<path fill="#555555" d="M58.2,119.4v13.3h-9.8v-13.3H58.2z M56.2,130.7v-9.2h-5.7v9.2H56.2z"/>
						<path fill="#555555" d="M58.2,103v13.3h-9.8V103H58.2z M56.2,114.2V105h-5.7v9.2H56.2z"/>
						<path fill="#555555" d="M58.2,86.5v13.3h-9.8V86.5H58.2z M56.2,97.7v-9.2h-5.7v9.2H56.2z"/>
						<rect x="50.4" y="121.5" fill="#00D9BF" width="5.7" height="9.2"/>
						<rect x="50.4" y="105" fill="#23C0FF" width="5.7" height="9.2"/>
						<rect x="50.4" y="88.5" fill="#23C0FF" width="5.7" height="9.2"/>
					</g>
				</g>
			</g>
			<g>
				<g>
					<path fill="#23C0FF" d="M71.8,74.3c2,2,2,5.3,0,7.4c-2,2-5.3,2-7.4,0"/>
				</g>
				<g>
					<path fill="#555555" d="M68.2,84.2c-3.4,0-6.2-2.8-6.2-6.2c0-3.4,2.8-6.2,6.2-6.2c3.4,0,6.2,2.8,6.2,6.2
						C74.4,81.5,71.6,84.2,68.2,84.2L68.2,84.2z M68.2,73.9c-2.3,0-4.2,1.9-4.2,4.2c0,2.3,1.9,4.2,4.2,4.2c2.3,0,4.2-1.9,4.2-4.2
						C72.3,75.7,70.5,73.9,68.2,73.9L68.2,73.9z"/>
				</g>
			</g>
			<g>
				<polygon fill="#00D9BF" points="99.9,140.5 36.6,140.5 36.6,138.1 39.9,138.1 39.9,138.1 96.4,138.1 96.4,138.1 99.9,138.1 				
					"/>
			</g>
		</g>
		<g>
			<circle fill="#FFFFFF" cx="68.2" cy="26.9" r="26.9"/>
			<g>
				<g>
					<path fill="#1A71F8" d="M67.6,22.9c0-0.9-0.8-1.7-1.7-1.7c-0.9,0-1.7,0.7-1.7,1.7c0,0.9,0.8,1.7,1.7,1.7
						C66.8,24.6,67.6,23.8,67.6,22.9z M61.7,12.3c-0.5,0-0.9,0.4-0.9,0.8v3c0,0.5,0.4,0.8,0.9,0.8h8.9v11.7h-6.4
						c0,3.4,2.8,4.5,6.2,4.5l0,0.1c0,3.6-1.8,3.6-8.6,3.6c-0.6,0-1,0.4-1,1.1v2.4c0,0.6,0.4,1.1,1,1.1h1.9c6.9,0,12-1.1,12-9V12.3
						H61.7z"/>
				</g>
			</g>
		</g>
		<g>
			<path fill="#FFFFFF" d="M34.5,168.5c-0.3,0.5-0.6,1-1,1.5c-0.4,0.5-0.8,0.9-1.4,1.2c-0.5,0.3-1.1,0.6-1.9,0.8s-1.5,0.3-2.5,0.3
				c-2.8,0-4.8-0.8-6.1-2.5c-1.3-1.6-2-4.1-2-7.4c0-1.6,0.2-3,0.5-4.2c0.3-1.2,0.8-2.3,1.4-3.1s1.5-1.5,2.5-1.9
				c1-0.4,2.2-0.6,3.6-0.6c0.9,0,1.7,0.1,2.4,0.3c0.7,0.2,1.3,0.4,1.8,0.7c0.5,0.3,1,0.7,1.4,1.1c0.4,0.4,0.7,0.9,1,1.5l-1.6,1
				c-0.2-0.4-0.5-0.8-0.8-1.2c-0.3-0.4-0.6-0.7-1-0.9c-0.4-0.3-0.9-0.5-1.4-0.6c-0.5-0.1-1.1-0.2-1.8-0.2c-1.1,0-2,0.2-2.7,0.5
				c-0.8,0.4-1.4,0.9-1.8,1.6s-0.8,1.6-1,2.6s-0.3,2.2-0.3,3.5s0.1,2.5,0.3,3.5s0.6,1.9,1.1,2.6s1.1,1.2,1.9,1.6
				c0.8,0.4,1.7,0.5,2.8,0.5c0.8,0,1.4-0.1,2-0.3c0.6-0.2,1-0.4,1.4-0.7c0.4-0.3,0.7-0.6,1-1c0.3-0.4,0.5-0.7,0.7-1.1L34.5,168.5z"
				/>
			<path fill="#FFFFFF" d="M44.1,164.5v7.3h-1.9v-7.2l-6.1-11.7h2.1l4.9,9.8l5-9.8h2L44.1,164.5z"/>
			<path fill="#FFFFFF" d="M65.1,158.8c0,1.1-0.1,2.1-0.4,2.9c-0.3,0.8-0.7,1.5-1.2,2s-1.2,0.9-2,1.1c-0.8,0.2-1.8,0.3-2.9,0.3h-3.2
				v6.7h-1.8v-18.9h5.2c2.2,0,3.8,0.5,4.8,1.5C64.6,155.4,65.1,156.9,65.1,158.8z M63.1,158.9c0-0.8-0.1-1.5-0.3-2.1
				c-0.2-0.6-0.5-1-0.9-1.3s-0.9-0.6-1.4-0.7c-0.6-0.1-1.2-0.2-1.9-0.2h-3.2v8.9h2.9c0.8,0,1.6-0.1,2.2-0.2s1.1-0.4,1.5-0.7
				s0.7-0.8,0.9-1.4C63,160.6,63.1,159.8,63.1,158.9z"/>
			<path fill="#FFFFFF" d="M80,171.9l-4.8-8h-4v8h-1.8v-18.9h5.4c1,0,2,0.1,2.7,0.3c0.8,0.2,1.5,0.5,2,0.9c0.5,0.4,0.9,1,1.2,1.6
				s0.4,1.5,0.4,2.5c0,0.8-0.1,1.6-0.3,2.2s-0.4,1.1-0.8,1.6c-0.3,0.4-0.8,0.8-1.3,1s-1.1,0.5-1.7,0.6l5.2,8.3H80z M79.1,158.3
				c0-0.7-0.1-1.2-0.2-1.7c-0.2-0.5-0.4-0.9-0.8-1.1c-0.3-0.3-0.8-0.5-1.4-0.6s-1.3-0.2-2.1-0.2h-3.5v7.6h3.4c0.9,0,1.6-0.1,2.1-0.2
				c0.6-0.1,1-0.4,1.4-0.7c0.3-0.3,0.6-0.7,0.7-1.2C79,159.6,79.1,159,79.1,158.3z"/>
			<path fill="#FFFFFF" d="M99.4,164c0,1.5-0.1,2.9-0.4,3.9c-0.2,1.1-0.6,1.9-1.2,2.6c-0.5,0.7-1.2,1.1-2.1,1.4s-1.9,0.4-3.1,0.4
				c-1.3,0-2.4-0.1-3.2-0.4s-1.6-0.8-2.1-1.4c-0.5-0.7-0.9-1.5-1.1-2.6c-0.2-1.1-0.3-2.3-0.3-3.9v-11h1.8v10.7
				c0,1.3,0.1,2.4,0.2,3.3c0.2,0.9,0.4,1.6,0.8,2.1c0.4,0.5,0.9,0.9,1.5,1.2s1.4,0.3,2.4,0.3c1,0,1.8-0.1,2.4-0.3s1.1-0.6,1.5-1.2
				c0.4-0.5,0.6-1.3,0.8-2.1c0.2-0.9,0.2-2,0.2-3.2v-10.8h1.8V164z"/>
			<path fill="#FFFFFF" d="M117,166.9c0,1-0.2,1.8-0.5,2.5c-0.3,0.7-0.8,1.2-1.4,1.7c-0.6,0.4-1.3,0.7-2.1,0.9s-1.7,0.3-2.6,0.3
				c-1,0-1.8-0.1-2.5-0.3s-1.4-0.5-1.9-0.8c-0.5-0.3-1-0.7-1.4-1.2s-0.8-1-1.1-1.5l1.6-0.9c0.2,0.4,0.4,0.7,0.7,1.1
				c0.3,0.4,0.6,0.7,1.1,1c0.4,0.3,0.9,0.5,1.5,0.7c0.6,0.2,1.2,0.3,1.9,0.3c0.7,0,1.3-0.1,1.9-0.2s1.1-0.4,1.5-0.6
				c0.4-0.3,0.8-0.7,1-1.1s0.4-1,0.4-1.6c0-0.6-0.1-1.1-0.3-1.5c-0.2-0.4-0.5-0.8-0.9-1.1c-0.4-0.3-0.9-0.6-1.5-0.8
				s-1.3-0.4-2.1-0.6c-1.1-0.3-2-0.6-2.8-0.8c-0.8-0.3-1.4-0.6-2-1c-0.5-0.4-0.9-0.8-1.2-1.4c-0.3-0.5-0.4-1.2-0.4-2.1
				c0-0.8,0.1-1.5,0.4-2.1c0.3-0.6,0.6-1.2,1.2-1.7c0.5-0.5,1.2-0.8,1.9-1.1c0.8-0.3,1.7-0.4,2.7-0.4c0.8,0,1.5,0.1,2.1,0.2
				c0.6,0.2,1.2,0.4,1.7,0.7c0.5,0.3,1,0.7,1.4,1.1c0.4,0.4,0.8,0.9,1.1,1.4l-1.5,1c-0.2-0.4-0.5-0.8-0.8-1.1s-0.6-0.6-1-0.9
				s-0.8-0.4-1.3-0.6c-0.5-0.1-1-0.2-1.6-0.2c-0.7,0-1.3,0.1-1.9,0.2s-1,0.4-1.3,0.7s-0.6,0.7-0.8,1.1c-0.2,0.4-0.3,0.9-0.3,1.4
				c0,0.5,0.1,0.9,0.2,1.3s0.4,0.6,0.8,0.9c0.4,0.3,0.9,0.5,1.5,0.7s1.4,0.4,2.3,0.6c1,0.2,1.9,0.5,2.6,0.8c0.8,0.3,1.4,0.6,2,1.1
				c0.5,0.4,1,0.9,1.2,1.6S117,166,117,166.9z"/>
		</g>
	</g>
</g>
</svg>
