<?xml version="1.0" encoding="utf-8"?>
<!-- Generator: Adobe Illustrator 16.0.4, SVG Export Plug-In . SVG Version: 6.00 Build 0)  -->
<!DOCTYPE svg PUBLIC "-//W3C//DTD SVG 1.1//EN" "http://www.w3.org/Graphics/SVG/1.1/DTD/svg11.dtd">
<svg version="1.1" xmlns="http://www.w3.org/2000/svg" xmlns:xlink="http://www.w3.org/1999/xlink" x="0px" y="0px" width="34px"
	 height="34px" viewBox="0 0 34 34" enable-background="new 0 0 34 34" xml:space="preserve">
<g id="Layer_2">
</g>
<g id="Layer_1">
	<path fill="#00C9C6" d="M32.3,22.3L23,20.8c-0.2,0-0.4,0-0.5,0.2l-4.3,5.2c-1.5-0.7-8-4.6-10.7-11.1l4.2-4.8
		c0.1-0.1,0.1-0.2,0.1-0.4l-0.8-8.2c0-0.3-0.2-0.5-0.5-0.5H1.7c-0.3,0-0.5,0.2-0.5,0.5c0,0.1-0.6,12.6,7.6,21.7
		c5.4,5.9,13.2,9.1,23.4,9.5c0,0,0,0,0,0c0.1,0,0.3,0,0.3-0.1c0.1-0.1,0.2-0.2,0.2-0.4v-9.6C32.8,22.5,32.6,22.3,32.3,22.3z"/>
</g>
</svg>
