<?xml version="1.0" encoding="utf-8"?>
<!-- Generator: Adobe Illustrator 16.0.4, SVG Export Plug-In . SVG Version: 6.00 Build 0)  -->
<!DOCTYPE svg PUBLIC "-//W3C//DTD SVG 1.1//EN" "http://www.w3.org/Graphics/SVG/1.1/DTD/svg11.dtd">
<svg version="1.1" xmlns="http://www.w3.org/2000/svg" xmlns:xlink="http://www.w3.org/1999/xlink" x="0px" y="0px" width="130.4px"
	 height="130.2px" viewBox="0 0 130.4 130.2" enable-background="new 0 0 130.4 130.2" xml:space="preserve">
<g id="Layer_2">
</g>
<g id="Layer_1">
	<g>
		<circle fill="#00D9BF" cx="65.2" cy="65.1" r="62.6"/>
		<g>
			<path fill="#FFFFFF" d="M65.2,32.5c-13.3,0-24,10.8-24,24c0,3.8,0.9,7.4,2.6,10.9c0.1,0.1,0.1,0.2,0.2,0.3l17.8,28
				c0.8,1.2,2,1.9,3.4,1.9s2.7-0.7,3.4-1.9l17.8-28c0.1-0.1,0.1-0.2,0.2-0.3c1.7-3.4,2.6-7.1,2.6-10.9
				C89.2,43.3,78.4,32.5,65.2,32.5z M83,65.6l-17.8,28l-17.8-28c-1.4-2.7-2.2-5.8-2.2-9c0-11,8.9-20,20-20c11,0,19.9,8.9,19.9,20
				C85.1,59.8,84.3,62.9,83,65.6z"/>
			<path fill="#FFFFFF" d="M69.8,48.2c-1.7,0-3.3,0.5-4.6,1.5c-1.3-1-2.9-1.5-4.6-1.5c-4.2,0-7.6,3.4-7.6,7.6c0,0.5,0.1,0.9,0.1,0.9
				c0.7,6.6,9.4,13.2,11.1,14.2l1.1,0.6l1.1-0.6c1.7-1,10.4-7.6,11.1-14.1c0,0,0.1-0.4,0.1-0.9C77.4,51.6,74,48.2,69.8,48.2z
				 M73.3,56.2c-0.4,3.6-5.3,8.3-8.1,10.4c-2.8-2.1-7.7-6.8-8.1-10.5c0,0,0-0.2,0-0.4c0-2,1.6-3.5,3.5-3.5c0.9,0,1.8,0.4,2.5,1
				l2.1,2l2.1-2c0.7-0.6,1.5-1,2.4-1c2,0,3.5,1.6,3.5,3.5C73.3,56,73.3,56.1,73.3,56.2z"/>
		</g>
	</g>
</g>
</svg>
