<?xml version="1.0" encoding="utf-8"?>
<!-- Generator: Adobe Illustrator 16.0.4, SVG Export Plug-In . SVG Version: 6.00 Build 0)  -->
<!DOCTYPE svg PUBLIC "-//W3C//DTD SVG 1.1//EN" "http://www.w3.org/Graphics/SVG/1.1/DTD/svg11.dtd">
<svg version="1.1" xmlns="http://www.w3.org/2000/svg" xmlns:xlink="http://www.w3.org/1999/xlink" x="0px" y="0px" width="130.4px"
	 height="130.2px" viewBox="0 0 130.4 130.2" enable-background="new 0 0 130.4 130.2" xml:space="preserve">
<g id="Layer_2">
</g>
<g id="Layer_1">
	<g>
		<circle fill="#23C0FF" cx="65.2" cy="65.1" r="62.6"/>
		<g>
			<path fill="#FFFFFF" d="M83.7,36.7c-0.1,0-10.4-1.5-19.2-1.5c-8.9,0-19.1,1.4-19.2,1.5c-0.7,0.1-1.2,0.7-1.2,1.4v59.6
				c0,0.7,0.5,1.3,1.2,1.4c0.1,0,9.5,1.5,19.2,1.5c9.9,0,19.2-1.4,19.2-1.5c0.7-0.1,1.2-0.7,1.2-1.4V38.2
				C84.9,37.5,84.4,36.8,83.7,36.7z M46.9,39.4c2.8-0.4,10.7-1.3,17.6-1.3c6.9,0,14.8,0.9,17.6,1.3v57.1c-2.6,0.4-9.9,1.2-17.6,1.2
				c-7.4,0-14.5-0.8-17.6-1.3V39.4z"/>
			<path fill="#FFFFFF" d="M49.9,66.9C50,66.9,57,68,64.4,68c7.5,0,14.5-1.1,14.5-1.1c0.7-0.1,1.2-0.7,1.2-1.4V42.2
				c0-0.7-0.5-1.3-1.2-1.4c-0.1,0-7.9-1.1-14.5-1.1c-6.7,0-14.5,1.1-14.5,1.1c-0.7,0.1-1.2,0.7-1.2,1.4v23.3
				C48.7,66.2,49.2,66.8,49.9,66.9z M77.3,64.3c-2.3,0.3-7.4,0.9-12.9,0.9c-5.4,0-10.6-0.6-12.9-0.9V43.5c2.5-0.3,8-0.9,12.9-0.9
				s10.4,0.6,12.9,0.9V64.3z"/>
			<path fill="#FFFFFF" d="M64.4,80.4c-1.5,0-3.2,0-4.9-0.1l-0.5,0v2.9l0.4,0c1.8,0.1,3.4,0.1,5,0.1c1.6,0,3.2,0,4.9-0.1l0.4,0v-2.9
				l-0.5,0C67.6,80.3,66,80.4,64.4,80.4z"/>
			<path fill="#FFFFFF" d="M79.4,79.2c0,0-3.5,0.5-8.1,0.9l-0.4,0V83l0.5,0c4.9-0.3,8.5-0.9,8.5-0.9c0.4-0.1,0.7-0.3,0.9-0.6
				c0.2-0.3,0.3-0.7,0.3-1.1c-0.1-0.7-0.7-1.2-1.4-1.2C79.6,79.2,79.5,79.2,79.4,79.2z"/>
			<path fill="#FFFFFF" d="M49.4,79.2c-0.1,0-0.2,0-0.2,0c-0.7,0-1.3,0.5-1.4,1.2c-0.1,0.4,0,0.8,0.3,1.1c0.2,0.3,0.6,0.5,0.9,0.6
				c0,0,3.6,0.6,8.4,0.9l0.5,0v-2.9l-0.4,0C52.9,79.8,49.5,79.2,49.4,79.2z"/>
			<path fill="#FFFFFF" d="M64.4,85.4c-1.5,0-3.2,0-4.9-0.1l-0.5,0v2.9l0.4,0c1.8,0.1,3.4,0.1,5,0.1c1.6,0,3.2,0,4.9-0.1l0.4,0v-2.9
				l-0.5,0C67.6,85.4,66,85.4,64.4,85.4z"/>
			<path fill="#FFFFFF" d="M79.7,84.3c-0.1,0-0.2,0-0.2,0c0,0-3.5,0.5-8.1,0.9l-0.4,0v2.9l0.5,0c4.9-0.3,8.5-0.9,8.5-0.9
				c0.4-0.1,0.7-0.3,0.9-0.6c0.2-0.3,0.3-0.7,0.3-1.1C81,84.8,80.4,84.3,79.7,84.3z"/>
			<path fill="#FFFFFF" d="M49.4,84.3c-0.1,0-0.2,0-0.2,0c-0.7,0-1.3,0.5-1.4,1.2c-0.1,0.4,0,0.8,0.3,1.1c0.2,0.3,0.6,0.5,0.9,0.6
				c0,0,3.6,0.6,8.4,0.9l0.5,0v-2.9l-0.4,0C52.9,84.8,49.5,84.3,49.4,84.3z"/>
			<path fill="#FFFFFF" d="M69.4,93.2l0.4,0v-2.9l-0.5,0c-1.8,0.1-3.4,0.1-4.9,0.1c-1.5,0-3.2,0-4.9-0.1l-0.5,0v2.9l0.4,0
				c1.8,0.1,3.4,0.1,5,0.1C66,93.4,67.6,93.3,69.4,93.2z"/>
			<path fill="#FFFFFF" d="M79.7,89.3c-0.1,0-0.2,0-0.2,0c0,0-3.5,0.5-8.1,0.9l-0.4,0v2.9l0.5,0c4.9-0.3,8.5-0.9,8.5-0.9
				c0.4-0.1,0.7-0.3,0.9-0.6c0.2-0.3,0.3-0.7,0.3-1.1C81,89.8,80.4,89.3,79.7,89.3z"/>
			<path fill="#FFFFFF" d="M49.4,89.4c-0.1,0-0.2,0-0.2,0c-0.7,0-1.3,0.5-1.4,1.2c-0.1,0.4,0,0.8,0.3,1.1c0.2,0.3,0.6,0.5,0.9,0.6
				c0,0,3.6,0.6,8.4,0.9l0.5,0v-2.9l-0.4,0C52.9,89.9,49.5,89.4,49.4,89.4z"/>
			<path fill="#FFFFFF" d="M68.1,74.1c0-2-1.6-3.7-3.7-3.7s-3.7,1.6-3.7,3.7c0,2,1.6,3.7,3.7,3.7S68.1,76.1,68.1,74.1z M64.5,74.9
				c-0.4,0-0.8-0.4-0.8-0.8s0.4-0.8,0.8-0.8c0.4,0,0.8,0.4,0.8,0.8S64.9,74.9,64.5,74.9z"/>
			<path fill="#FFFFFF" d="M51.5,74.1c0,1.4,1.1,2.5,2.5,2.5c1.4,0,2.5-1.1,2.5-2.5s-1.1-2.5-2.5-2.5C52.6,71.6,51.5,72.7,51.5,74.1
				z"/>
			<path fill="#FFFFFF" d="M77.4,74.1c0-1.4-1.1-2.5-2.5-2.5c-1.4,0-2.5,1.1-2.5,2.5s1.1,2.5,2.5,2.5C76.3,76.5,77.4,75.4,77.4,74.1
				z"/>
			<path fill="#FFFFFF" d="M83.5,21.5c-0.8,0-1.4,0.6-1.4,1.4v7.9c0,0.8,0.6,1.4,1.4,1.4c0.8,0,1.4-0.6,1.4-1.4V23
				C84.9,22.2,84.3,21.5,83.5,21.5z"/>
			<path fill="#FFFFFF" d="M97.3,36.8h-7.9c-0.8,0-1.4,0.6-1.4,1.4c0,0.8,0.6,1.4,1.4,1.4h7.9c0.8,0,1.4-0.6,1.4-1.4
				C98.8,37.4,98.1,36.8,97.3,36.8z"/>
			<path fill="#FFFFFF" d="M88.4,34.7c0.4,0,0.7-0.2,1-0.4l5.6-5.6c0.3-0.3,0.4-0.6,0.4-1s-0.2-0.7-0.4-1c-0.3-0.3-0.6-0.4-1-0.4
				c-0.4,0-0.7,0.1-1,0.4l-5.6,5.6c-0.3,0.3-0.4,0.6-0.4,1s0.2,0.7,0.4,1C87.6,34.5,88,34.7,88.4,34.7z"/>
			<path fill="#FFFFFF" d="M77.6,34.2c0.3,0.3,0.6,0.4,1,0.4c0.4,0,0.7-0.2,1-0.4c0.3-0.3,0.4-0.6,0.4-1s-0.1-0.7-0.4-1L74,26.6
				c-0.3-0.3-0.6-0.4-1-0.4s-0.7,0.1-1,0.4c-0.3,0.3-0.4,0.6-0.4,1s0.2,0.7,0.4,1L77.6,34.2z"/>
			<path fill="#FFFFFF" d="M89.4,42.2c-0.3-0.3-0.6-0.4-1-0.4s-0.7,0.1-1,0.4c-0.3,0.3-0.4,0.6-0.4,1s0.2,0.7,0.4,1l5.6,5.6
				c0.3,0.3,0.6,0.4,1,0.4c0.4,0,0.7-0.2,1-0.4c0.3-0.3,0.4-0.6,0.4-1s-0.2-0.7-0.4-1L89.4,42.2z"/>
		</g>
	</g>
</g>
</svg>
