<?xml version="1.0" encoding="utf-8"?>
<!-- Generator: Adobe Illustrator 16.0.4, SVG Export Plug-In . SVG Version: 6.00 Build 0)  -->
<!DOCTYPE svg PUBLIC "-//W3C//DTD SVG 1.1//EN" "http://www.w3.org/Graphics/SVG/1.1/DTD/svg11.dtd">
<svg version="1.1" xmlns="http://www.w3.org/2000/svg" xmlns:xlink="http://www.w3.org/1999/xlink" x="0px" y="0px" width="45px"
	 height="45px" viewBox="0 0 45 45" enable-background="new 0 0 45 45" xml:space="preserve">
<g id="Layer_2">
</g>
<g id="Layer_1">
	<g>
		<path fill="none" d="M22.5,13.3c-2.9,0-5.2,2.3-5.2,5.2s2.3,5.2,5.2,5.2s5.2-2.3,5.2-5.2S25.4,13.3,22.5,13.3z"/>
		<path fill="none" d="M22.5,31.5c-5.2,0-12.9,2.3-13.9,5.4c3.6,3.5,8.5,5.6,13.9,5.6s10.3-2.2,13.9-5.6
			C35.4,33.8,27.7,31.5,22.5,31.5z"/>
		<path fill="none" d="M22.5,2.5c-11,0-20,9-20,20c0,4.9,1.7,9.3,4.6,12.8c2.4-3.9,10.8-5.8,15.4-5.8s13,1.9,15.4,5.8
			c2.9-3.5,4.6-7.9,4.6-12.8C42.5,11.5,33.5,2.5,22.5,2.5z M22.5,25.5c-3.8,0-7-3.1-7-7c0-3.8,3.2-7,7-7s7,3.2,7,7
			C29.5,22.4,26.3,25.5,22.5,25.5z"/>
		<path fill="#FFFFFF" d="M22.5,0.5c-12.2,0-22,9.9-22,22c0,12.2,9.8,22,22,22s22-9.8,22-22C44.5,10.4,34.7,0.5,22.5,0.5z
			 M22.5,42.5c-5.4,0-10.3-2.2-13.9-5.6c1-3,8.7-5.4,13.9-5.4s12.9,2.3,13.9,5.4C32.8,40.3,27.9,42.5,22.5,42.5z M37.9,35.3
			c-2.4-3.9-10.8-5.8-15.4-5.8s-13,1.9-15.4,5.8c-2.9-3.5-4.6-7.9-4.6-12.8c0-11,9-20,20-20s20,9,20,20
			C42.5,27.4,40.8,31.8,37.9,35.3z"/>
		<path fill="#FFFFFF" d="M22.5,11.5c-3.8,0-7,3.2-7,7c0,3.9,3.2,7,7,7s7-3.1,7-7C29.5,14.7,26.3,11.5,22.5,11.5z M22.5,23.7
			c-2.9,0-5.2-2.3-5.2-5.2s2.3-5.2,5.2-5.2s5.2,2.3,5.2,5.2S25.4,23.7,22.5,23.7z"/>
	</g>
</g>
</svg>
