<?xml version="1.0" encoding="utf-8"?>
<!-- Generator: Adobe Illustrator 16.0.4, SVG Export Plug-In . SVG Version: 6.00 Build 0)  -->
<!DOCTYPE svg PUBLIC "-//W3C//DTD SVG 1.1//EN" "http://www.w3.org/Graphics/SVG/1.1/DTD/svg11.dtd">
<svg version="1.1" id="Layer_1" xmlns="http://www.w3.org/2000/svg" xmlns:xlink="http://www.w3.org/1999/xlink" x="0px" y="0px"
	 width="234.4px" height="234.4px" viewBox="0 0 234.4 234.4" enable-background="new 0 0 234.4 234.4" xml:space="preserve">
<g id="Layer_2">
</g>
<g id="Layer_1_1_">
	<g>
		<g>
			<path fill="#EEEEEE" d="M117.2,10.9c52.4,0,95,42.6,95,95c0,52.399-42.6,95-95,95s-95-42.601-95-95
				C22.2,53.5,64.8,10.9,117.2,10.9 M117.2,2.9c-56.9,0-103,46.1-103,103c0,56.899,46.1,103,103,103s103-46.101,103-103
				C220.2,49,174.1,2.9,117.2,2.9L117.2,2.9z"/>
		</g>
		<circle fill="#40E41B" cx="117.2" cy="203.7" r="27.9"/>
		<g>
			<g>
				<g>
					<rect x="97.3" y="48.6" fill="#00D9BF" width="61.4" height="81.899"/>
					<path fill="#787878" d="M96,131.7V47.3h64v84.4H96L96,131.7z M98.6,49.9v79.3H157.5V49.9H98.6L98.6,49.9z"/>
				</g>
				<g>
					<rect x="105.5" y="56.1" fill="#EFEFF0" width="45" height="63.5"/>
					<g>
						<polygon fill="#FFFFFF" points="105.7,56.5 150.3,56.5 105.7,109.9 						"/>
					</g>
					<path fill="#787878" d="M104.2,120.8v-66h47.6v66H104.2L104.2,120.8z M106.8,57.4V118.3h42.5V57.4H106.8L106.8,57.4z"/>
				</g>
				<g>
					<polygon fill="#787878" points="123.3,126.4 123.3,123.9 132.7,123.9 132.7,126.4 					"/>
				</g>
				<g>
					<polygon fill="#787878" points="126.7,53.3 126.7,51.2 129.3,51.2 129.3,53.3 					"/>
				</g>
			</g>
			<path fill="#787878" d="M128,71.5c-8.5,0-15.399,6.9-15.399,15.4S119.5,102.3,128,102.3S143.4,95.4,143.4,86.9
				S136.5,71.5,128,71.5z M135.4,94.4c0.3-1.101,0.6-2.2,0.8-3.4l0.1-0.5C136.4,90,136.4,89.6,136.5,89.1c0-0.2,0-0.4,0-0.5
				c0-0.301,0-0.601,0-0.801v-0.1h5c-0.2,3.1-1.5,6-3.6,8.3C137.1,95.4,136.3,94.9,135.4,94.4z M141.4,85.9h-5V85.8
				c0-0.3,0-0.6,0-0.8s0-0.399,0-0.5c0-0.5-0.101-0.899-0.2-1.399l-0.1-0.5c-0.2-1.2-0.4-2.301-0.801-3.4c0.9-0.4,1.7-1,2.5-1.6
				C140,79.9,141.2,82.8,141.4,85.9z M134.7,77.5L134.7,77.5c-0.5-1.1-1-2-1.5-2.8c0,0,0-0.1-0.1-0.1
				C133,74.5,132.9,74.4,132.8,74.3c1.301,0.5,2.5,1.2,3.601,2.101C135.9,76.8,135.3,77.1,134.7,77.5z M134.6,85.9h-5.7v-5
				c1.7-0.101,3.3-0.4,4.7-0.9C134.2,81.8,134.5,83.8,134.6,85.9z M128.9,79v-5.5c1.6,0.5,3.1,2.2,4.1,4.7
				C131.8,78.6,130.4,78.9,128.9,79z M128.9,92.8v-5h5.7c-0.101,2.101-0.4,4.101-0.9,5.9C132.2,93.2,130.6,92.9,128.9,92.8z
				 M133.1,99.1C133.1,99.1,133.2,99,133.1,99.1c0.6-0.9,1.1-1.801,1.6-2.801v-0.1c0.6,0.3,1.2,0.7,1.7,1.1
				c-1.101,0.9-2.3,1.601-3.601,2.101C132.9,99.3,133,99.2,133.1,99.1z M128.9,100.2v-5.5c1.5,0.1,2.899,0.3,4.1,0.8
				C132,98,130.5,99.7,128.9,100.2z M114.5,85.9c0.2-3.101,1.5-6,3.601-8.3c0.8,0.6,1.6,1.199,2.5,1.6
				c-0.301,1.1-0.601,2.2-0.801,3.4l-0.1,0.5c-0.1,0.5-0.1,0.899-0.2,1.399v0.2c0,0.1,0,0.2,0,0.4c0,0.3,0,0.6,0,0.899h-5V85.9z
				 M120.6,94.4c-0.9,0.399-1.7,1-2.5,1.6c-2.101-2.3-3.4-5.2-3.601-8.3h5c0,0.3,0,0.6,0,0.9c0,0.1,0,0.199,0,0.399v0.2
				c0,0.5,0.101,0.9,0.2,1.4l0.1,0.5C120,92.3,120.3,93.4,120.6,94.4z M121.2,96.2C121.2,96.2,121.3,96.3,121.2,96.2
				c0.5,1.1,1,2,1.5,2.8l0.1,0.101c0.101,0.1,0.2,0.199,0.301,0.3c-1.301-0.5-2.5-1.2-3.601-2.101C120,96.9,120.6,96.5,121.2,96.2z
				 M121.4,87.8h5.7v5c-1.7,0.101-3.301,0.4-4.7,0.9C121.8,91.9,121.5,89.9,121.4,87.8z M127,94.7v5.5c-1.6-0.5-3.1-2.2-4.1-4.7
				C124.2,95,125.6,94.8,127,94.7z M127,80.9v5h-5.7c0.101-2.101,0.4-4.101,0.9-5.9C123.8,80.5,125.4,80.8,127,80.9z M122.8,74.6
				l-0.1,0.1c-0.6,0.8-1.1,1.7-1.5,2.7v0.1c-0.6-0.3-1.2-0.7-1.7-1.1c1.101-0.9,2.3-1.601,3.601-2.101
				C123,74.4,122.9,74.5,122.8,74.6z M127,73.5V79c-1.5-0.1-2.899-0.3-4.1-0.8C124,75.6,125.4,73.9,127,73.5z"/>
			<g id="smartphone_3_">
				<g>
					<rect x="74.5" y="72.8" fill="#787878" width="47.101" height="83.601"/>
				</g>
				<rect x="77" y="89.9" fill="#EFEFF0" width="42.101" height="50.399"/>
				<g>
					<polygon fill="#FFFFFF" points="77,89.9 119.1,89.9 77,140.3 					"/>
				</g>
				<g>
					<rect x="77" y="75.3" fill="#23C0FF" width="42.101" height="12.101"/>
				</g>
				<g>
					<rect x="77" y="142.8" fill="#23C0FF" width="42.101" height="11.101"/>
				</g>
				<g>
					<g>
						<path fill="#787878" d="M101.6,149.9H94.5c-0.7,0-1.3-0.601-1.3-1.3c0-0.7,0.6-1.301,1.3-1.301h7.101
							c0.699,0,1.3,0.601,1.3,1.301C102.8,149.3,102.3,149.9,101.6,149.9L101.6,149.9z"/>
					</g>
				</g>
				<g>
					<g>
						<path fill="#787878" d="M99.5,83h-3c-0.3,0-0.5-0.6-0.5-1.3s0.2-1.3,0.5-1.3h3c0.3,0,0.5,0.6,0.5,1.3
							C100.1,82.4,99.8,83,99.5,83L99.5,83z"/>
					</g>
				</g>
			</g>
			<g>
				<circle fill="#23C0FF" cx="105.7" cy="124.4" r="1.6"/>
				<polygon fill="#00D9BF" points="88.7,113.8 109.7,113.8 107.8,122 91.2,122 				"/>
				<circle fill="#23C0FF" cx="93.3" cy="124.4" r="1.9"/>
				<path fill="#787878" d="M111.4,110.2l0.1-0.4c0-0.5-0.399-0.899-0.899-0.899h-22l-1-3.5c-0.101-0.4-0.5-0.601-0.9-0.601h-5.2
					c-0.5,0-0.899,0.4-0.899,0.9s0.399,0.9,0.899,0.9H86l4.3,16c0.101,0.199,0.2,0.3,0.301,0.5C90.4,123.5,90.3,124,90.3,124.5
					c0,1.601,1.301,3,3,3c1.601,0,3-1.3,3-3c0-0.399-0.1-0.8-0.3-1.2h7c-0.2,0.4-0.3,0.801-0.3,1.2c0,1.601,1.3,3,3,3
					c1.6,0,3-1.3,3-3c0-0.5-0.1-0.899-0.3-1.399c0.2-0.101,0.3-0.301,0.3-0.5L111.4,110.2z M89,110.7H93.1l0.3,2.4h-3.8L89,110.7z
					 M95,110.7H98.6v2.4h-3.4L95,110.7z M94.3,121.4h-2.5l-0.6-2.4H94L94.3,121.4z M98.6,114.9v2.399h-2.9l-0.3-2.399H98.6z
					 M93.9,117.2H90.8l-0.6-2.4h3.5L93.9,117.2z M93.3,125.5c-0.6,0-1.199-0.5-1.199-1.2c0-0.6,0.5-1.199,1.199-1.199
					c0.601,0,1.2,0.5,1.2,1.199C94.4,125,93.9,125.5,93.3,125.5z M98.6,119v2.4h-2.4l-0.3-2.4H98.6z M109.4,110.7l-0.5,2.4h-3.3
					l0.3-2.4H109.4z M108.5,114.9L108,117.3H105.1l0.3-2.399H108.5z M100.4,113.1v-2.4h3.6l-0.3,2.4H100.4z M105.7,125.5
					c-0.6,0-1.2-0.5-1.2-1.2c0-0.6,0.5-1.199,1.2-1.199c0.6,0,1.2,0.5,1.2,1.199C106.9,125,106.4,125.5,105.7,125.5z M100.4,121.4
					V119h2.7l-0.301,2.4H100.4z M104.6,121.4l0.3-2.4h2.7l-0.5,2.4H104.6z M100.4,117.2v-2.4h3.2l-0.301,2.4H100.4z"/>
			</g>
		</g>
		<g enable-background="new    ">
			<path fill="#FFFFFF" d="M123.286,211.613v3.578h-4.219v-3.578h-10.859v-4.062l10.562-13.984h4.516v14.266h2.656v3.781H123.286z
				 M119.067,199.347l-6.562,8.484h6.562V199.347z"/>
		</g>
	</g>
</g>
</svg>
