<?xml version="1.0" encoding="utf-8"?>
<!-- Generator: Adobe Illustrator 16.0.4, SVG Export Plug-In . SVG Version: 6.00 Build 0)  -->
<!DOCTYPE svg PUBLIC "-//W3C//DTD SVG 1.1//EN" "http://www.w3.org/Graphics/SVG/1.1/DTD/svg11.dtd">
<svg version="1.1" id="Layer_1" xmlns="http://www.w3.org/2000/svg" xmlns:xlink="http://www.w3.org/1999/xlink" x="0px" y="0px"
	 width="234.4px" height="234.4px" viewBox="0 0 234.4 234.4" enable-background="new 0 0 234.4 234.4" xml:space="preserve">
<g id="Layer_2">
</g>
<g id="Layer_1_1_">
	<g>
		<g>
			<path fill="#EEEEEE" d="M117.2,10.9c52.4,0,95,42.6,95,95c0,52.399-42.6,95-95,95s-95-42.601-95-95
				C22.2,53.5,64.8,10.9,117.2,10.9 M117.2,2.9c-56.9,0-103,46.1-103,103c0,56.899,46.1,103,103,103s103-46.101,103-103
				C220.2,49,174.1,2.9,117.2,2.9L117.2,2.9z"/>
		</g>
		<circle fill="#23C0FF" cx="117.2" cy="203.7" r="27.9"/>
		<g id="atm-machine_3_">
			<g>
				<rect x="68.9" y="66.2" fill="#FFFFFF" width="96.6" height="77.2"/>
				<path fill="#787878" d="M166.9,144.8H67.6v-80h99.3V144.8L166.9,144.8z M70.3,142.1H164.1V67.6H70.3V142.1L70.3,142.1z"/>
			</g>
			<g>
				<polygon fill="#EFEFF0" points="114.5,105.4 78.3,105.4 114.5,76.5 				"/>
			</g>
			<g>
				<path fill="#787878" d="M115.9,106.8h-39V75.1h39V106.8L115.9,106.8z M79.6,104H113V77.9H79.6V104L79.6,104z"/>
			</g>
			<g>
				<g>
					<g>
						<rect x="125.4" y="97.4" fill="#FFFFFF" width="7.7" height="7.7"/>
						<path fill="#787878" d="M134.6,106.6h-10.7V95.9h10.7V106.6L134.6,106.6z M126.9,103.6h4.7v-4.7h-4.7V103.6L126.9,103.6z"/>
					</g>
					<g>
						<rect x="137.5" y="97.4" fill="#FFFFFF" width="7.7" height="7.7"/>
						<path fill="#787878" d="M146.7,106.6H136V95.9h10.7V106.6L146.7,106.6z M139,103.6h4.7v-4.7H139V103.6L139,103.6z"/>
					</g>
					<g>
						<rect x="149.2" y="97.4" fill="#FFFFFF" width="7.7" height="7.7"/>
						<path fill="#787878" d="M158.5,106.6h-10.7V95.9h10.7V106.6L158.5,106.6z M150.7,103.6h4.7v-4.7h-4.7V103.6L150.7,103.6z"/>
					</g>
				</g>
				<g>
					<g>
						<rect x="125.4" y="112.1" fill="#FFFFFF" width="7.7" height="7.699"/>
						<path fill="#787878" d="M134.6,121.4h-10.7v-10.7h10.7V121.4L134.6,121.4z M126.9,118.4h4.7v-4.7h-4.7V118.4L126.9,118.4z"/>
					</g>
					<g>
						<rect x="137.5" y="112.1" fill="#FFFFFF" width="7.7" height="7.699"/>
						<path fill="#787878" d="M146.7,121.4H136v-10.7h10.7V121.4L146.7,121.4z M139,118.4h4.7v-4.7H139V118.4L139,118.4z"/>
					</g>
					<g>
						<rect x="149.2" y="112.1" fill="#FFFFFF" width="7.7" height="7.699"/>
						<path fill="#787878" d="M158.5,121.4h-10.7v-10.7h10.7V121.4L158.5,121.4z M150.7,118.4h4.7v-4.7h-4.7V118.4L150.7,118.4z"/>
					</g>
				</g>
				<g>
					<g>
						<rect x="125.4" y="126.9" fill="#23C0FF" width="7.7" height="7.7"/>
						<path fill="#787878" d="M134.6,136.1h-10.7v-10.7h10.7V136.1L134.6,136.1z M126.9,133.1h4.7v-4.7h-4.7V133.1L126.9,133.1z"/>
					</g>
					<g>
						<rect x="137.5" y="126.9" fill="#FFFFFF" width="7.7" height="7.7"/>
						<path fill="#787878" d="M146.7,136.1H136v-10.7h10.7V136.1L146.7,136.1z M139,133.1h4.7v-4.7H139V133.1L139,133.1z"/>
					</g>
					<g>
						<rect x="149.2" y="126.9" fill="#00D9BF" width="7.7" height="7.7"/>
						<path fill="#787878" d="M158.5,136.1h-10.7v-10.7h10.7V136.1L158.5,136.1z M150.7,133.1h4.7v-4.7h-4.7V133.1L150.7,133.1z"/>
					</g>
				</g>
			</g>
			<g>
				<rect x="125.4" y="81.3" fill="#00D9BF" width="31.6" height="5.4"/>
				<path fill="#787878" d="M158.5,88.2h-34.6v-8.4h34.6V88.2L158.5,88.2z M126.9,85.2h28.5v-2.4h-28.5V85.2L126.9,85.2z"/>
			</g>
			<g>
				<polyline fill="#23C0FF" points="111.2,118.9 111.2,153.4 81.5,153.4 81.5,118.9 				"/>
				<polygon fill="#787878" points="112.7,154.9 79.9,154.9 79.9,118.9 83,118.9 83,151.9 109.7,151.9 109.7,118.9 112.7,118.9 				
					"/>
			</g>
			<g>
				<g>
					<path fill="#00D9BF" d="M86.2,119.3v25.2c0,0.101,0.1,0.3,0.2,0.4c0.1,0.1,0.3,0.1,0.399,0.1H86.9c1.2,0,2.1,0.9,2.1,2.101
						c0,0.1,0,0.199,0,0.3c0,0.2,0,0.3,0.101,0.399c0.1,0.101,0.3,0.2,0.399,0.2h13.7c0.2,0,0.3-0.1,0.4-0.2
						c0.1-0.1,0.1-0.3,0.1-0.399c0-0.101,0-0.2,0-0.3c0-1.2,0.9-2.101,2.1-2.101h0.101c0.2,0,0.3,0,0.399-0.1
						c0.101-0.101,0.2-0.2,0.2-0.4v-25.2"/>
					<path fill="#787878" d="M103.2,149.5H89.5c-0.6,0-1.1-0.2-1.5-0.7c-0.399-0.5-0.6-1-0.5-1.6c0-0.5-0.2-0.8-0.6-0.8
						c-0.601,0-1.101-0.101-1.5-0.5c-0.5-0.5-0.7-1-0.7-1.5v-25.2c0-0.8,0.7-1.5,1.5-1.5s1.5,0.7,1.5,1.5v24.3
						c1.4,0.3,2.5,1.5,2.8,2.9h11.8c0.101-0.7,0.5-1.4,1-1.9s1.101-0.8,1.801-1v-24.3c0-0.8,0.699-1.5,1.5-1.5
						c0.8,0,1.5,0.7,1.5,1.5v25.2c0,0.5-0.2,1.1-0.601,1.399c-0.5,0.4-1,0.601-1.6,0.601c-0.2,0-0.4,0.1-0.5,0.2
						c-0.101,0.1-0.2,0.199-0.2,0.399c0.1,0.7-0.1,1.3-0.5,1.7C104.3,149.3,103.8,149.5,103.2,149.5L103.2,149.5z"/>
				</g>
			</g>
			<g>
				<g>
					<path fill="#23C0FF" d="M91.4,127.7c0-2.8,2.2-5,5-5s5,2.2,5,5s-2.2,5-5,5S91.4,130.4,91.4,127.7z"/>
					<path fill="#787878" d="M96.3,134.2c-3.6,0-6.5-2.9-6.5-6.5s2.9-6.5,6.5-6.5c3.601,0,6.5,2.9,6.5,6.5S99.9,134.2,96.3,134.2
						L96.3,134.2z M96.3,124.2c-1.899,0-3.5,1.6-3.5,3.5s1.601,3.5,3.5,3.5c1.9,0,3.5-1.6,3.5-3.5S98.3,124.2,96.3,124.2L96.3,124.2
						z"/>
				</g>
				<g>
					<polygon fill="#787878" points="97.5,142.9 94.5,142.9 94.5,136.2 97.5,136.2 					"/>
				</g>
			</g>
			<g>
				<polygon fill="#787878" points="116.3,119.7 76.4,119.7 76.4,116.5 116.3,116.5 				"/>
			</g>
		</g>
		<g enable-background="new    ">
			<path fill="#FFFFFF" d="M109.473,215.191v-3.688c1.698-1.427,3.245-2.791,4.641-4.094c1.396-1.302,2.474-2.383,3.234-3.242
				c0.76-0.859,1.352-1.682,1.773-2.469c0.422-0.786,0.633-1.611,0.633-2.477c0-0.677-0.256-1.213-0.766-1.609
				c-0.511-0.396-1.214-0.594-2.109-0.594c-0.969,0-1.761,0.225-2.375,0.672c-0.615,0.448-1.125,0.979-1.531,1.594l-3.562-2.5
				c0.885-1.322,1.935-2.266,3.148-2.828c1.213-0.562,2.727-0.844,4.539-0.844c2.229,0,3.986,0.521,5.273,1.562
				c1.286,1.042,1.93,2.506,1.93,4.391c0,1.386-0.253,2.602-0.758,3.648c-0.506,1.047-1.225,2.062-2.156,3.047
				c-0.933,0.984-2.094,2.07-3.484,3.258s-2.248,1.901-2.57,2.141h9.672v4.031H109.473z"/>
		</g>
	</g>
</g>
</svg>
