<?xml version="1.0" encoding="utf-8"?>
<!-- Generator: Adobe Illustrator 16.0.4, SVG Export Plug-In . SVG Version: 6.00 Build 0)  -->
<!DOCTYPE svg PUBLIC "-//W3C//DTD SVG 1.1//EN" "http://www.w3.org/Graphics/SVG/1.1/DTD/svg11.dtd">
<svg version="1.1" id="Layer_1" xmlns="http://www.w3.org/2000/svg" xmlns:xlink="http://www.w3.org/1999/xlink" x="0px" y="0px"
	 width="234.4px" height="234.4px" viewBox="0 0 234.4 234.4" enable-background="new 0 0 234.4 234.4" xml:space="preserve">
<g id="Layer_2">
</g>
<g id="Layer_1_1_">
	<g>
		<g>
			<path fill="#EEEEEE" d="M117.2,10.9c52.4,0,95,42.6,95,95c0,52.399-42.6,95-95,95s-95-42.601-95-95
				C22.2,53.5,64.8,10.9,117.2,10.9 M117.2,2.9c-56.9,0-103,46.1-103,103c0,56.899,46.1,103,103,103s103-46.101,103-103
				C220.2,49,174.1,2.9,117.2,2.9L117.2,2.9z"/>
		</g>
		<circle fill="#1A71F8" cx="117.2" cy="203.7" r="27.9"/>
		<g id="hand-euro-coin_3_">
			<g>
				<g>
					<path fill="#23C0FF" d="M98.4,62.7c-18.5,0-33.601,15-33.601,33.6c0,2.2,0.2,4.4,0.601,6.4c0.399,2.1,1,4.1,1.8,6
						c4.9,12.4,17,21.1,31.2,21.1c14.1,0,26.2-8.8,31.2-21.1c0.8-1.9,1.399-3.9,1.8-6c0.399-2.1,0.6-4.2,0.6-6.4
						C131.9,77.7,116.9,62.7,98.4,62.7z"/>
					<path fill="#787878" d="M98.4,131.4c-14.5,0-27.3-8.7-32.7-22.2c-0.8-2.1-1.5-4.2-1.9-6.3c-0.399-2.3-0.699-4.5-0.699-6.8
						C63.2,76.8,79,61,98.4,61c19.399,0,35.2,15.8,35.2,35.2c0,2.2-0.2,4.5-0.7,6.8c-0.4,2.101-1,4.2-1.8,6.3
						C125.7,122.7,112.9,131.4,98.4,131.4L98.4,131.4z M98.4,64.3C80.8,64.3,66.5,78.6,66.5,96.2c0,2,0.2,4.1,0.601,6.1
						C67.5,104.2,68,106.1,68.8,108C73.7,120.2,85.3,128.1,98.4,128.1c13.1,0,24.8-7.9,29.7-20.101c0.699-1.899,1.3-3.8,1.699-5.7
						c0.4-2.1,0.601-4.1,0.601-6.1C130.3,78.6,116,64.3,98.4,64.3L98.4,64.3z"/>
				</g>
			</g>
			<g>
				<path fill="#FFFFFF" d="M155.1,124.4c-0.301-0.3-0.5-0.5-0.7-0.7c-0.601-0.6-1.601-2-2.7-3.6c-0.1-0.2-0.3-0.4-0.4-0.601
					c-0.399-0.6-0.899-1.3-1.3-1.899L150.2,104c0-2.399-1.9-4.399-4.3-4.399c-0.3,0-0.601,0-0.9,0.1c-2,0.4-3.399,2.1-3.5,4.2
					l-0.1,5.399l-1.7-1.699l-2.1-2.101l-0.101-0.1l-4.7-4.7l-4.8-4.8l-0.5-0.5l0,0l-1.6-1.601l-0.101-0.1l-2.5-2.5l-0.1-0.1
					C123.1,91,123.1,91,123,90.9c-1-0.9-2.399-1.2-3.6-0.9c-0.8,0.2-1.601,0.601-2.2,1.2c-1.7,1.7-1.7,4.4,0,6.1l0.4,0.4l0.1,0.1
					l2.3,2.301l0.101,0.1l1.8,1.8l0.1,0.101l2.7,2.699l0.7,0.601L125,105.8c-0.2-0.1-0.5-0.199-0.7-0.199
					c-0.199-0.101-0.399-0.2-0.6-0.2c-0.5-0.101-1-0.101-1.5,0c-0.8,0.2-1.6,0.6-2.2,1.2c-1.399,1.399-1.6,3.5-0.8,5.1l-0.7,0.7
					c-0.399-0.2-0.8-0.3-1.2-0.4c-0.5-0.1-1.1-0.1-1.6,0c-0.8,0.2-1.6,0.5-2.2,1.2c-1.3,1.3-1.5,3.1-0.899,4.6
					c0.1,0.2,0.1,0.301,0.199,0.5l-0.5,0.5c-0.1,0.101-0.199,0.2-0.3,0.4c-0.399-0.1-0.8-0.2-1.2-0.2c-0.1,0-0.199,0-0.3,0
					c-0.2,0-0.399,0-0.7,0.101c-0.8,0.199-1.6,0.5-2.199,1.199c-0.101,0.101-0.2,0.301-0.301,0.4c-0.6,0.8-0.899,1.7-0.899,2.6l3,3
					l12.1,12.101l2.5,2.5c1,1,2.3,1.6,3.7,1.8c0.3,0,0.5,0,0.8,0c0.2,0,0.3,0,0.5,0c2.4,0,4.5,0.2,5.5,0.9
					c0.101,0.1,0.2,0.1,0.2,0.199c0.2,0.2,0.7,0.7,0.7,0.7"/>
				<path fill="#787878" d="M133.8,145.6l-0.699-0.7c-0.4-0.3-1.5-0.601-4.601-0.601c0,0-0.2,0-0.399,0c-0.301,0-0.7,0-1.101-0.1
					c-1.7-0.2-3.399-1-4.6-2.2L104.3,124v-0.7c0-1.3,0.5-2.5,1.301-3.5c0.199-0.3,0.3-0.399,0.5-0.6c0.8-0.8,1.899-1.4,3.1-1.6
					c0.3-0.101,0.6-0.101,0.9-0.101h0.3h0.1c-0.399-2,0.2-3.899,1.601-5.3c0.8-0.8,1.899-1.4,3.1-1.6c0.6-0.101,1.2-0.101,1.8-0.101
					c-0.2-1.8,0.4-3.6,1.7-4.899c0.8-0.801,1.7-1.301,2.8-1.601l-5.3-5.3c-2.3-2.3-2.3-6.1,0-8.5c0.9-0.8,1.9-1.4,3.1-1.6
					c1.801-0.4,3.601,0.1,5,1.3c0.101,0,0.2,0.1,0.301,0.2L140,105.5v-1.6c0-2.8,2.101-5.2,4.8-5.8C145.2,98,145.6,98,146.1,98
					c1.6,0,3.1,0.7,4.199,1.8c1.101,1.101,1.7,2.7,1.7,4.301l-0.2,13.1c0.301,0.5,0.7,1,1,1.5l0.4,0.6c1.2,1.801,2.1,2.9,2.5,3.301
					l0.6,0.6l-2.3,2.4L153.4,125c-0.7-0.7-1.601-1.899-3.101-4L150,120.6c-0.6-0.801-1-1.5-1.399-2.101L148.3,118.1L148.5,104
					c0-0.7-0.3-1.399-0.8-1.899s-1.2-0.801-1.9-0.801c-0.199,0-0.399,0-0.6,0c-1.3,0.301-2.2,1.4-2.2,2.601l-0.1,9.3L122,92.3
					c-0.6-0.5-1.399-0.699-2.2-0.6c-0.5,0.1-1,0.4-1.399,0.7c-1.101,1.1-1.101,2.8,0,3.8l9.2,9.2l-2.4,2.399l-1.8-0.8
					c-0.4-0.1-0.7-0.1-1,0c-0.5,0.101-1,0.4-1.4,0.7c-0.8,0.8-1,2.1-0.5,3.2l0.601,1.1l-2.4,2.4l-1.1-0.5
					c-0.301-0.101-0.5-0.2-0.801-0.3c-0.3-0.101-0.6,0-1,0c-0.6,0.1-1,0.399-1.399,0.699c-0.7,0.7-1,1.9-0.601,2.9l0.101,0.3
					l0.6,1.101L112.1,121l-1-0.3c-0.2-0.1-0.601-0.1-0.801-0.1c-0.3,0-0.399,0-0.5,0c-0.6,0.1-1,0.399-1.399,0.699l-0.2,0.301
					c-0.2,0.3-0.4,0.6-0.5,0.899l17,17c0.7,0.7,1.7,1.2,2.7,1.3c0.2,0,0.399,0,0.6,0h0.3c3.101,0,5.301,0.301,6.7,1.301
					c0.2,0.1,0.3,0.199,0.4,0.3l0.7,0.7L133.8,145.6L133.8,145.6z"/>
			</g>
			<g>
				<path fill="#00D9BF" d="M169.1,131.1L161.3,123.3c-0.699-0.8-2.1-0.6-3.1,0.301l-0.1,0.1l-1.7,1.7L136.3,145.5l-1.399,1.4
					l0.1,0.1c-1,1-1.1,2.3-0.399,3.101l7.8,7.8c0.8,0.8,2.1,0.6,3.1-0.3l23.3-23.301C169.7,133.3,169.9,131.9,169.1,131.1z
					 M143.6,148.8l4.199-4.6"/>
				<path fill="#787878" d="M143.6,160L143.6,160c-0.9,0-1.801-0.3-2.4-1l-7.8-7.8c-0.7-0.7-1.101-1.7-0.9-2.8
					c0.101-1,0.601-1.9,1.3-2.601L157,122.6c1-1,2-1.4,3.2-1.4c0.9,0,1.8,0.4,2.4,1l7.699,7.8c0.601,0.601,1,1.5,1,2.4
					c0,1.1-0.5,2.2-1.3,3l-23.3,23.3C145.8,159.5,144.7,160,143.6,160L143.6,160z M160.2,124.5c-0.1,0-0.4,0.101-0.7,0.4l-23.3,23.2
					c-0.4,0.399-0.4,0.8-0.4,0.899l7.7,7.7c0.101,0,0.4,0,0.8-0.3l23.301-23.3c0.3-0.301,0.399-0.7,0.3-0.801L160.2,124.5
					L160.2,124.5L160.2,124.5z M143.6,150.4c-0.4,0-0.801-0.101-1.101-0.4c-0.7-0.6-0.7-1.6-0.1-2.3l4.2-4.6
					c0.6-0.7,1.6-0.7,2.3-0.101c0.7,0.601,0.7,1.601,0.1,2.3l-4.2,4.601C144.5,150.2,144.1,150.4,143.6,150.4L143.6,150.4z"/>
			</g>
			<g>
				<path fill="#FFFFFF" d="M110,103.9c0,1.399-0.3,2.7-0.8,3.8s-1.2,2-2.2,2.7c-0.899,0.7-2,1.3-3.2,1.7
					c-1.199,0.399-2.6,0.6-4,0.699v5.7H97.1v-5.7c-1.5-0.1-2.7-0.3-3.9-0.699c-1.1-0.4-2.1-0.9-2.9-1.5c-0.8-0.601-1.5-1.301-2.1-2
					c-0.6-0.7-1.1-1.4-1.5-2.101l2.8-1.6c0.3,0.6,0.601,1.1,1.101,1.7c0.399,0.6,1,1.1,1.6,1.6s1.3,0.9,2.1,1.2
					c0.801,0.3,1.801,0.6,2.801,0.7V97.3C95.3,96.9,93.8,96.5,92.6,96c-1.2-0.5-2.2-1.1-3-1.8c-0.801-0.7-1.301-1.5-1.7-2.4
					c-0.3-0.899-0.5-1.899-0.5-3c0-1.1,0.2-2.1,0.6-3.1c0.4-1,0.9-1.9,1.7-2.7s1.8-1.399,3-1.899s2.7-0.801,4.4-0.801v-2.8H99.8v2.8
					c1.301,0.101,2.4,0.301,3.4,0.601s1.9,0.7,2.7,1.2s1.5,1.1,2.1,1.8c0.601,0.7,1.2,1.5,1.7,2.399l-2.9,1.601
					c-0.3-0.7-0.699-1.3-1.199-1.8c-0.4-0.5-0.9-1-1.5-1.5c-0.601-0.4-1.2-0.801-2-1c-0.7-0.301-1.601-0.4-2.5-0.5v11.6
					C101,95,102.3,95.4,103.5,95.8c1.2,0.4,2.3,1,3.2,1.7s1.6,1.601,2.2,2.601C109.7,101.1,110,102.4,110,103.9z M97.2,83.1
					c-1.2,0.1-2.1,0.3-2.9,0.6C93.5,84,92.9,84.4,92.4,84.9S91.6,86,91.3,86.6C91.1,87.3,91,88,91,88.8c0,0.801,0.2,1.601,0.5,2.101
					c0.4,0.6,0.8,1.1,1.4,1.5c0.6,0.399,1.2,0.7,2,1c0.7,0.3,1.5,0.5,2.3,0.7V83.1z M106.6,103.9c0-1.601-0.5-2.8-1.601-3.8
					c-1.1-1-2.8-1.7-5.1-2.301v12c0.8-0.1,1.7-0.199,2.5-0.5c0.8-0.199,1.5-0.6,2.1-1.1c0.601-0.5,1.101-1.1,1.5-1.8
					C106.4,105.8,106.6,104.9,106.6,103.9z"/>
			</g>
		</g>
		<g enable-background="new    ">
			<path fill="#FFFFFF" d="M116.348,215.191v-14.5h-5.25v-2.969c1.5-0.094,2.633-0.273,3.398-0.539s1.375-0.68,1.828-1.242
				s0.81-1.354,1.07-2.375h3.359v21.625H116.348z"/>
		</g>
	</g>
</g>
</svg>
