<?xml version="1.0" encoding="utf-8"?>
<!-- Generator: Adobe Illustrator 16.0.4, SVG Export Plug-In . SVG Version: 6.00 Build 0)  -->
<!DOCTYPE svg PUBLIC "-//W3C//DTD SVG 1.1//EN" "http://www.w3.org/Graphics/SVG/1.1/DTD/svg11.dtd">
<svg version="1.1" xmlns="http://www.w3.org/2000/svg" xmlns:xlink="http://www.w3.org/1999/xlink" x="0px" y="0px" width="591.4px"
	 height="591.4px" viewBox="0 0 591.4 591.4" enable-background="new 0 0 591.4 591.4" xml:space="preserve">
<g id="Layer_2">
</g>
<g id="Layer_1">
	<g>
		<g opacity="0.2">
			<path fill="#FFFFFF" d="M295.7,18.2c37.5,0,73.8,7.3,108,21.8c33,14,62.7,34,88.2,59.5c25.5,25.5,45.5,55.2,59.5,88.2
				c14.5,34.2,21.8,70.5,21.8,108s-7.3,73.8-21.8,108c-14,33-34,62.7-59.5,88.2c-25.5,25.5-55.2,45.5-88.2,59.5
				c-34.2,14.5-70.5,21.8-108,21.8s-73.8-7.3-108-21.8c-33-14-62.7-34-88.2-59.5C74,466.4,54,436.7,40,403.7
				c-14.5-34.2-21.8-70.5-21.8-108s7.3-73.8,21.8-108c14-33,34-62.7,59.5-88.2C125,74,154.7,54,187.7,40
				C221.9,25.6,258.2,18.2,295.7,18.2 M295.7,0C132.4,0,0,132.4,0,295.7s132.4,295.7,295.7,295.7c163.3,0,295.7-132.4,295.7-295.7
				S459,0,295.7,0L295.7,0z"/>
		</g>
		<g opacity="0.6">
			<g>
				
					<path fill="none" stroke="#FFFFFF" stroke-width="9.1094" stroke-linecap="round" stroke-linejoin="round" stroke-miterlimit="10" d="
					M388.7,149.1c0,51.4-41.6,93-93,93c-51.4,0-93-41.6-93-93"/>
				
					<path fill="none" stroke="#FFFFFF" stroke-width="9.1094" stroke-linecap="round" stroke-linejoin="round" stroke-miterlimit="10" d="
					M481.7,242.1c-51.4,0-93-41.6-93-93"/>
				
					<path fill="none" stroke="#FFFFFF" stroke-width="9.1094" stroke-linecap="round" stroke-linejoin="round" stroke-miterlimit="10" d="
					M202.7,149.1c0,51.4-41.6,93-93,93"/>
				
					<line fill="none" stroke="#FFFFFF" stroke-width="9.1094" stroke-linecap="round" stroke-linejoin="round" stroke-miterlimit="10" x1="202.7" y1="312.4" x2="202.7" y2="161.2"/>
				
					<line fill="none" stroke="#FFFFFF" stroke-width="9.1094" stroke-linecap="round" stroke-linejoin="round" stroke-miterlimit="10" x1="264.7" y1="312.4" x2="264.7" y2="237.4"/>
				
					<line fill="none" stroke="#FFFFFF" stroke-width="9.1094" stroke-linecap="round" stroke-linejoin="round" stroke-miterlimit="10" x1="326.7" y1="312.4" x2="326.7" y2="237.4"/>
				
					<line fill="none" stroke="#FFFFFF" stroke-width="9.1094" stroke-linecap="round" stroke-linejoin="round" stroke-miterlimit="10" x1="140.7" y1="312.4" x2="140.7" y2="237.7"/>
				
					<line fill="none" stroke="#FFFFFF" stroke-width="9.1094" stroke-linecap="round" stroke-linejoin="round" stroke-miterlimit="10" x1="388.7" y1="312.4" x2="388.7" y2="161.2"/>
				
					<line fill="none" stroke="#FFFFFF" stroke-width="9.1094" stroke-linecap="round" stroke-linejoin="round" stroke-miterlimit="10" x1="450.7" y1="312.4" x2="450.7" y2="237.7"/>
				
					<rect x="109.7" y="312.4" fill="none" stroke="#FFFFFF" stroke-width="9.1094" stroke-linecap="round" stroke-linejoin="round" stroke-miterlimit="10" width="372" height="34.5"/>
				
					<rect x="185.7" y="346.9" fill="none" stroke="#FFFFFF" stroke-width="9.1094" stroke-linecap="round" stroke-linejoin="round" stroke-miterlimit="10" width="34" height="56"/>
				
					<rect x="371.7" y="346.9" fill="none" stroke="#FFFFFF" stroke-width="9.1094" stroke-linecap="round" stroke-linejoin="round" stroke-miterlimit="10" width="34" height="56"/>
			</g>
			
				<line fill="#00D9BF" stroke="#FFFFFF" stroke-width="9.1094" stroke-linecap="round" stroke-linejoin="round" stroke-miterlimit="10" x1="156.2" y1="402.9" x2="245.1" y2="402.9"/>
			
				<line fill="#00D9BF" stroke="#FFFFFF" stroke-width="9.1094" stroke-linecap="round" stroke-linejoin="round" stroke-miterlimit="10" x1="172.5" y1="422" x2="228.8" y2="422"/>
			
				<line fill="#00D9BF" stroke="#FFFFFF" stroke-width="9.1094" stroke-linecap="round" stroke-linejoin="round" stroke-miterlimit="10" x1="190.2" y1="442.2" x2="211.1" y2="442.2"/>
			
				<line fill="#00D9BF" stroke="#FFFFFF" stroke-width="9.1094" stroke-linecap="round" stroke-linejoin="round" stroke-miterlimit="10" x1="344.2" y1="402.9" x2="433.2" y2="402.9"/>
			
				<line fill="#00D9BF" stroke="#FFFFFF" stroke-width="9.1094" stroke-linecap="round" stroke-linejoin="round" stroke-miterlimit="10" x1="360.5" y1="422" x2="416.9" y2="422"/>
			
				<line fill="#00D9BF" stroke="#FFFFFF" stroke-width="9.1094" stroke-linecap="round" stroke-linejoin="round" stroke-miterlimit="10" x1="378.3" y1="442.2" x2="399.1" y2="442.2"/>
		</g>
	</g>
</g>
</svg>
