<?xml version="1.0" encoding="utf-8"?>
<!-- Generator: Adobe Illustrator 16.0.4, SVG Export Plug-In . SVG Version: 6.00 Build 0)  -->
<!DOCTYPE svg PUBLIC "-//W3C//DTD SVG 1.1//EN" "http://www.w3.org/Graphics/SVG/1.1/DTD/svg11.dtd">
<svg version="1.1" xmlns="http://www.w3.org/2000/svg" xmlns:xlink="http://www.w3.org/1999/xlink" x="0px" y="0px" width="234.4px"
	 height="234.4px" viewBox="0 0 234.4 234.4" enable-background="new 0 0 234.4 234.4" xml:space="preserve">
<g id="Layer_2">
</g>
<g id="Layer_1">
	<g>
		<g>
			<path fill="#EEEEEE" d="M117.2,22.2c52.4,0,95,42.6,95,95s-42.6,95-95,95s-95-42.6-95-95S64.8,22.2,117.2,22.2 M117.2,14.2
				c-56.9,0-103,46.1-103,103c0,56.9,46.1,103,103,103c56.9,0,103-46.1,103-103C220.2,60.3,174.1,14.2,117.2,14.2L117.2,14.2z"/>
		</g>
		<g id="bank_2_">
			<g>
				<path fill="#787878" d="M160.4,154v-6.6H155V89.5h5.4V75.7l-41.2-17.4L78.3,75.7v13.8h4.9v57.9h-4.9v6.6h-4.6v8.8h91.5V154
					H160.4z M157.7,154H81.1v-3.8H86V86.7h-4.9v-9.2l38.2-16.2l38.4,16.2v9.2h-5.4v63.4h5.4V154z"/>
				<path fill="#787878" d="M92.6,104.8h13.3V86.7H92.6V104.8z M95.4,89.5h7.8V102h-7.8V89.5z"/>
				<path fill="#787878" d="M92.6,127.1h13.3v-18.1H92.6V127.1z M95.4,111.9h7.8v12.5h-7.8V111.9z"/>
				<path fill="#787878" d="M92.6,149.5h13.3v-18.1H92.6V149.5z M95.4,134.2h7.8v12.5h-7.8V134.2z"/>
				<path fill="#787878" d="M112.5,104.8h13.3V86.7h-13.3V104.8z M115.2,89.5h7.8V102h-7.8V89.5z"/>
				<path fill="#787878" d="M112.5,127.1h13.3v-18.1h-13.3V127.1z M115.2,111.9h7.8v12.5h-7.8V111.9z"/>
				<path fill="#787878" d="M112.5,149.5h13.3v-18.1h-13.3V149.5z M115.2,134.2h7.8v12.5h-7.8V134.2z"/>
				<path fill="#787878" d="M132.4,104.8h13.3V86.7h-13.3V104.8z M135.1,89.5h7.8V102h-7.8V89.5z"/>
				<path fill="#787878" d="M132.4,127.1h13.3v-18.1h-13.3V127.1z M135.1,111.9h7.8v12.5h-7.8V111.9z"/>
				<path fill="#787878" d="M132.4,149.5h13.3v-18.1h-13.3V149.5z M135.1,134.2h7.8v12.5h-7.8V134.2z"/>
			</g>
			<g>
				<g>
					<path fill="#23C0FF" d="M124.4,70.3c2.8,2.8,2.8,7.2,0,10c-2.8,2.8-7.2,2.7-10,0"/>
				</g>
				<g>
					<path fill="#787878" d="M119.4,83.7c-4.7,0-8.4-3.8-8.4-8.4c0-4.7,3.8-8.4,8.4-8.4c4.7,0,8.4,3.8,8.4,8.4
						C127.8,79.9,124,83.7,119.4,83.7L119.4,83.7z M119.4,69.6c-3.1,0-5.7,2.5-5.7,5.7c0,3.1,2.5,5.7,5.7,5.7c3.1,0,5.7-2.5,5.7-5.7
						C125.1,72.1,122.5,69.6,119.4,69.6L119.4,69.6z"/>
				</g>
			</g>
			<g>
				<polygon fill="#00D9BF" points="162.5,160 76.5,160 76.5,156.8 81.1,156.8 81.1,156.7 157.7,156.7 157.7,156.8 162.5,156.8 				
					"/>
			</g>
		</g>
	</g>
</g>
</svg>
