<?xml version="1.0" encoding="utf-8"?>
<!-- Generator: Adobe Illustrator 16.0.4, SVG Export Plug-In . SVG Version: 6.00 Build 0)  -->
<!DOCTYPE svg PUBLIC "-//W3C//DTD SVG 1.1//EN" "http://www.w3.org/Graphics/SVG/1.1/DTD/svg11.dtd">
<svg version="1.1" xmlns="http://www.w3.org/2000/svg" xmlns:xlink="http://www.w3.org/1999/xlink" x="0px" y="0px" width="130.4px"
	 height="130.2px" viewBox="0 0 130.4 130.2" enable-background="new 0 0 130.4 130.2" xml:space="preserve">
<g id="Layer_2">
</g>
<g id="Layer_1">
	<g>
		<circle fill="#00D9BF" cx="65.2" cy="65.1" r="62.6"/>
		<path fill="#FFFFFF" d="M68.4,76.5C68,76.2,67.6,76,67,75.8c-0.5-0.2-1-0.3-1.5-0.4v-4.3c0.3,0,0.5,0.1,0.7,0.2
			c0.3,0.1,0.5,0.2,0.7,0.4c0.2,0.2,0.4,0.3,0.6,0.6c0.2,0.2,0.3,0.4,0.4,0.7l0.1,0.2l1.6-0.9L69.7,72c-0.2-0.4-0.5-0.7-0.7-1
			c-0.3-0.3-0.6-0.6-0.9-0.8c-0.4-0.2-0.8-0.4-1.2-0.5c-0.4-0.1-0.8-0.2-1.2-0.2v-1.2H64v1.1c-0.6,0-1.2,0.2-1.6,0.3
			c-0.5,0.2-1,0.5-1.3,0.8c-0.3,0.3-0.6,0.7-0.8,1.2c-0.2,0.4-0.2,0.9-0.2,1.4c0,0.5,0.1,0.9,0.2,1.3c0.2,0.4,0.4,0.8,0.8,1.1
			c0.3,0.3,0.8,0.6,1.3,0.8c0.5,0.2,1,0.4,1.7,0.5v4.7c-0.3,0-0.6-0.1-0.8-0.2c-0.3-0.1-0.6-0.3-0.8-0.5c-0.2-0.2-0.4-0.4-0.6-0.6
			c-0.2-0.2-0.3-0.4-0.4-0.7l-0.1-0.2l-1.6,0.9l0.1,0.2c0.2,0.3,0.4,0.6,0.6,0.9c0.3,0.3,0.6,0.6,0.9,0.9c0.4,0.3,0.8,0.5,1.3,0.7
			c0.4,0.2,0.9,0.3,1.4,0.3v2.4h1.6v-2.4c0.5,0,1-0.1,1.5-0.3c0.5-0.2,1-0.4,1.4-0.7c0.4-0.3,0.7-0.7,1-1.2c0.2-0.5,0.4-1,0.4-1.7
			c0-0.7-0.1-1.2-0.4-1.7C69.2,77.3,68.9,76.9,68.4,76.5z M67.9,79.4c0,0.4-0.1,0.7-0.2,1c-0.1,0.3-0.3,0.5-0.6,0.7
			c-0.2,0.2-0.5,0.3-0.8,0.4c-0.2,0.1-0.5,0.1-0.7,0.2v-4.4c0.8,0.2,1.3,0.5,1.7,0.8C67.7,78.4,67.9,78.8,67.9,79.4z M63.4,74.8
			c-0.3-0.1-0.5-0.2-0.8-0.4c-0.2-0.1-0.4-0.3-0.5-0.5c-0.1-0.2-0.2-0.5-0.2-0.8c0-0.3,0-0.6,0.1-0.8c0.1-0.2,0.2-0.4,0.4-0.6
			c0.2-0.2,0.4-0.3,0.7-0.4c0.2-0.1,0.5-0.2,0.9-0.2V75C63.8,74.9,63.6,74.9,63.4,74.8z"/>
		<g>
			<path fill="#FFFFFF" d="M86.9,55.6v-5.7c0-12.2-9.9-22.2-22.2-22.2c-12.2,0-22.2,9.9-22.2,22.2v5.7h-6.4v41.9h58.2V55.6H86.9z
				 M46.3,49.8c0-10.1,8.2-18.4,18.4-18.4c10.1,0,18.4,8.2,18.4,18.4v5.7h-1.1v-5.4c0-9.6-7.7-17.5-17.2-17.5
				c-9.5,0-17.2,7.8-17.2,17.5v5.4h-1.2V49.8z M51.3,50.2c0-7.5,6-13.7,13.4-13.7s13.4,6.1,13.4,13.7v5.4H51.3V50.2z M90.5,93.6
				H39.9V59.3h50.6V93.6z"/>
			<path fill="#FFFFFF" d="M64.7,91.6c8.3,0,15-6.7,15-15c0-8.3-6.7-15-15-15s-15,6.7-15,15C49.7,84.9,56.4,91.6,64.7,91.6z
				 M64.7,65.4c6.2,0,11.2,5,11.2,11.2c0,6.2-5,11.2-11.2,11.2s-11.2-5-11.2-11.2C53.5,70.5,58.5,65.4,64.7,65.4z"/>
		</g>
	</g>
</g>
</svg>
