<?xml version="1.0" encoding="utf-8"?>
<!-- Generator: Adobe Illustrator 16.0.4, SVG Export Plug-In . SVG Version: 6.00 Build 0)  -->
<!DOCTYPE svg PUBLIC "-//W3C//DTD SVG 1.1//EN" "http://www.w3.org/Graphics/SVG/1.1/DTD/svg11.dtd">
<svg version="1.1" xmlns="http://www.w3.org/2000/svg" xmlns:xlink="http://www.w3.org/1999/xlink" x="0px" y="0px" width="34px"
	 height="34px" viewBox="0 0 34 34" enable-background="new 0 0 34 34" xml:space="preserve">
<g id="Layer_2">
</g>
<g id="Layer_1">
	<path fill="#0E9AF0" d="M17,0.3C7.8,0.3,0.3,7.8,0.3,17S7.8,33.7,17,33.7S33.7,26.2,33.7,17S26.2,0.3,17,0.3z M28.9,10.1h-5.2
		c-0.7-2.3-1.7-4.4-3-6.3C24.2,4.7,27.1,7,28.9,10.1z M30.8,17c0,1.3-0.2,2.5-0.5,3.6h-5.8c0.2-1.2,0.3-2.4,0.3-3.6
		s-0.1-2.5-0.3-3.6h5.8C30.6,14.5,30.8,15.7,30.8,17z M12.9,20.6c-0.2-1.2-0.3-2.4-0.3-3.6s0.1-2.5,0.3-3.6h8.2
		c0.2,1.2,0.3,2.4,0.3,3.6s-0.1,2.5-0.3,3.6H12.9z M20.3,23.9c-0.8,2.2-1.9,4.2-3.3,5.8c-1.4-1.7-2.5-3.7-3.3-5.8H20.3z M3.2,17
		c0-1.3,0.2-2.5,0.5-3.6h5.8c-0.2,1.2-0.3,2.4-0.3,3.6s0.1,2.5,0.3,3.6H3.7C3.4,19.5,3.2,18.3,3.2,17z M13.7,10.1
		c0.8-2.2,1.9-4.2,3.3-5.8c1.4,1.7,2.5,3.7,3.3,5.8H13.7z M13.2,3.7c-1.3,1.9-2.3,4-3,6.3H5.1C6.9,7,9.8,4.7,13.2,3.7z M5.1,23.9
		h5.2c0.7,2.3,1.7,4.4,3,6.3C9.8,29.3,6.9,27,5.1,23.9z M20.8,30.3c1.3-1.9,2.3-4,3-6.3h5.2C27.1,27,24.2,29.3,20.8,30.3z"/>
</g>
</svg>
