<?xml version="1.0" encoding="utf-8"?>
<!-- Generator: Adobe Illustrator 16.0.4, SVG Export Plug-In . SVG Version: 6.00 Build 0)  -->
<!DOCTYPE svg PUBLIC "-//W3C//DTD SVG 1.1//EN" "http://www.w3.org/Graphics/SVG/1.1/DTD/svg11.dtd">
<svg version="1.1" xmlns="http://www.w3.org/2000/svg" xmlns:xlink="http://www.w3.org/1999/xlink" x="0px" y="0px" width="234.4px"
	 height="234.4px" viewBox="0 0 234.4 234.4" enable-background="new 0 0 234.4 234.4" xml:space="preserve">
<g id="Layer_2">
</g>
<g id="Layer_1">
	<g>
		<g>
			<path fill="#EEEEEE" d="M117.9,22.2c52.4,0,95,42.6,95,95s-42.6,95-95,95s-95-42.6-95-95S65.5,22.2,117.9,22.2 M117.9,14.2
				c-56.9,0-103,46.1-103,103c0,56.9,46.1,103,103,103c56.9,0,103-46.1,103-103C220.9,60.3,174.8,14.2,117.9,14.2L117.9,14.2z"/>
		</g>
		<g>
			<path fill="#EEEEEE" d="M116.5,22.2c52.4,0,95,42.6,95,95s-42.6,95-95,95s-95-42.6-95-95S64.2,22.2,116.5,22.2 M116.5,14.2
				c-56.9,0-103,46.1-103,103c0,56.9,46.1,103,103,103s103-46.1,103-103C219.5,60.3,173.4,14.2,116.5,14.2L116.5,14.2z"/>
		</g>
		<g>
			<path fill="#00D9BF" d="M79.1,71.5v99.3h74.5V71.5H79.1z M142.1,156H90.6V82.2h51.5V156z"/>
			<polygon fill="#EFEFF0" points="89,157.6 143.7,80.6 143.7,80.6 143.7,157.6 			"/>
			<g>
				<path fill="#787878" d="M77.6,70v102.4h77.6V70H77.6z M152.1,169.3H80.6V73h71.4V169.3z"/>
				<path fill="#787878" d="M145.2,79.1H87.5v80.1h57.7V79.1z M142.1,156H90.6V82.2h51.5V156z"/>
				<rect x="110.7" y="162.9" fill="#787878" width="11.3" height="3.1"/>
				<rect x="114.8" y="74.7" fill="#787878" width="3.1" height="2.5"/>
				<path fill="#787878" d="M109.2,65.9l2,2c1.5-1,3.3-1.5,5.2-1.5c1.9,0,3.7,0.6,5.1,1.5l2-2c-2-1.4-4.5-2.3-7.1-2.3
					C113.7,63.5,111.2,64.4,109.2,65.9z"/>
				<path fill="#787878" d="M116.4,56.5c4.6,0,8.8,1.6,12.2,4.3l2-2c-3.8-3.2-8.8-5.1-14.2-5.1c-5.4,0-10.3,1.9-14.2,5.1l2,2
					C107.5,58.1,111.7,56.5,116.4,56.5z"/>
				<path fill="#787878" d="M127,62.3c-2.9-2.3-6.7-3.7-10.7-3.7c-4,0-7.8,1.4-10.7,3.7l2,2c2.4-1.8,5.4-3,8.7-3
					c3.3,0,6.2,1.1,8.7,2.9L127,62.3z"/>
				<path fill="#787878" d="M113,128.6c-0.7-0.3-1.3-0.6-1.8-1c-0.5-0.4-1-0.8-1.3-1.3c-0.4-0.5-0.7-1-0.9-1.4l-2.4,1.4
					c0.4,0.6,0.8,1.2,1.3,1.8c0.5,0.6,1.1,1.2,1.8,1.7c0.7,0.5,1.5,0.9,2.5,1.3c0.9,0.4,2,0.6,3.3,0.6v4.8h2.3v-4.8
					c1.2-0.1,2.3-0.3,3.4-0.6c1-0.3,1.9-0.8,2.7-1.4c0.8-0.6,1.4-1.4,1.8-2.3c0.4-0.9,0.7-2,0.7-3.2c0-1.3-0.2-2.3-0.7-3.2
					c-0.5-0.9-1.1-1.6-1.8-2.2c-0.8-0.6-1.7-1.1-2.7-1.5c-1-0.4-2.1-0.7-3.3-1v-9.8c0.8,0.1,1.5,0.2,2.1,0.4
					c0.6,0.2,1.2,0.5,1.7,0.9c0.5,0.4,0.9,0.8,1.3,1.2c0.4,0.5,0.7,1,1,1.5l2.4-1.3c-0.4-0.8-0.9-1.4-1.4-2
					c-0.5-0.6-1.1-1.1-1.8-1.6c-0.7-0.4-1.4-0.8-2.3-1s-1.8-0.4-2.9-0.5v-2.3h-2.3v2.3c-1.4,0.1-2.7,0.3-3.7,0.7
					c-1,0.4-1.9,0.9-2.5,1.6c-0.7,0.7-1.2,1.4-1.5,2.2c-0.3,0.8-0.5,1.7-0.5,2.6s0.1,1.8,0.4,2.5c0.3,0.7,0.8,1.4,1.4,2
					c0.6,0.6,1.5,1.1,2.5,1.5c1,0.4,2.3,0.8,3.8,1.1v10.6C114.4,129.1,113.6,128.9,113,128.6z M117.6,119c2,0.5,3.4,1.1,4.3,1.9
					c0.9,0.8,1.4,1.9,1.4,3.2c0,0.9-0.2,1.6-0.5,2.2c-0.3,0.6-0.8,1.1-1.3,1.5c-0.5,0.4-1.1,0.7-1.8,0.9c-0.7,0.2-1.4,0.3-2.1,0.4
					V119z M113.4,115.2c-0.6-0.2-1.2-0.5-1.7-0.8c-0.5-0.3-0.9-0.8-1.2-1.3c-0.3-0.5-0.4-1.1-0.4-1.8c0-0.7,0.1-1.3,0.3-1.8
					c0.2-0.6,0.5-1,0.9-1.5c0.4-0.4,1-0.7,1.6-1c0.7-0.3,1.5-0.4,2.5-0.5v9.3C114.7,115.6,114,115.4,113.4,115.2z"/>
			</g>
		</g>
	</g>
</g>
</svg>
