<?xml version="1.0" encoding="utf-8"?>
<!-- Generator: Adobe Illustrator 16.0.4, SVG Export Plug-In . SVG Version: 6.00 Build 0)  -->
<!DOCTYPE svg PUBLIC "-//W3C//DTD SVG 1.1//EN" "http://www.w3.org/Graphics/SVG/1.1/DTD/svg11.dtd">
<svg version="1.1" xmlns="http://www.w3.org/2000/svg" xmlns:xlink="http://www.w3.org/1999/xlink" x="0px" y="0px" width="45px"
	 height="45px" viewBox="0 0 45 45" enable-background="new 0 0 45 45" xml:space="preserve">
<g id="Layer_2">
</g>
<g id="Layer_1">
	<path fill="#FFFFFF" d="M37.8,5.4H7.2c-2.6,0-4.7,2.1-4.7,4.7v24.8c0,2.6,2.1,4.7,4.7,4.7h30.5c2.6,0,4.7-2.1,4.7-4.7V10.1
		C42.4,7.5,40.3,5.4,37.8,5.4z M38.4,7.2L23,23L7.5,7.2h30.2C38,7.2,38.2,7.2,38.4,7.2z M40.7,34.9c0,1.6-1.3,3-2.9,3H7.2
		c-1.6,0-2.9-1.3-2.9-3V10.1c0-1,0.5-1.8,1.2-2.3l17.5,18L40,8.2c0.4,0.5,0.7,1.2,0.7,1.9V34.9z"/>
</g>
</svg>
