<?xml version="1.0" encoding="utf-8"?>
<!-- Generator: Adobe Illustrator 16.0.4, SVG Export Plug-In . SVG Version: 6.00 Build 0)  -->
<!DOCTYPE svg PUBLIC "-//W3C//DTD SVG 1.1//EN" "http://www.w3.org/Graphics/SVG/1.1/DTD/svg11.dtd">
<svg version="1.1" xmlns="http://www.w3.org/2000/svg" xmlns:xlink="http://www.w3.org/1999/xlink" x="0px" y="0px" width="34px"
	 height="34px" viewBox="0 0 34 34" enable-background="new 0 0 34 34" xml:space="preserve">
<g id="Layer_2">
</g>
<g id="Layer_1">
	<path fill="#05B9D3" d="M19.7,32.5v-3.7c3.4-0.6,6-2.6,6-6.1c0-4.9-4.2-6.6-8.1-7.6c-3.9-1-5.2-2.1-5.2-3.7c0-1.9,1.7-3.2,4.6-3.2
		c3.1,0,4.2,1.5,4.3,3.6h3.8c-0.1-3-1.9-5.7-5.5-6.6V1.5h-5.2v3.7c-3.3,0.7-6,2.9-6,6.2c0,4,3.3,5.9,8.1,7.1c4.3,1,5.2,2.5,5.2,4.1
		c0,1.2-0.8,3.1-4.6,3.1c-3.5,0-4.9-1.6-5.1-3.6H8.2c0.2,3.8,3,5.9,6.3,6.6v3.7H19.7z"/>
</g>
</svg>
