<?xml version="1.0" encoding="utf-8"?>
<!-- Generator: Adobe Illustrator 16.0.4, SVG Export Plug-In . SVG Version: 6.00 Build 0)  -->
<!DOCTYPE svg PUBLIC "-//W3C//DTD SVG 1.1//EN" "http://www.w3.org/Graphics/SVG/1.1/DTD/svg11.dtd">
<svg version="1.1" xmlns="http://www.w3.org/2000/svg" xmlns:xlink="http://www.w3.org/1999/xlink" x="0px" y="0px" width="72.8px"
	 height="72.8px" viewBox="0 0 72.8 72.8" enable-background="new 0 0 72.8 72.8" xml:space="preserve">
<g id="Layer_2">
</g>
<g id="Layer_1">
	<path fill="#FFFFFF" d="M36.2,0C16.2,0,0,16.2,0,36.2c0,20,16.2,36.2,36.2,36.2c20,0,36.2-16.2,36.2-36.2C72.4,16.2,56.2,0,36.2,0z
		 M45,36.4h-6.4c0,10.2,0,22.8,0,22.8h-9.5c0,0,0-12.4,0-22.8h-4.5v-8h4.5v-5.2c0-3.7,1.8-9.5,9.5-9.5l7,0v7.8c0,0-4.3,0-5.1,0
		c-0.8,0-2,0.4-2,2.2v4.7h7.2L45,36.4z"/>
</g>
</svg>
