<?xml version="1.0" encoding="utf-8"?>
<!-- Generator: Adobe Illustrator 16.0.4, SVG Export Plug-In . SVG Version: 6.00 Build 0)  -->
<!DOCTYPE svg PUBLIC "-//W3C//DTD SVG 1.1//EN" "http://www.w3.org/Graphics/SVG/1.1/DTD/svg11.dtd">
<svg version="1.1" xmlns="http://www.w3.org/2000/svg" xmlns:xlink="http://www.w3.org/1999/xlink" x="0px" y="0px" width="34px"
	 height="34px" viewBox="0 0 34 34" enable-background="new 0 0 34 34" xml:space="preserve">
<g id="Layer_2">
</g>
<g id="Layer_1">
	<path fill="#177DF1" d="M24.4,17c2.3,0,4.1-1.8,4.1-4.1c0-2.3-1.8-4.1-4.1-4.1c-2.3,0-4.1,1.8-4.1,4.1C20.3,15.2,22.1,17,24.4,17z
		 M12,15.3c2.7,0,4.9-2.2,4.9-5S14.8,5.5,12,5.5s-4.9,2.2-4.9,4.9S9.3,15.3,12,15.3z M24.4,20.3c-3,0-9.1,1.5-9.1,4.5v3.7h18.2v-3.7
		C33.5,21.8,27.4,20.3,24.4,20.3z M12,18.6c-3.8,0-11.5,1.9-11.5,5.8v4.1H12v-3.7c0-1.4,0.5-3.9,3.9-5.7
		C14.5,18.8,13.1,18.6,12,18.6z"/>
</g>
</svg>
