<?xml version="1.0" encoding="utf-8"?>
<!-- Generator: Adobe Illustrator 16.0.4, SVG Export Plug-In . SVG Version: 6.00 Build 0)  -->
<!DOCTYPE svg PUBLIC "-//W3C//DTD SVG 1.1//EN" "http://www.w3.org/Graphics/SVG/1.1/DTD/svg11.dtd">
<svg version="1.1" id="Layer_1" xmlns="http://www.w3.org/2000/svg" xmlns:xlink="http://www.w3.org/1999/xlink" x="0px" y="0px"
	 width="234.4px" height="234.4px" viewBox="0 0 234.4 234.4" enable-background="new 0 0 234.4 234.4" xml:space="preserve">
<g id="Layer_2">
</g>
<g id="Layer_1_1_">
	<g>
		<g>
			<path fill="#EEEEEE" d="M117.2,10.9c52.4,0,95,42.6,95,95c0,52.399-42.6,95-95,95s-95-42.601-95-95
				C22.2,53.5,64.8,10.9,117.2,10.9 M117.2,2.9c-56.9,0-103,46.1-103,103c0,56.899,46.1,103,103,103s103-46.101,103-103
				C220.2,49,174.1,2.9,117.2,2.9L117.2,2.9z"/>
		</g>
		<circle fill="#00D9BF" cx="117.2" cy="203.7" r="27.9"/>
		<g>
			<g>
				<g id="wallet_4_">
					<g>
						<polyline fill="#23C0FF" points="164.5,134.6 164.5,150.2 98.9,150.3 98.8,100.4 164.5,100.3 164.5,115.9 						"/>
						<g>
							<path fill="#787878" d="M98.9,151.8c-0.8,0-1.4-0.6-1.4-1.399l-0.1-49.9c0-0.8,0.6-1.5,1.399-1.5l65.7-0.1
								c0.8,0,1.4,0.6,1.5,1.399V115.9c0,0.399-0.1,0.8-0.399,1c-0.301,0.3-0.601,0.399-1,0.399c-0.4,0-0.801-0.199-1-0.399
								c-0.301-0.3-0.4-0.601-0.4-1v-14.2l-62.8,0.1l0.1,47l62.8-0.1v-14.2c0-0.8,0.601-1.399,1.4-1.399s1.4,0.6,1.5,1.399V150.1
								c0,0.8-0.6,1.399-1.4,1.399L98.9,151.8L98.9,151.8z"/>
							<path fill="#787878" d="M164.5,151.3L98.8,151.4c-0.6,0-1-0.5-1-1l-0.1-49.9c0-0.6,0.5-1,1-1l65.7-0.1c0.6,0,1,0.5,1,1V116
								c0,0.601-0.5,1-1,1c-0.601,0-1-0.5-1-1v-14.6L99.8,101.5l0.101,47.8l63.6-0.1v-14.6c0-0.601,0.5-1,1-1c0.601,0,1,0.5,1,1
								v15.6C165.6,150.8,165.1,151.3,164.5,151.3L164.5,151.3z"/>
						</g>
					</g>
					<g>
						<polygon fill="#FFFFFF" points="160.4,146.1 102.1,146.2 102,104.5 160.4,104.4 160.4,115.9 158.7,115.9 158.7,106.1 
							103.7,106.2 103.8,144.6 158.8,144.5 158.7,135.3 160.4,135.3 						"/>
					</g>
					<g>
						<path fill="#23C0FF" d="M146.2,115.8c-5.3,0-9.5,4.301-9.5,9.601s4.3,9.5,9.6,9.5H167.4V115.8H146.2z"/>
						<g>
							<path fill="#787878" d="M146.2,136.3c-6,0-11-4.899-11-11c0-6.1,4.9-11,11-11h22.5v22H146.2z M146.2,117.2
								c-4.5,0-8.1,3.6-8.1,8.1s3.6,8.101,8.1,8.101h19.6v-16.2H146.2z"/>
							<path fill="#787878" d="M168.3,135.9h-22.1c-5.8,0-10.6-4.7-10.6-10.601c0-5.8,4.699-10.6,10.6-10.6h22.1V135.9L168.3,135.9z
								 M146.2,116.8c-4.7,0-8.5,3.801-8.5,8.5c0,4.7,3.8,8.5,8.5,8.5h20v-17H146.2L146.2,116.8z"/>
						</g>
					</g>
					<g>
						<path fill="#FFFFFF" d="M147.1,122.1c1.8,0,3.199,1.399,3.199,3.199c0,1.801-1.399,3.2-3.199,3.2c-1.801,0-3.2-1.399-3.2-3.2
							C143.9,123.6,145.3,122.1,147.1,122.1z"/>
						<g>
							<path fill="#787878" d="M147.1,129.9c-2.5,0-4.601-2.101-4.601-4.601s2.101-4.6,4.601-4.6c2.6,0,4.6,2.1,4.6,4.6
								C151.7,127.9,149.7,129.9,147.1,129.9L147.1,129.9z M147.1,123.6c-0.5,0-0.9,0.199-1.2,0.5c-0.3,0.3-0.5,0.8-0.5,1.199
								c0,1,0.8,1.7,1.7,1.7c1,0,1.699-0.8,1.699-1.7C148.8,124.4,148.1,123.6,147.1,123.6z"/>
							<path fill="#787878" d="M147.1,129.5c-2.301,0-4.2-1.899-4.2-4.2c0-2.3,1.899-4.199,4.2-4.199c2.3,0,4.199,1.899,4.199,4.199
								C151.3,127.6,149.4,129.5,147.1,129.5L147.1,129.5z M147.1,123.2c-1.2,0-2.101,1-2.101,2.1c0,1.2,1,2.101,2.101,2.101
								c1.199,0,2.1-1,2.1-2.101C149.2,124.1,148.3,123.2,147.1,123.2L147.1,123.2z"/>
						</g>
					</g>
				</g>
				<g id="amex-card_2_">
					<g>
						
							<rect x="67.301" y="96.701" transform="matrix(-1 -0.0047 0.0047 -1 199.5498 236.6682)" fill="#FFFFFF" width="65.501" height="42.8"/>
						<g>
							<path fill="#787878" d="M67.2,140.7c-0.4,0-0.7-0.2-1-0.4c-0.3-0.199-0.4-0.6-0.4-1L66,96.5c0-0.8,0.601-1.399,1.4-1.399
								l65.5,0.3c0.399,0,0.7,0.2,1,0.399c0.3,0.301,0.399,0.601,0.399,1L134.1,139.6c0,0.8-0.601,1.399-1.4,1.399L67.2,140.7z
								 M131.3,138.2l0.2-40l-62.7-0.3l-0.199,40L131.3,138.2z"/>
							<path fill="#787878" d="M132.7,140.7l-65.5-0.3c-0.6,0-1-0.5-1-1l0.2-42.8c0-0.601,0.5-1,1-1l65.5,0.3c0.6,0,1,0.5,1,1
								l-0.2,42.8C133.7,140.2,133.2,140.7,132.7,140.7L132.7,140.7z M68.2,138.3l63.5,0.301l0.2-40.801l-63.5-0.3L68.2,138.3
								L68.2,138.3z"/>
						</g>
					</g>
					
						<rect x="70.5" y="99.901" transform="matrix(-1 -0.0047 0.0047 -1 199.5477 236.6692)" fill="#00D9BF" width="59.101" height="36.4"/>
					<g>
						<path fill="#FFFFFF" d="M88.6,116.8c-0.101-0.399-0.4-0.6-0.801-0.6H86.4c-0.4,0-0.7,0.2-0.8,0.6L82.1,130
							c-0.101,0.4,0.1,0.8,0.6,0.8H84c0.3,0,0.5-0.1,0.601-0.399l0.899-3.7h3.2l1,3.7c0.1,0.3,0.3,0.399,0.6,0.399H91.6
							c0.5,0,0.699-0.3,0.6-0.8L88.6,116.8z M85.9,124.5l1.1-5.2l0,0h0.2l0,0l1,5.2H85.9z"/>
						<path fill="#FFFFFF" d="M109.6,116.3H106c-0.5,0-0.899,0.4-0.899,0.9L105,130.1c0,0.5,0.4,0.899,0.9,0.899h3.6
							c2.7,0,4.9-2,4.9-4.399v-5.7C114.5,118.3,112.3,116.3,109.6,116.3z M111.9,126.5c0,1.101-1.101,2-2.4,2H107.6V118.6h1.899
							c1.3,0,2.4,0.899,2.4,2V126.5z"/>
						<path fill="#FFFFFF" d="M121.1,116.1c-2.7,0-4.9,1.899-5,4.399v6.3c0,2.5,2.199,4.4,4.899,4.5c2.8,0,5-1.899,5-4.399v-6.3
							C126.1,118.1,123.9,116.1,121.1,116.1z M123.5,126.9c0,1.1-1.2,2-2.399,2c-1.301,0-2.4-0.9-2.4-2v-6.3c0-1.101,1.1-2,2.4-2
							c1.3,0,2.399,0.899,2.399,2V126.9z"/>
						<g>
							<g>
								<path fill="#FFFFFF" d="M74.4,116.2c-0.2,0-0.5,0.2-0.5,0.4v1.5c0,0.199,0.2,0.399,0.399,0.399h4.4v5.9h-3.2
									c0,1.7,1.4,2.2,3.101,2.3v0.1c0,1.801-0.9,1.801-4.301,1.801c-0.3,0-0.5,0.199-0.5,0.5v1.199c0,0.301,0.2,0.5,0.5,0.5h0.9
									c3.4,0,6-0.5,6-4.5v-10.1H74.4z M77.3,121.5c0-0.5-0.399-0.8-0.8-0.8c-0.5,0-0.8,0.4-0.8,0.8c0,0.5,0.4,0.8,0.8,0.8
									C76.9,122.3,77.3,121.9,77.3,121.5z"/>
							</g>
						</g>
						<path fill="#FFFFFF" d="M102.6,116.3h-1.7c-0.2,0-0.4,0.2-0.4,0.5v8.4l-4.5-8.9H94.6c-0.5,0-0.9,0.4-0.9,0.9l-0.1,13.3
							c0,0.3,0.199,0.5,0.399,0.5h1.7c0.2,0,0.4-0.2,0.4-0.5V122.1c1.5,3,3,5.8,4.5,8.899H102c0.5,0,0.9-0.399,0.9-0.899L103,116.8
							C103.1,116.5,102.9,116.3,102.6,116.3z"/>
					</g>
					
						<line fill="none" stroke="#FFFFFF" stroke-width="2.0134" stroke-linecap="round" stroke-linejoin="round" stroke-miterlimit="10" x1="113" y1="107.5" x2="124.4" y2="107.6"/>
					
						<rect x="74.801" y="104.801" transform="matrix(-1 -0.0047 0.0047 -1 158.5933 215.1772)" fill="#23C0FF" stroke="#FFFFFF" stroke-width="2.0134" stroke-linecap="round" stroke-linejoin="round" stroke-miterlimit="10" width="9.5" height="5.199"/>
				</g>
			</g>
			<g>
				<g>
					<polygon fill="#FFFFFF" points="130.1,86.2 148.8,86.2 148.8,53.1 85.7,53.1 85.7,86.2 119.1,86.2 119.1,101.4 					"/>
					<path fill="#787878" d="M117.7,87.6H84.3V51.7h65.9v35.9h-19.4L117.7,105.8V87.6z M120.6,84.7V97l8.8-12.2h18V54.6H87.1V84.8
						h33.5V84.7z"/>
					<path fill="#787878" d="M118.1,104.5V87.2H84.7v-35h65.1v35H130.6L118.1,104.5z M86.7,85.2h33.5v13.1l9.4-13.1H147.8v-31H86.7
						V85.2z"/>
				</g>
				<g>
					<path fill="#787878" d="M101.1,78.7c-0.801,0-1.601-0.1-2.301-0.3C98.1,78.2,97.6,78,97.1,77.7S96.2,77,95.8,76.6
						c-0.399-0.4-0.699-0.9-1-1.4L94.6,74.9l2.1-1.2l0.2,0.4c0.1,0.3,0.3,0.6,0.6,0.899c0.2,0.3,0.5,0.5,0.8,0.8
						C98.6,76,99,76.2,99.5,76.4c0.4,0.1,1,0.2,1.5,0.2s1-0.101,1.5-0.2c0.4-0.101,0.8-0.3,1.2-0.5c0.3-0.2,0.6-0.5,0.7-0.8
						c0.2-0.301,0.3-0.7,0.3-1.2c0-0.4-0.1-0.8-0.2-1.101c-0.1-0.3-0.3-0.5-0.6-0.8c-0.3-0.2-0.7-0.399-1.2-0.6s-1.1-0.4-1.8-0.5
						c-0.9-0.2-1.8-0.5-2.4-0.7c-0.7-0.2-1.3-0.5-1.8-0.9c-0.5-0.399-0.9-0.8-1.1-1.3c-0.2-0.5-0.4-1.2-0.4-1.899
						c0-0.7,0.1-1.4,0.4-2C95.8,63.5,96.2,63,96.7,62.5c0.5-0.399,1.1-0.8,1.8-1s1.5-0.3,2.5-0.3c0.7,0,1.3,0.1,1.9,0.2
						c0.6,0.1,1.1,0.399,1.6,0.6c0.5,0.3,0.9,0.601,1.3,1c0.4,0.4,0.7,0.8,1,1.3L107,64.6l-2,1.3l-0.2-0.4
						c-0.199-0.3-0.399-0.6-0.6-0.899c-0.2-0.301-0.5-0.5-0.8-0.7s-0.601-0.3-1-0.4c-0.4-0.1-0.8-0.2-1.3-0.2
						c-0.601,0-1.101,0.101-1.5,0.2c-0.4,0.101-0.7,0.3-1,0.5C98.3,64.2,98.2,64.5,98,64.8c-0.1,0.301-0.2,0.7-0.2,1.101
						c0,0.399,0.101,0.7,0.2,0.899c0.101,0.2,0.3,0.4,0.5,0.601c0.3,0.2,0.7,0.399,1.2,0.5c0.5,0.2,1.2,0.399,1.9,0.5
						c0.8,0.2,1.6,0.399,2.3,0.7c0.7,0.3,1.3,0.6,1.8,1c0.5,0.399,0.9,0.899,1.2,1.5c0.3,0.6,0.399,1.3,0.399,2.199
						c0,0.9-0.199,1.7-0.5,2.301c-0.3,0.6-0.8,1.199-1.3,1.6s-1.2,0.7-1.899,0.9C102.7,78.6,101.9,78.7,101.1,78.7z"/>
					<path fill="#787878" d="M106.7,73.7c0,0.8-0.2,1.5-0.4,2.1c-0.3,0.601-0.699,1-1.199,1.4S104,77.8,103.3,78
						c-0.699,0.2-1.399,0.2-2.199,0.2c-0.801,0-1.5-0.1-2.2-0.2C98.3,77.8,97.7,77.6,97.3,77.3c-0.5-0.3-0.899-0.6-1.199-1
						C95.8,75.9,95.5,75.5,95.2,75l1.4-0.8c0.199,0.3,0.399,0.6,0.6,0.9c0.2,0.3,0.6,0.6,0.9,0.8c0.399,0.2,0.8,0.5,1.3,0.6
						c0.5,0.2,1,0.2,1.7,0.2c0.6,0,1.1-0.1,1.6-0.2c0.5-0.1,0.9-0.3,1.3-0.6c0.4-0.2,0.7-0.601,0.9-1c0.2-0.4,0.3-0.8,0.3-1.4
						c0-0.5-0.1-0.899-0.2-1.3c-0.2-0.3-0.399-0.6-0.7-0.9c-0.3-0.3-0.8-0.5-1.3-0.699c-0.5-0.2-1.1-0.4-1.8-0.601
						c-0.9-0.2-1.7-0.5-2.4-0.7C98.1,69.1,97.6,68.8,97.1,68.5c-0.4-0.3-0.801-0.7-1-1.2c-0.2-0.5-0.301-1.1-0.301-1.8
						s0.101-1.3,0.301-1.8c0.199-0.6,0.5-1,1-1.4C97.5,61.9,98.1,61.6,98.8,61.4c0.7-0.2,1.4-0.3,2.301-0.3
						c0.699,0,1.3,0.1,1.8,0.199c0.5,0.101,1,0.301,1.5,0.601c0.399,0.3,0.8,0.6,1.2,0.899c0.3,0.4,0.699,0.801,0.899,1.2l-1.3,0.9
						c-0.2-0.4-0.4-0.7-0.7-1s-0.6-0.5-0.899-0.8c-0.301-0.2-0.7-0.4-1.101-0.5c-0.399-0.101-0.899-0.2-1.399-0.2
						c-0.601,0-1.2,0.1-1.601,0.2c-0.5,0.1-0.8,0.3-1.1,0.6s-0.5,0.6-0.7,0.9c-0.1,0.399-0.2,0.8-0.2,1.199
						c0,0.4,0.101,0.801,0.2,1.101s0.4,0.5,0.7,0.8c0.3,0.2,0.7,0.4,1.3,0.6c0.5,0.2,1.2,0.4,2,0.601s1.6,0.399,2.2,0.7
						c0.6,0.3,1.2,0.5,1.7,0.899c0.5,0.4,0.8,0.8,1.1,1.3C106.6,72.3,106.7,73,106.7,73.7z"/>
					<polygon fill="#787878" points="122.2,78.4 122.2,65.5 118.1,73.8 116.5,73.8 112.5,65.5 112.5,78.4 110.2,78.4 110.2,61.4 
						113,61.4 117.4,70.3 121.7,61.4 124.5,61.4 124.5,78.4 					"/>
					<path fill="#787878" d="M122.6,78V63.7l-4.7,9.7H116.8l-4.699-9.7V78h-1.5V61.8h2.199l4.601,9.4l4.6-9.4h2.2V78H122.6z"/>
					<path fill="#787878" d="M133.6,78.7c-0.801,0-1.601-0.1-2.301-0.3c-0.699-0.2-1.199-0.4-1.699-0.7s-0.9-0.7-1.301-1.1
						c-0.399-0.4-0.699-0.9-1-1.4l-0.199-0.3l2.1-1.2l0.2,0.4c0.1,0.3,0.3,0.6,0.6,0.899c0.2,0.3,0.5,0.5,0.8,0.8
						c0.301,0.2,0.7,0.4,1.2,0.601c0.4,0.1,1,0.2,1.5,0.2s1-0.101,1.5-0.2c0.4-0.101,0.8-0.3,1.2-0.5c0.3-0.2,0.6-0.5,0.7-0.8
						c0.2-0.301,0.3-0.7,0.3-1.2c0-0.4-0.1-0.8-0.2-1.101c-0.1-0.3-0.3-0.5-0.6-0.8c-0.3-0.2-0.7-0.399-1.2-0.6s-1.1-0.4-1.8-0.5
						c-0.9-0.2-1.8-0.5-2.5-0.7s-1.3-0.5-1.8-0.9c-0.5-0.399-0.9-0.8-1.101-1.3S127.6,66.8,127.6,66.1c0-0.7,0.1-1.4,0.399-2
						C128.2,63.5,128.6,63,129.1,62.5c0.5-0.399,1.1-0.8,1.8-1s1.5-0.3,2.5-0.3c0.7,0,1.3,0.1,1.899,0.2
						C135.9,61.5,136.4,61.8,136.9,62c0.5,0.3,0.899,0.601,1.3,1c0.4,0.4,0.7,0.8,1,1.3l0.2,0.301l-2,1.3l-0.2-0.4
						c-0.2-0.3-0.4-0.6-0.6-0.899c-0.2-0.301-0.5-0.5-0.801-0.7c-0.3-0.2-0.6-0.3-1-0.4c-0.399-0.1-0.8-0.2-1.3-0.2
						c-0.6,0-1.1,0.101-1.5,0.2c-0.399,0.101-0.7,0.3-1,0.5s-0.399,0.5-0.6,0.8c-0.101,0.301-0.2,0.7-0.2,1.101
						c0,0.399,0.1,0.7,0.2,0.899c0.1,0.2,0.3,0.4,0.5,0.601c0.3,0.2,0.7,0.399,1.2,0.5c0.5,0.2,1.199,0.399,1.899,0.5
						c0.9,0.2,1.601,0.399,2.3,0.7c0.7,0.3,1.301,0.6,1.801,1C138.6,70.5,139,71,139.3,71.6c0.301,0.6,0.4,1.3,0.4,2.199
						c0,0.9-0.2,1.7-0.5,2.301c-0.3,0.6-0.8,1.199-1.3,1.6c-0.601,0.4-1.2,0.7-1.9,0.9C135.2,78.6,134.4,78.7,133.6,78.7z"/>
					<path fill="#787878" d="M139.3,73.7c0,0.8-0.1,1.5-0.399,2.1c-0.3,0.601-0.7,1-1.2,1.4s-1.1,0.6-1.8,0.8s-1.4,0.2-2.2,0.2
						s-1.5-0.1-2.2-0.2c-0.6-0.2-1.2-0.399-1.6-0.7c-0.5-0.3-0.9-0.6-1.2-1c-0.3-0.399-0.6-0.8-0.9-1.3l1.4-0.8
						c0.2,0.3,0.4,0.6,0.6,0.9c0.2,0.3,0.601,0.6,0.9,0.8c0.4,0.2,0.8,0.5,1.3,0.6c0.5,0.2,1,0.2,1.7,0.2c0.6,0,1.1-0.1,1.6-0.2
						c0.5-0.1,0.9-0.3,1.301-0.6c0.399-0.2,0.699-0.601,0.899-1c0.2-0.4,0.3-0.8,0.3-1.4c0-0.5-0.1-0.899-0.199-1.3
						c-0.2-0.3-0.4-0.6-0.7-0.9c-0.3-0.3-0.8-0.5-1.3-0.699c-0.5-0.2-1.101-0.4-1.801-0.601c-0.899-0.2-1.699-0.5-2.399-0.7
						c-0.7-0.199-1.2-0.5-1.7-0.8c-0.4-0.3-0.8-0.7-1-1.2s-0.3-1.1-0.3-1.8s0.1-1.3,0.3-1.8c0.2-0.6,0.5-1,1-1.4
						c0.4-0.399,1-0.699,1.7-0.899s1.399-0.3,2.3-0.3c0.7,0,1.3,0.1,1.8,0.199c0.5,0.101,1,0.301,1.5,0.601
						c0.4,0.3,0.8,0.6,1.2,0.899c0.3,0.4,0.7,0.801,0.9,1.2l-1.301,0.9c-0.199-0.4-0.399-0.7-0.699-1c-0.301-0.3-0.5-0.5-0.9-0.8
						c-0.3-0.2-0.7-0.4-1.1-0.5c-0.4-0.101-0.9-0.2-1.4-0.2c-0.6,0-1.2,0.1-1.6,0.2c-0.5,0.1-0.801,0.3-1.101,0.6s-0.5,0.6-0.7,0.9
						c-0.1,0.399-0.199,0.8-0.199,1.199c0,0.4,0.1,0.801,0.199,1.101c0.101,0.3,0.4,0.5,0.7,0.8c0.3,0.2,0.7,0.4,1.3,0.6
						c0.5,0.2,1.2,0.4,2,0.601c0.801,0.2,1.601,0.399,2.2,0.7c0.601,0.3,1.2,0.5,1.7,0.899c0.5,0.4,0.8,0.8,1.1,1.3
						C139.1,72.3,139.3,73,139.3,73.7z"/>
				</g>
			</g>
		</g>
		<g enable-background="new    ">
			<path fill="#FFFFFF" d="M124.301,209.113c0,2.219-0.727,3.862-2.18,4.93c-1.453,1.068-3.45,1.602-5.992,1.602
				c-1.812,0-3.347-0.331-4.602-0.992c-1.255-0.661-2.148-1.497-2.68-2.508l3.547-2.422c0.385,0.594,0.864,1.073,1.438,1.438
				c0.573,0.365,1.354,0.547,2.344,0.547c1.25,0,2.159-0.239,2.727-0.719c0.567-0.479,0.852-1.213,0.852-2.203c0-2-1.323-3-3.969-3
				h-1.922v-3.781h1.672c1.323,0,2.286-0.26,2.891-0.781c0.604-0.521,0.906-1.197,0.906-2.031c0-0.614-0.219-1.125-0.656-1.531
				s-1.156-0.609-2.156-0.609s-1.8,0.159-2.398,0.477c-0.599,0.318-1.112,0.8-1.539,1.445l-3.516-2.469
				c0.854-1.156,1.888-2.01,3.102-2.562c1.213-0.552,2.773-0.828,4.68-0.828c1.448,0,2.711,0.227,3.789,0.68
				s1.894,1.081,2.445,1.883c0.552,0.803,0.828,1.719,0.828,2.75c0,2.823-1.458,4.594-4.375,5.312
				c1.427,0.094,2.578,0.633,3.453,1.617S124.301,207.593,124.301,209.113z"/>
		</g>
	</g>
</g>
</svg>
