<?xml version="1.0" encoding="utf-8"?>
<!-- Generator: Adobe Illustrator 16.0.4, SVG Export Plug-In . SVG Version: 6.00 Build 0)  -->
<!DOCTYPE svg PUBLIC "-//W3C//DTD SVG 1.1//EN" "http://www.w3.org/Graphics/SVG/1.1/DTD/svg11.dtd">
<svg version="1.1" xmlns="http://www.w3.org/2000/svg" xmlns:xlink="http://www.w3.org/1999/xlink" x="0px" y="0px" width="72.8px"
	 height="72.8px" viewBox="0 0 72.8 72.8" enable-background="new 0 0 72.8 72.8" xml:space="preserve">
<g id="Layer_2">
</g>
<g id="Layer_1">
	<g>
		<g>
			<path fill="#FFFFFF" d="M36.4,0.2c-20,0-36.2,16.2-36.2,36.2c0,20,16.2,36.2,36.2,36.2c20,0,36.2-16.2,36.2-36.2
				C72.6,16.4,56.4,0.2,36.4,0.2z M56.7,46.5c0,5.6-4.6,10.2-10.2,10.2H26.2c-5.6,0-10.2-4.6-10.2-10.2V32.6h11.8
				c-0.6,1.2-0.9,2.6-0.9,4.1c0,5.3,4.3,9.7,9.7,9.7c5.3,0,9.7-4.3,9.7-9.7c0-1.5-0.3-2.9-0.9-4.1h11.4V46.5z M56.7,28.8h-7h-7.6
				c-1.6-1.1-3.5-1.8-5.6-1.8s-4,0.7-5.6,1.8H16V26c0-5.6,4.6-10.2,10.2-10.2h20.3c5.6,0,10.2,4.6,10.2,10.2V28.8z"/>
			<path fill="#FFFFFF" d="M49.5,20.9H46c-0.6,0-1.1,0.5-1.1,1.1v3.5c0,0.6,0.5,1.1,1.1,1.1h3.5c0.6,0,1.1-0.5,1.1-1.1V22
				C50.7,21.4,50.2,20.9,49.5,20.9z"/>
		</g>
	</g>
</g>
</svg>
