<?xml version="1.0" encoding="utf-8"?>
<!-- Generator: Adobe Illustrator 16.0.4, SVG Export Plug-In . SVG Version: 6.00 Build 0)  -->
<!DOCTYPE svg PUBLIC "-//W3C//DTD SVG 1.1//EN" "http://www.w3.org/Graphics/SVG/1.1/DTD/svg11.dtd">
<svg version="1.1" xmlns="http://www.w3.org/2000/svg" xmlns:xlink="http://www.w3.org/1999/xlink" x="0px" y="0px" width="130.4px"
	 height="130.2px" viewBox="0 0 130.4 130.2" enable-background="new 0 0 130.4 130.2" xml:space="preserve">
<g id="Layer_2">
</g>
<g id="Layer_1">
	<g>
		<circle fill="#40E41B" cx="65.2" cy="65.1" r="62.6"/>
		<path fill="#FFFFFF" d="M96.9,87.9l-5.9-6H95c0.8,0,1.4-0.6,1.4-1.4V46.3c0-0.8-0.6-1.4-1.4-1.4H34.4c-0.8,0-1.4,0.6-1.4,1.4v34.2
			c0,0.8,0.6,1.4,1.4,1.4h34.7l3,8.8c0.2,0.5,0.5,0.8,1,0.9c0.1,0,0.2,0,0.3,0c0.4,0,0.7-0.1,1-0.4l4.9-4.9l9.4,9.6
			c0.3,0.3,0.6,0.4,0.9,0.4l0.1,0c0.4,0,0.7-0.2,1-0.4l6-6C97.4,89.4,97.4,88.5,96.9,87.9z M35.8,79.2V47.7h57.8v31.5h-5.2l-0.9-0.9
			l5.1-5.1c0.3-0.3,0.5-0.8,0.4-1.3c-0.1-0.5-0.5-0.9-0.9-1l-1.1-0.4V54.8h-2.5c-1,0-1.8-0.8-1.8-1.8v-2.5H42.9v2.5
			c0,1-0.8,1.8-1.8,1.8h-2.5v17.3H41c1,0,1.8,0.8,1.8,1.8v2.5h24.4l0.9,2.7H35.8z M62.8,63.4l2.3,6.6c-0.1,0-0.3,0-0.4,0
			c-3.6,0-6.6-3-6.6-6.6c0-3.6,3-6.6,6.6-6.6c3.6,0,6.6,3,6.6,6.6c0,0.1,0,0.3,0,0.4l-6.6-2.2c-0.1-0.1-0.3-0.1-0.5-0.1
			c-0.4,0-0.7,0.2-1,0.4C62.8,62.3,62.7,62.9,62.8,63.4z M64.7,54.5c-4.9,0-8.9,4-8.9,8.9c0,4.9,4,8.9,8.9,8.9c0.4,0,0.8,0,1.2-0.1
			l0.5,1.5H45.6c-0.1-2.4-2-4.3-4.4-4.4V57.5c2.4-0.1,4.3-2,4.4-4.4h38.1c0.1,2.4,2,4.3,4.4,4.4v11.9c-0.1,0-0.3,0.1-0.4,0.1
			l-14.2-4.8c0.1-0.4,0.1-0.8,0.1-1.2C73.6,58.5,69.6,54.5,64.7,54.5z M89.9,92.9l-9.4-9.6c-0.3-0.3-0.6-0.4-1-0.4h0
			c-0.4,0-0.7,0.2-1,0.4l-4.3,4.3l-7.7-22.5l22.5,7.7l-4.4,4.4c-0.5,0.5-0.6,1.4,0,2l9.5,9.6L89.9,92.9z"/>
	</g>
</g>
</svg>
