<?xml version="1.0" encoding="utf-8"?>
<!-- Generator: Adobe Illustrator 16.0.4, SVG Export Plug-In . SVG Version: 6.00 Build 0)  -->
<!DOCTYPE svg PUBLIC "-//W3C//DTD SVG 1.1//EN" "http://www.w3.org/Graphics/SVG/1.1/DTD/svg11.dtd">
<svg version="1.1" xmlns="http://www.w3.org/2000/svg" xmlns:xlink="http://www.w3.org/1999/xlink" x="0px" y="0px" width="234.4px"
	 height="234.4px" viewBox="0 0 234.4 234.4" enable-background="new 0 0 234.4 234.4" xml:space="preserve">
<g id="Layer_2">
</g>
<g id="Layer_1">
	<g>
		<g>
			<path fill="#EEEEEE" d="M117.2,22.2c52.4,0,95,42.6,95,95s-42.6,95-95,95s-95-42.6-95-95S64.8,22.2,117.2,22.2 M117.2,14.2
				c-56.9,0-103,46.1-103,103c0,56.9,46.1,103,103,103s103-46.1,103-103C220.2,60.3,174.1,14.2,117.2,14.2L117.2,14.2z"/>
		</g>
		<g id="atm-machine_1_">
			<g>
				<polygon fill="#EFEFF0" points="136.5,119.1 95.3,119.1 136.5,86.2 				"/>
			</g>
			<g>
				<rect x="97.5" y="67.3" fill="#00D9BF" width="35.9" height="7.1"/>
				<g>
					<path fill="#787878" d="M135.2,72.9v-7.4H95.8v7.4H83.1V164h66.3V72.9H135.2z M99.3,69h32.5v3.6H99.3V69z M146.2,160.9h-60V76
						h9.6v0h39.4v0h11.1V160.9z"/>
					<path fill="#787878" d="M93.6,120.8h44.5V84.5H93.6V120.8z M96.9,87.8h38v29.8h-38V87.8z"/>
				</g>
			</g>
			<polyline fill="#23C0FF" points="132.8,134.5 132.8,173.8 98.9,173.8 98.9,134.5 			"/>
			<path fill="#00D9BF" d="M104.3,135v28.7c0,0.2,0.1,0.3,0.2,0.4c0.1,0.1,0.3,0.2,0.5,0.2c0,0,0.2,0,0.2,0c1.3,0,2.4,1.1,2.4,2.4
				c0,0.1,0,0.2,0,0.3c0,0.2,0,0.3,0.1,0.5c0.1,0.1,0.3,0.2,0.5,0.2h15.6c0.2,0,0.3-0.1,0.5-0.2c0.1-0.1,0.2-0.3,0.1-0.5
				c0-0.1,0-0.2,0-0.3c0-1.3,1.1-2.4,2.4-2.4c0,0,0.1,0,0.1,0c0.2,0,0.3,0,0.5-0.2c0.1-0.1,0.2-0.3,0.2-0.4V135"/>
			<path fill="#23C0FF" d="M110.2,144.5c0-3.1,2.5-5.7,5.7-5.7c3.1,0,5.7,2.5,5.7,5.7c0,3.1-2.5,5.7-5.7,5.7
				C112.7,150.2,110.2,147.6,110.2,144.5z"/>
			<g>
				<path fill="#787878" d="M115.9,151.9c4.1,0,7.4-3.3,7.4-7.4c0-4.1-3.3-7.4-7.4-7.4c-4.1,0-7.4,3.3-7.4,7.4
					C108.5,148.6,111.8,151.9,115.9,151.9z M115.9,140.5c2.2,0,4,1.8,4,4c0,2.2-1.8,4-4,4s-4-1.8-4-4
					C111.9,142.3,113.7,140.5,115.9,140.5z"/>
				<rect x="113.8" y="154.2" fill="#787878" width="3.4" height="7.6"/>
				<path fill="#787878" d="M138.5,131.8H93.2v3.6h4v40.1h37.3v-40.1h4V131.8z M106,135.4h19.7v27.2c-0.8,0.2-1.4,0.5-2,1.1
					c-0.6,0.6-1,1.4-1.1,2.2h-13.4c-0.3-1.7-1.5-3-3.2-3.3V135.4z M131.1,172.1h-30.5v-36.7h1.9v28.3c0,0.6,0.3,1.2,0.8,1.7
					c0.5,0.4,1.1,0.6,1.8,0.6c0.4,0,0.7,0.3,0.6,0.9c-0.1,0.6,0.1,1.2,0.6,1.8c0.4,0.5,1.1,0.8,1.7,0.8h15.6c0.7,0,1.3-0.3,1.7-0.8
					c0.5-0.5,0.7-1.2,0.6-2c0-0.2,0.1-0.4,0.2-0.5c0.1-0.1,0.3-0.2,0.5-0.2c0.6,0.1,1.3-0.2,1.8-0.7c0.4-0.4,0.7-1,0.7-1.7v-28.3
					h1.9V172.1z"/>
			</g>
		</g>
	</g>
</g>
</svg>
