<?xml version="1.0" encoding="utf-8"?>
<!-- Generator: Adobe Illustrator 16.0.4, SVG Export Plug-In . SVG Version: 6.00 Build 0)  -->
<!DOCTYPE svg PUBLIC "-//W3C//DTD SVG 1.1//EN" "http://www.w3.org/Graphics/SVG/1.1/DTD/svg11.dtd">
<svg version="1.1" xmlns="http://www.w3.org/2000/svg" xmlns:xlink="http://www.w3.org/1999/xlink" x="0px" y="0px" width="45px"
	 height="45px" viewBox="0 0 45 45" enable-background="new 0 0 45 45" xml:space="preserve">
<g id="Layer_2">
</g>
<g id="Layer_1">
	<path fill="#FFFFFF" d="M42.8,34.5L42.8,34.5c0-0.8-0.3-1.5-0.8-2c-0.1-0.1-0.3-0.3-0.5-0.4l-7.8-6.1c-0.5-0.5-1.2-0.8-2-0.8
		c-0.6,0-1.2,0.2-1.7,0.6L27.9,28l0,0c-0.3,0.4-0.8,0.6-1.4,0.6c-0.6,0-1.2-0.3-1.5-0.8c0,0,0,0,0,0.1c-3-2.2-5.7-4.8-7.9-7.8
		c0,0,0,0,0.1,0c-0.5-0.3-0.8-0.9-0.8-1.5c0-0.6,0.3-1.1,0.7-1.4l0,0l2.2-2.2c0.4-0.5,0.6-1,0.6-1.7c0-0.8-0.3-1.5-0.8-2l-6.1-7.8
		c-0.1-0.2-0.2-0.3-0.4-0.5c-0.5-0.5-1.2-0.8-2-0.8c-3.7,0-8.3,4.3-8.3,9.7c0,1.5,0.3,2.9,0.9,4.1l0,0c5.6,11.1,14.8,20.3,25.9,25.9
		l0,0c1.3,0.6,2.7,0.9,4.1,0.9C38.5,42.8,42.8,38.2,42.8,34.5C42.8,34.5,42.8,34.5,42.8,34.5 M33.1,41c-1.2,0-2.3-0.3-3.3-0.8
		c-0.1,0-0.2-0.1-0.3-0.1C19,34.7,10.3,26,4.9,15.5c0-0.1-0.1-0.2-0.1-0.3C4.3,14.2,4,13,4,11.9C4,7.4,8,4,10.5,4
		c0.3,0,0.6,0.2,0.7,0.3c0,0,0.1,0.1,0.1,0.2c0,0.1,0.1,0.1,0.1,0.2l6.1,7.8c0,0.1,0.1,0.1,0.2,0.2c0.1,0.1,0.3,0.3,0.3,0.7
		c0,0.2,0,0.3-0.1,0.5l-2.1,2c0,0,0,0,0,0c-0.7,0.7-1.2,1.7-1.2,2.7c0,1,0.4,1.9,1,2.5c0,0,0,0.1,0.1,0.1c2.3,3.1,5.1,5.9,8.3,8.3
		c0,0,0.1,0,0.1,0.1c0.7,0.7,1.6,1,2.6,1c1,0,1.9-0.4,2.6-1.1c0,0,0.1-0.1,0.1-0.1l2.1-2.1c0.1-0.1,0.3-0.1,0.5-0.1
		c0.3,0,0.6,0.2,0.7,0.3c0.1,0.1,0.1,0.1,0.2,0.2l7.8,6.1c0.1,0,0.1,0.1,0.2,0.1c0.1,0.1,0.1,0.1,0.2,0.1c0.1,0.1,0.3,0.3,0.3,0.7
		c0,0.1,0,0.1,0,0.2C40.8,37.2,37.5,41,33.1,41"/>
</g>
</svg>
