<?xml version="1.0" encoding="utf-8"?>
<!-- Generator: Adobe Illustrator 16.0.4, SVG Export Plug-In . SVG Version: 6.00 Build 0)  -->
<!DOCTYPE svg PUBLIC "-//W3C//DTD SVG 1.1//EN" "http://www.w3.org/Graphics/SVG/1.1/DTD/svg11.dtd">
<svg version="1.1" xmlns="http://www.w3.org/2000/svg" xmlns:xlink="http://www.w3.org/1999/xlink" x="0px" y="0px" width="2560px"
	 height="91.5px" viewBox="0 0 2560 91.5" enable-background="new 0 0 2560 91.5" xml:space="preserve">
<g id="Layer_2">
</g>
<g id="Layer_1">
	<path fill="#B9FB00" d="M2291.2,46.5c-41.2,0-77.9-16.7-101.8-46.5v91.5H2391V0C2367.1,28.4,2331.3,46.5,2291.2,46.5z"/>
	<polygon fill="#00D9BF" points="1876.4,0 1922.3,91.5 2012.9,91.5 2012.9,0 1876.4,0 	"/>
	<polygon fill="#23C0FF" points="1876.4,0 1718.4,0 1718.4,91.5 1850.6,91.5 	"/>
	<g>
		<path fill="#00D9BF" d="M867.5,0c-45.8,23.7-92.1,47.6-139.7,72v19.5h202.3V0H867.5z"/>
		<path fill="#00D9BF" d="M1718.4,72c-47.7-24.4-93.9-48.3-139.7-72h-65v91.5h204.7V72z"/>
		<path fill="#40E41B" d="M2090.6,91.5H2011V0h178.5C2167.2,41.7,2132.4,74.3,2090.6,91.5z"/>
		<path fill="#B9FB00" d="M1208.3,44.9c41.2,0,77.9,16.7,101.8,46.5V0h-201.5v91.5C1132.5,63,1168.3,44.9,1208.3,44.9z"/>
		<path fill="#40E41B" d="M1009.6,0h-79.6v91.5h178.5C1086.3,49.8,1051.5,17.1,1009.6,0z"/>
		<path fill="#B9FB00" d="M522.9,91.5h204.7V71.3H664c-39.4,0-73.7-30.2-88.4-71.3h-52.7V91.5z"/>
		<polygon fill="#00D9BF" points="124.1,0 0,0 0,91.5 171.6,91.5 171.6,74.8 		"/>
		<polygon fill="#23C0FF" points="318.1,41.8 318.1,91.5 522.8,91.5 522.8,0 474.6,0 		"/>
		<polygon fill="#40E41B" points="171.6,74.8 171.6,91.5 318.1,91.5 318.1,0 209.8,0 209.8,74.8 		"/>
		<polygon fill="#23C0FF" points="1513.7,91.5 1513.7,0 1310.1,0 1310.1,13 1411.2,37.7 1411.2,91.5 		"/>
		<polygon fill="#23C0FF" points="2391,15.2 2485.6,37.7 2485.6,91.5 2560,91.5 2560,0 2391,0 		"/>
	</g>
</g>
</svg>
