<?xml version="1.0" encoding="utf-8"?>
<!-- Generator: Adobe Illustrator 16.0.4, SVG Export Plug-In . SVG Version: 6.00 Build 0)  -->
<!DOCTYPE svg PUBLIC "-//W3C//DTD SVG 1.1//EN" "http://www.w3.org/Graphics/SVG/1.1/DTD/svg11.dtd">
<svg version="1.1" xmlns="http://www.w3.org/2000/svg" xmlns:xlink="http://www.w3.org/1999/xlink" x="0px" y="0px"
	 width="1510.6px" height="1209.2px" viewBox="0 0 1510.6 1209.2" enable-background="new 0 0 1510.6 1209.2" xml:space="preserve">
<g id="Layer_2">
</g>
<g id="Layer_1">
	<g>
		<g>
			<g>
				<path fill="#1B77F8" d="M1440.4,1097.9v111.3h70.2v-126.7l-0.2,0c-1-0.2-1.9-0.3-2.8-0.3h-52.3
					C1446.9,1082.1,1440.4,1088.9,1440.4,1097.9z"/>
				<path fill="#1B77F8" d="M477.4,151.3l-0.2,0.3h127.1V0.1h-48.9l-0.1,0.1C527.8,54.1,500.7,106.5,477.4,151.3z"/>
				<path fill="#1B77F8" d="M1208.5,67.6V21.2h-91.1c-24,0-43.7,3.3-60.2,10.1l-0.1,0.1v48.8c-8.8,3.4-18,5.1-27.4,5.1h-51.9v-85
					H906v126.8c0,11.7,8.9,22,20.2,24.2h-19.9L866.5,0.4l0-0.2h-69.6l8.6,38h-50.1v-38H649.8l0.6,0.4c22.4,16.4,36.2,45.5,36.2,75.8
					c0,0,0,0,0,0c0,14.6-3.5,29.4-10.1,42.8c-6.5,13.1-15.6,24.2-26.4,32.1l-0.6,0.4h91.3c-43.8,2-73.3,9.5-94.4,23.7
					c-25.8,17.4-39.6,45.8-42.1,86.7V160.4l-151.1,78v-87.1h-4.4L428,236.6h-98.9l-22.5-85.5h-4.1v0h-0.3v-6.4L264.1,0.3l0-0.2
					l-112.9,0v0h-3.5C64.7,4.2-0.3,66.6-0.3,142.2v9.4h0.2v81.6h83.6v69.1H-0.1V332l0,0.1c16.9,32.6,39.3,75.9,62.6,121.4h-0.5v47.2
					c0,15.4-6.2,30.2-17.9,42.7c-11.2,12-26.9,21-44.1,25.1l-0.2,0l0,36h0l0,0v0.4H0l40.3,150.9l0,0.2H151v67.5
					c-2.4-13.9-14.9-24.9-29.3-24.9H-0.1V879l0.2,0c0.2,0,0.4,0,0.6,0c0.3,0,0.6,0,1,0h62.9v28.2h85.6
					c-39.7,20.5-79.1,41-117.2,60.8c-11,5.7-22,11.4-33,17.1l-0.1,0.1v73.1l62.4,0l88.6-45.7v45.1l0,14c0,0,0,0.1,0,0.1
					c0,0.5-0.1,1-0.1,1.4l-0.1,0.8c-1.9,19.5-5.7,31.8-12.1,39.8c-6.7,8.4-16.7,12.4-31.5,12.4c-19.5,0-56,0-59-0.1l-48.3,0v70.8H91
					c23.7,0,43.3-3.2,59.7-9.9v0.3l0.3-0.2c11.8-6.1,23.4-12.2,35.1-18.2c37.3-19.4,75.9-39.4,115.7-59.8v100h56.9v-37.3h94.4l0.2,0
					h74.8l9.8,37.4h66h0.5h115.6l0.1-0.1c19.8-20.5,31.2-48.6,35-85.6l0,70.3c0,8.5,6.2,15.4,13.9,15.4h54.7
					c7.7,0,13.9-6.9,13.9-15.4v-136.1h-82V937.5c2.6,31.4,17.4,60.5,42.5,82.7c27.6,24.4,64.7,37.9,104.3,37.9c1,0,2,0,2.9-0.1
					c0.3,0,0.6,0,0.9,0v48.7l86.9-18.1v89.5l-86.6-19.5l-0.3-0.1v50.7h151.5v-0.1c40.4-1.3,78.3-16.6,106.6-43
					c28.6-26.7,44.3-61.9,44.3-99.2v-7.2l77.1,149.3l0.1,0.1h45.7c7.2,0,14.2-2.9,19.6-8.1c5.4-5.2,8.5-12.1,8.7-19.3v-123.7h81.2
					v-75.9h59.1c3.4,0,6.9,0.2,10.5,0.6l0.3,0v-76.1l-0.2,0c-2.8-0.1-5.7-0.2-8.4-0.2h-54.3l17.2-70.5h45.6v-80.5l-112.2,0
					L1359.6,903V755.7h-44.2l-29.9,143.6h-6.7l-28-143.2c14-7.3,28-14.6,42-21.8c22.2-11.6,44.4-23.1,66.7-34.6l0.1-0.1h132.8
					c9.9,0,18.2-7.9,18.2-17.3v-60.6c0-9.8-7.8-17.3-18.2-17.3l-2.8,0h-130.1h-0.5l-69.1,0c25-2,48.8-10,69.4-23.3l0.1-0.1v-29.3
					l118.5,31.3c9.3,2.5,17.6,1.4,23.3-3c5.4-4.2,8.3-11.1,8.3-19.9v-50.3c0-13.2-5.6-21-17.2-23.9l-131.2-32h149.4V309.7h-151.2
					c-3.4-2.4-6.9-4.7-10.4-6.9h10.4l0.2,0v-51.3c2.2,11.7,12.8,20.8,25,20.8h103.5c7.4,0,14.9-0.5,22.4-1.6l0.2,0v-70.7l-0.3,0.1
					c-7.6,2.4-15.6,3.6-23.6,3.6h-53.6v-52.5h-73.6h-0.2h-87v70.9h-48.7c-8.8,0-15.5,6.3-15.5,14.7v51.3c0,6.7,5.1,12.6,11.8,14.2
					h-12v71c-0.1,0-0.3,0-0.4,0c-0.3,0-0.6,0-1,0h-62.9v-71.1h-85.6c39.7-20.5,79.1-41,117.2-60.8c11-5.7,22-11.4,33-17.1l0.1-0.1
					v-72.7h50.5l0-0.2c3.1-39,31.6-69.6,64.9-69.6h35.2l0.1,0c10.8,5.6,21.7,11.3,32.5,16.9c33.3,17.3,67.7,35.2,102.2,53l16.6,0
					V0.3l-151.1,0V0.1h-34.1c-23.6,0-46.9,6.5-67.4,18.7C1238.4,30.5,1221.3,47.3,1208.5,67.6z M1208.1,907.2h173.8
					c-12.8,2.6-22.8,14.3-22.8,27.5v9.6c-21-16-48-24.9-76.1-24.9c-27.5,0-54,8.8-74.7,24.7H1125v-36.9h59.3l-0.2-0.3
					c-23.3-44.9-50.5-97.3-77.9-150.9h40.3v-47.2c0-15.4,6.2-30.2,17.9-42.7c11.2-12,26.9-21,44.1-25.1l0.1,0h60.7l-61,31.5
					l-0.1,0.1l0,83.2h0V907.2z M1126.9,1068.4c0,33.2-30.4,61.7-69.4,64.9v-75.3l0-0.2h-31c-8.9-31.5-22.2-56-40.6-75
					c-20.2-21-46.3-35-79.7-42.8l-0.3-0.1v47.7c-2,0.1-3.6,0.2-5.2,0.2c-37.4,0-70.2-27.9-70.2-59.7v-21l10.9-44.5H906v44.7h105.8
					l-0.6-0.4c-10.8-7.9-19.9-19-26.4-32.1c-6.6-13.3-10.1-28.1-10.1-42.8c0-30.3,13.9-59.3,36.2-75.7h18.1
					c7.4-0.1,14.4-3.1,19.8-8.5c4.3-4.3,7.1-9.7,8.2-15.5v23.4v0.5v151l0,0.2v119l151,0v31.5h-81.2V1068.4z M453.3,1102.9h-92.8
					l-1.8-41.3c0-1.3-0.2-2.6-0.5-3.8l0-0.2h-55.7v-57.2h65.5c18.9,0,34.9-16,34.9-34.9V907h50v151.1h49.9l9.4,44.9h-58.9V1102.9z
					 M301.8,302.7L301.8,302.7l0,22.7h79.1c13.4,0,26.1,6.3,35.7,17.6c9.6,11.3,14.8,26.1,14.8,41.6v45.9H301.8v22.8h-24
					c-23.2-44.7-50.3-96.9-77.8-150.7h0.1v-47.2c0-18.5,9-36.2,25.3-49.7c16-13.2,37.6-20.8,59.2-20.8c5.6,0,11.4,0.6,17.1,1.7
					V302.7z M452.8,454.1c0,0.2,0,0.4,0,0.6c0,0,0,0,0,0c0,58.9,28.1,114.9,75.1,149.8h-74.7v-5.1l0,0
					c-7.7-70.4-28.4-116.7-64.9-145.7h64.5L452.8,454.1z M604,984.7L604,984.7c-14.9,7.6-31.6,11.6-48.5,11.6
					c-49.8,0-93.4-37.2-93.4-79.5v-10.2h-8.8v-59.3h47.8v0c3-0.1,39.5-0.1,59-0.1c28.7,0,40.2,14.3,43.8,54.6v3l0.2,0
					c8.7,1.5,17.6,2.3,26.3,2.3h100.4c13.4,0,24.7-11.3,24.7-24.7V756h39.4l-39.7,150.6h-0.2v0.1C705.1,932.6,656.1,958,604,984.7z
					 M906,756v37.6h-50.1l8.5-37.7l0.1-0.3h-44.1v-82.9H906v82.9V756z M906.4,672.2v-67.3h73.2c0.2,2.3,0.3,4.5,0.3,6.6v60.7H906.4z
					 M906,534.1v70.4h-65.2v-3.3c0-15.9,6.7-31.5,19-43.8C871.8,545.4,888.2,537.1,906,534.1z M754.9,755.6h-13.6l13.6-51.7V755.6z
					 M1021.2,533.6v-79.7h35.8v79.7H1021.2z M943.8,533.6h-37.4v-79.7h37.4V533.6z M1057.5,698.6l0-88.9c0-1.5,0-3-0.1-4.7h0.1V534
					l26,0l18.5,70.5C1075.8,630.3,1060.2,663.4,1057.5,698.6z M1057.5,428.8c2.2,12.4,12.3,22.4,24.6,24.5h-24.6V428.8z
					 M168.2,906.7c33.9-17.6,67.8-35.1,100.5-52.2c11.1-5.8,22.3-11.6,33.4-17.3h35.3c33.2,0,61.7,30.5,64.9,69.4H301.8V976h-82.9
					v-69.3H168.2z M604.3,1037c2.7,10.6,11.4,19,22.3,21.1h38.9c0,15.2,0,36.5,0,47.8l0,10c0,35-16.6,50-61.3,55.5L574,1058.1h30.3
					V1037z M1228,1021.8c0-25.4,25.7-46.8,56.1-46.8c29.6,0,55.5,21.9,55.5,46.8v35.8H1228V1021.8z M754.9,365.2v27.7
					c1.9,21.9,8.2,42.4,18.6,60.9l0.1,0.1h126.8c-38.1,4.1-73.6,20.3-100.3,46.1c-28,26.9-44,62-45.2,98.8v5.8H715l-26.5,117.3
					l-4.9,33.7h0v0l0,0.2l0,0.3h0v84.6h-51.9c-9.4,0-18.6-1.7-27.4-5.1v-48.8l-0.1-0.1c-16.5-6.8-36.2-10.1-60.2-10.1h-91.1V823
					c-12.8-20.2-29.9-37.1-49.5-48.8c-20.6-12.2-43.9-18.7-67.4-18.7h-33.5v0v-79.9l-0.2,0c-0.2,0-0.4,0-0.7,0c-0.3,0-0.6,0-1,0
					h-62.9v-70.8h0l17.3-70.8h47.2l0,0c27.5,6.7,41.2,27.2,47.3,70.6v72.5c0,30.6,15,59.4,41,78.8l0.1,0h62.4l0.2,0v-32.7l-0.2,0
					c-25-4.8-43.9-24.6-43.9-45.8v-72.5h43.7V662l0,0.2l151,0v22L487,755.6l-0.7,0.4H577l0.1,0c9.1-4.7,18.1-9.4,27.1-14l0.1-0.1
					v-44.7l15.6,58.7l0,0.2h58l-5.2-34.2l-24.4-117c29.8-4.9,56.9-19,76.3-39.8c19.8-21.1,30.6-48.2,30.6-76.2v-35.4h-68.1v36.1
					c0,14.1-6.8,27.5-19.3,37.8c-12.2,10.1-28.6,15.9-45.1,15.9c-6.2,0-12.5-0.9-18.6-2.6v0l-0.1-0.1c-30.8-11.4-53.2-46.8-53.2-84
					c0-0.7,0-1.5,0-2.2l0-0.5h53.3v-9.7c1.4,5.5,6,9.7,11.4,9.8h47.7c6.5-0.1,11.9-6.1,11.9-13.4V302.4h-0.1l0.1-2.4h0
					c-0.1-2.4-0.2-26.9-0.3-40c0-36.8,24.7-43.8,79.9-45.3v87.7h-30.8l1.8,3.6c9.7,18.6,19.3,37.1,28.9,55.8l0.3,0.5
					C755.1,363.2,755,364.2,754.9,365.2z M833.8,229.2v-77.5l72.1,0v77.5H833.8z M819.9,107.1l10.8,44.2h-75.3v-44.2H819.9z
					 M477.4,302.7h33.3l40.2,150.8h-97.6V302.2h0v-19.7C455.4,293.8,465.6,302.7,477.4,302.7z M175.9,755.5h-24.5v-24.5
					C153.5,743.4,163.6,753.4,175.9,755.5z M301.8,1058.1v15.3c-1.7-7.6-7.9-13.7-15.5-15.3H301.8z M151.4,1115.4h20l-20,12.2
					V1115.4z M1208.1,604.4h-16l-40.2-150.7h56.2V604.4z M1359.6,409.5h84.7l-84.7,43.7V409.5z M1271.6,373.8
					c18.1,0,35.8,8.4,49.6,23.6c13.6,14.9,22.1,34.8,24,56h0v24c0,15.7-7.3,30.5-20.6,41.7c-13.2,11.2-30.5,17.3-48.6,17.3h-53.6
					v-83h-13.9v-79.6H1271.6z M755.4,360.6v-57.8h18.5C764.1,320.2,757.7,340,755.4,360.6z M81.3,140.7c0-33.1,30.6-61.4,69.6-64.5
					l0.2-0.1h45.2l18.3,75H151v0.1H81.3V140.7z M151,429.5v24h-23.4C139.6,451,148.8,441.3,151,429.5z M106.3,605
					c29.1-28.5,45.1-65.8,45.1-105.1v-46h37L151,595.7l0,9.1h0v70.5h-42.4L90,605L106.3,605L106.3,605z M1057.1,197l-0.1,0.1v105.6
					h0v86.5c-2.8-14.7-12.5-24.7-27.4-28.2l-123.3-32.5l-0.3-0.1v117.8h-26.9c-15,0-29.3-7.3-40.2-20.5
					c-10.7-12.9-16.8-30.4-16.8-47.9c0-36.1,26.7-67.7,57.1-67.7h27.3v-7.3v-0.5v-49c1.5,17.3,6.7,33.9,15.5,49.3l0.1,0.1h126.4
					l0-0.5c-17.8-0.5-34.8-6.9-47.7-18c-13.1-11.2-20.3-25.6-20.3-40.7v-91.9h50.5c8.8,0,17.6-0.8,26.3-2.3l0.2,0v-3
					c3.6-40.3,15-54.6,43.8-54.6c19.5,0,56,0,59,0.1l47.8,0v59.2l-62,0L1057.1,197z"/>
				<path fill="#1B77F8" d="M301.8,126.8c0,13.4,11.3,24.7,24.7,24.7h100.4c8.8,0,17.6-0.8,26.3-2.3l0.2,0V79.8l-0.3,0.1
					c-8.8,3.4-18.1,5.2-27.5,5.2h-51.9V0h-71.8V126.8z"/>
			</g>
		</g>
	</g>
</g>
</svg>
