<?xml version="1.0" encoding="utf-8"?>
<!-- Generator: Adobe Illustrator 16.0.4, SVG Export Plug-In . SVG Version: 6.00 Build 0)  -->
<!DOCTYPE svg PUBLIC "-//W3C//DTD SVG 1.1//EN" "http://www.w3.org/Graphics/SVG/1.1/DTD/svg11.dtd">
<svg version="1.1" xmlns="http://www.w3.org/2000/svg" xmlns:xlink="http://www.w3.org/1999/xlink" x="0px" y="0px"
	 width="1507.8px" height="1206.3px" viewBox="0 0 1507.8 1206.3" enable-background="new 0 0 1507.8 1206.3" xml:space="preserve">
<g id="Layer_2">
</g>
<g id="Layer_1">
	<g>
		<defs>
			<rect id="SVGID_5_" x="120.6" y="-789.7" width="1281" height="739.1"/>
		</defs>
		<clipPath id="SVGID_2_">
			<use xlink:href="#SVGID_5_"  overflow="visible"/>
		</clipPath>
		<g clip-path="url(#SVGID_2_)">
			<g>
				<path fill="none" stroke="#FFFFFF" stroke-width="2" stroke-miterlimit="10" d="M238.4,42.4c-38,0-69.9-36.3-73.7-79.9h-13.8v0
					H0V106h150.8v0c3.6,2.6,7.3,5,11.1,7.3h124.3h15.4V42.4H238.4z M65,6.7l85.7-44.2V6.7H65z"/>
				<path fill="none" stroke="#FFFFFF" stroke-width="2" stroke-miterlimit="10" d="M452.4,113.4L452.4,113.4
					c-51.3,26.5-101,52.3-150.8,78.2v72.5v0.1l62.1,0l88.7-45.8V113.4z"/>
				<path fill="none" stroke="#FFFFFF" stroke-width="2" stroke-miterlimit="10" d="M1356.8,264.2V125.2v-11.7h-48.6v46.9
					c0,38.6-39.4,70.7-84.6,70.7c-5.9,0-11.6-0.6-17.3-1.7V113.4h-150.8v150.8h4l20.8-85.3h99.1l22.4,85.3h4.2v0H1356.8z"/>
				<path fill="none" stroke="#FFFFFF" stroke-width="2" stroke-miterlimit="10" d="M1507.6,182.8h-83.4v-69.4h83.4h0V83.9
					C1487,44.2,1466.3,4.1,1445-37.4h-63.3c-13.8,2.3-24.9,14.6-24.9,29v-29v-0.1h-37.4l37.4-141.9v-8.8h-86.2l-17.2,70.7H1206v0
					c-28.8-7-41.7-29.3-47.5-70.7v-72.4c0-31.8-15.8-59.8-40.9-78.5h-62.2h0v0v32.2c24.1,4.7,44,23.8,44,46v72.6h-44v5.2
					c6.9,62.6,24.4,113.5,65.1,145.6h85.5v0v0.1h24.6c25.7,49.4,51.3,99,77.8,150.7h48.4v0.1h0v150.8h150.8V182.8z"/>
				<path fill="none" stroke="#FFFFFF" stroke-width="2" stroke-miterlimit="10" d="M77.4,211.6v52.4h73.4h86.6v-70.8h48.8
					c8.8,0,15.2-6.4,15.2-14.4v-51.2c0-8-7.2-14.4-15.1-14.4H150.8v0v55.5c0-13.6-11.6-25.1-25.2-25.1H22.3c-7.6,0-15,0.6-22.3,1.6
					v12.9v50.2v7c7.4-2.4,15.4-3.6,23.7-3.6H77.4z"/>
				<path fill="none" stroke="#FFFFFF" stroke-width="2" stroke-miterlimit="10" d="M603.1,113.3h131.8c10.4-18.3,17.1-39.5,19-62.5
					V23.2C752,1,745.4-19.7,735.3-37.5H603.1v7.3h27.1c31.2,0,57.2,31.9,57.2,68.5c0,35.2-25.9,67.8-57.2,67.8h-27.1V113.3z"/>
				<polygon fill="none" stroke="#FFFFFF" stroke-width="2" stroke-miterlimit="10" points="904.7,-37.4 904.7,113.3 904.7,113.4 
					997.8,113.4 957.5,-37.4 				"/>
				<path fill="none" stroke="#FFFFFF" stroke-width="2" stroke-miterlimit="10" d="M904.7,264.2V415h48.4
					c26.5-51.8,52.2-101.3,77.9-150.8H904.7z"/>
				<path fill="none" stroke="#FFFFFF" stroke-width="2" stroke-miterlimit="10" d="M753.9,414.8h104.4
					c-21.6-15.9-36.3-44.5-36.3-75.8c0-30.3,14.7-59,36.5-75H754.5c87.2-1.8,150.2-21,150.2-124.4l0-26.4h0V-24.4
					c0-7.2-5.1-13-11.6-13.1h-47.6c-6.5,0.1-11.6,6-11.6,13.1v137.7h0.1l-0.1,2.4c0.2,0,0.3,40.2,0.3,40.2
					c0,36.4-23.5,43.9-80.2,45.4v-88h30.6c-10.2-19.6-20.4-39.2-30.6-58.9v39.4v19.5H603.1v73h75.4V264h-75.3L643,414.8h69l-8.6-38
					h50.5v-68.2h-64.9l-10.9-44.6h75.7h0v0c0,0,0,0,0,0V414.8z"/>
				<path fill="none" stroke="#FFFFFF" stroke-width="2" stroke-miterlimit="10" d="M1357.1,339.5L1357.1,339.5l-45.5,0.1
					l-18.4-75.3h-86.9v6.6l38,144.2l112.8,0v0h3.3c81.6-4.1,147.5-65.5,147.5-141.6v-9.2h-81v10.7
					C1426.8,308.9,1395.3,336.5,1357.1,339.5z"/>
				<path fill="none" stroke="#FFFFFF" stroke-width="2" stroke-miterlimit="10" d="M301.6,347.1v-82.9h-50.4
					c-3,38.3-31,69.7-65,69.7h-35.4v-0.1c-44.6-23.1-89-46.2-134.5-69.8H0v16.2v134.6l150.8,0v0.1h33.9
					C233.4,415,276.1,387.9,301.6,347.1z"/>
				<path fill="none" stroke="#FFFFFF" stroke-width="2" stroke-miterlimit="10" d="M532,414.8h71.2V288.4c0-13-10.9-24.1-23.8-24.4
					h23.8v-91.3c0-21.6-5.8-41.8-15.9-59.5h-48.8h-77.2c36.6,1.1,68.1,27.3,68.1,58.8v92h-50.6c-9,0-17.7,0.8-26.2,2.3v2.8
					c-3.4,38.3-13.6,54.7-43.9,54.7c0,0-59.1,0-59.1-0.1h-47.8v70.2h90.7c24.4,0,44.2-3.5,60-10.1v-48.7c8.5-3.3,17.8-5.2,27.5-5.2
					H532V414.8z"/>
				<path fill="none" stroke="#FFFFFF" stroke-width="2" stroke-miterlimit="10" d="M1206.3,288.7c0-13.2-11.2-24.4-24.4-24.4
					h-100.2c-9,0-17.7,0.8-26.2,2.3v68.8c8.5-3.3,17.8-5.2,27.5-5.2h52.1v84.9h71.2V288.7z"/>
				<path fill="none" stroke="#FFFFFF" stroke-width="2" stroke-miterlimit="10" d="M1206.3-37.4h-150.8v150.8h150.8V90.7h-78.8
					c-28,0-50.7-27.4-50.7-59.4v-46h129.4V-37.4z"/>
				<path fill="none" stroke="#FFFFFF" stroke-width="2" stroke-miterlimit="10" d="M1055.5,177.1v-39.4c0-13.1-11.2-24.3-24.3-24.3
					H904.7v26.2v115.2L1055.5,177.1z"/>
			</g>
			<path fill="none" stroke="#FFFFFF" stroke-width="2" stroke-miterlimit="10" d="M301.6,42.4c0.5,0,1.1,0,1.6,0h63v71h86.2V24
				c1.9,14.7,10.3,26.7,27.6,30.8l123.1,32.5V-37.5H476.5v0.1h-38.3"/>
		</g>
	</g>
	<g>
		<g>
			<path fill="none" stroke="#FFFFFF" stroke-width="2" stroke-miterlimit="10" d="M452.4,150.8h150.8v-48.4l-86.7,18.1V30.5
				l86.7,19.5V0h-31.4H457.7h-5.4v0.1c-83.1,2.6-150.7,64.6-150.7,141.7v9h81v-10.5c0-34,31.4-62,69.7-65L452.4,150.8L452.4,150.8z"
				/>
			<path fill="none" stroke="#FFFFFF" stroke-width="2" stroke-miterlimit="10" d="M1055.5,754c0-0.4,0-0.7,0-1.1
				c0-62.3-30.7-116.8-75.4-149.7h-75.4v63.9c30.6,11.4,52.9,46.5,52.9,84.1c0,0.9,0,2-0.1,2.9"/>
			<path fill="none" stroke="#FFFFFF" stroke-width="2" stroke-miterlimit="10" d="M238.4,833.9c-38,0-69.9-36.3-73.7-79.9h-13.8v0
				H0v143.5h150.8v0c3.6,2.6,7.3,5,11.1,7.3h124.3h15.4v-70.9H238.4z M65,798.2l85.7-44.2v44.2H65z"/>
			<path fill="none" stroke="#FFFFFF" stroke-width="2" stroke-miterlimit="10" d="M1046.7,291.6v10h8.8V150.8h-49.7l-9.5-45.3h59.3
				v0.1h92.7l1.8,41.4c0,1.3,0.2,2.5,0.5,3.7h55.9v-19.6c0,10.6,9,19.6,19.6,19.6l131,0.1l0-13.8c0,0.4,0,0.2,0,0v0
				c0.1-0.8,0.2-1.6,0.2-2.4c3.6-36.6,14-52.3,43.7-52.3c0,0,59.1,0,59.1,0.1h47.8V12.3h-90.7c-24.3,0-44,3.5-59.8,10v-0.3
				c-50.2,26-98.8,51.4-150.8,78V0h-56.4v37.3h-94.4v0h-75.1L970.6,0h-65.9v37.2l30.2,113.6h-30.2v22.9c-2-11.4-11.2-20.7-22.5-22.9
				h-39.1c-0.1-22.5,0-58,0-58c0-36.6,18.6-50.4,61.6-55.6V0H789.2c-19.5,20.3-31.9,49.1-35.3,90V15.2c0-8.3-6.1-15.2-13.6-15.2
				h-54.6C678.1,0,672,6.8,672,15.2v135.6h81.9h0v130.1c0-72.6-65.1-130-146.7-130.1c-1.4,0-2.7,0.1-4.1,0.1v70
				c1.8-0.1,3.6-0.2,5.5-0.2c36.7,0,70.3,27.3,70.3,59.8v21.1h75v-0.1c49.5-25.7,99-51.4,150.8-77.9v0c14.4-7.4,31.1-11.6,48.5-11.6
				C1002,212,1046.7,248.3,1046.7,291.6z M1335.9,93.6l21-12.8v12.8H1335.9z"/>
			<path fill="none" stroke="#FFFFFF" stroke-width="2" stroke-miterlimit="10" d="M483.2,150.8C500,210,534.5,252.3,603.1,268.4
				V150.8H483.2z"/>
			<path fill="none" stroke="#FFFFFF" stroke-width="2" stroke-miterlimit="10" d="M69.6,110.9V0H0v126.1c0.9,0.2,1.8,0.3,2.8,0.3
				h52.2C63.1,126.4,69.6,119.9,69.6,110.9z"/>
			<path fill="none" stroke="#FFFFFF" stroke-width="2" stroke-miterlimit="10" d="M452.4,904.9L452.4,904.9
				c-51.3,26.5-101,52.3-150.8,78.2v72.5v0.1l62.1,0l88.7-45.8V904.9z"/>
			<path fill="none" stroke="#FFFFFF" stroke-width="2" stroke-miterlimit="10" d="M603.1,603.2h65.5v3.5
				c0,33.4-28.9,61.2-65.5,67.3v80h1.4c81.5-6.7,146.9-68.6,149.3-144.8v-6v0h39.9l26.4-116.9l4.9-33.9h0v-84.9h52.1
				c9.7,0,19.1,1.9,27.5,5.2v48.7c15.9,6.5,35.6,10.1,60,10.1h90.7v-70.2h-47.8c0,0.2-59.1,0.1-59.1,0.1
				c-30.3,0-40.5-16.3-43.9-54.7v-2.8c-8.5-1.5-17.3-2.3-26.2-2.3H778.3c-13.2,0-24.4,11.2-24.4,24.4v126.4H768l-14.1,53.6V465
				v-12.6h-64.8v83.2h-85.9"/>
			<path fill="none" stroke="#FFFFFF" stroke-width="2" stroke-miterlimit="10" d="M1105.9,301.6h-50.4v82.9
				c25.5,40.9,68.2,67.9,116.9,67.9h33.6v0h0v79.8c0.5,0,1.1,0,1.6,0h63v71h86.2V481.8c0-15.9-13.5-29.3-29.3-29.4h29.3V301.6h-16.3
				c-45.5,23.5-89.8,46.6-134.3,69.7h-35.3C1136.9,371.3,1108.9,339.8,1105.9,301.6z"/>
			<path fill="none" stroke="#FFFFFF" stroke-width="2" stroke-miterlimit="10" d="M1356.8,1055.7V916.6v-11.7h-48.6v46.9
				c0,38.6-39.4,70.7-84.6,70.7c-5.9,0-11.6-0.6-17.3-1.7V904.9h-150.8v150.8h4l20.8-85.3h99.1l22.4,85.3h4.2v0H1356.8z"/>
			<path fill="none" stroke="#FFFFFF" stroke-width="2" stroke-miterlimit="10" d="M1507.6,974.3h-83.4v-69.4h83.4h0v-29.5
				c-20.6-39.8-41.3-79.8-62.6-121.3h-63.3c-13.8,2.3-24.9,14.6-24.9,29v-29V754h-37.4l37.4-141.9v-8.8h-86.2l-17.2,70.7H1206v0
				c-28.8-7-41.7-29.3-47.5-70.7v-72.4c0-31.8-15.8-59.8-40.9-78.5h-62.2h0v0v32.2c24.1,4.7,44,23.8,44,46v72.6h-44v5.2
				c6.9,62.6,24.4,113.5,65.1,145.6h85.5v0v0.1h24.6c25.7,49.4,51.3,99,77.8,150.7h48.4v0.1h0v150.8h150.8V974.3z"/>
			<path fill="none" stroke="#FFFFFF" stroke-width="2" stroke-miterlimit="10" d="M287.7,754h13.9V603.3V603l0,0.2h105.8
				c27.6-27,44.5-63,45-103v98c0,1.6,0,3.3,0.1,4.9h77.2c-0.2-2.2-0.3-4.5-0.3-6.8v-60.8h73.8v-83.2h-0.2l0.2-38h50.5l-8.6,38h69
				l39.8-150.8h-74.9L668,346.2h-64.9v-44.6H498.5c21.7,16,36.5,44.7,36.5,75c0,31.2-14.7,59.9-36.2,75.8h-18.2
				c-15.1,0.2-27.9,12.9-28.2,27.9v-27.9v0v-151h0V182.7H301.6v-31.9h0v-1L224.3,0h-45.5c-14.8,0-27.5,12.4-28,27.1v123.7H69.7v75.8
				H10.5c-3.5,0-7-0.2-10.5-0.6v75.4c2.8,0.1,5.5,0.2,8.3,0.2h54.5l-17.3,70.8H0v79.9l111.6,0l39.2-148.6v148.6v0h43.7L224.4,309
				h7.1l28,143.3h0c-36.4,18.9-72.4,37.6-108.7,56.4v0.1H18c-9.5,0-18,7.6-18,17v60.5c0,9.4,7.6,17,18,17l2.7,0h130.1h76.9
				c-28.5,0.9-55,9.5-76.9,23.7v29.4L32.2,625.1c-18-4.7-31.2,3.8-31.2,22.7v50.2c0,13.2,5.7,20.8,17,23.7l132.8,32.3v0h13.9v-23.7
				c0-32.6,32-59.1,69.4-59.1h53.7V754z M170.2,186.8v-36h111.9v36c0,25.6-26.2,46.9-56.2,46.9C197,233.7,170.2,212.4,170.2,186.8z
				 M239.9,567.3l61.7-31.8l0-83.2h0V301.5H150.9l-0.1,0.3v-0.2v0v-0.1h-25.6c14.1-1.2,25.6-13.4,25.6-27.7v-10
				c20.3,15.6,46.9,25.1,76.2,25.1c28.6,0,54.6-9.3,74.6-24.7v0.1H385v37.2h-59c25.7,49.5,51.4,99.1,78,151h-40.3v46.9
				c0,32-27.7,59.5-62.7,68H239.9z"/>
			<path fill="none" stroke="#FFFFFF" stroke-width="2" stroke-miterlimit="10" d="M77.4,1003.1v52.4h73.4h86.6v-70.8h48.8
				c8.8,0,15.2-6.4,15.2-14.4v-51.2c0-8-7.2-14.4-15.1-14.4H150.8v0v55.5c0-13.6-11.6-25.1-25.2-25.1H22.3c-7.6,0-15,0.6-22.3,1.6
				v12.9v50.2v7c7.4-2.4,15.4-3.6,23.7-3.6H77.4z"/>
			<path fill="none" stroke="#FFFFFF" stroke-width="2" stroke-miterlimit="10" d="M603.1,904.7h131.8c10.4-18.3,17.1-39.5,19-62.5
				v-27.6c-1.9-22.2-8.5-42.8-18.6-60.7H603.1v7.3h27.1c31.2,0,57.2,31.9,57.2,68.5c0,35.2-25.9,67.8-57.2,67.8h-27.1V904.7z"/>
			<path fill="none" stroke="#FFFFFF" stroke-width="2" stroke-miterlimit="10" d="M831.2,452.4l5.1,33.9l24.4,116.9h44v0h150.7
				c0,0,0.1,0,0.1,0V546c0,0-0.1,0-0.1,0H904.7v-22.3l116.8-71.3h-89.8c-9.1,4.7-18.1,9.4-27,14v46.2l-16.1-60.2H831.2z"/>
			<polygon fill="none" stroke="#FFFFFF" stroke-width="2" stroke-miterlimit="10" points="904.7,754.1 904.7,904.7 904.7,904.9 
				997.8,904.9 957.5,754.1 			"/>
			<path fill="none" stroke="#FFFFFF" stroke-width="2" stroke-miterlimit="10" d="M904.7,1055.7v150.8h48.4
				c26.5-51.8,52.2-101.3,77.9-150.8H904.7z"/>
			<path fill="none" stroke="#FFFFFF" stroke-width="2" stroke-miterlimit="10" d="M753.9,1206.3h104.4
				c-21.6-15.9-36.3-44.5-36.3-75.8c0-30.3,14.7-59,36.5-75H754.5c87.2-1.8,150.2-21,150.2-124.4l0-26.4h0V767.1
				c0-7.2-5.1-13-11.6-13.1h-47.6c-6.5,0.1-11.6,6-11.6,13.1v137.7h0.1l-0.1,2.4c0.2,0,0.3,40.2,0.3,40.2
				c0,36.4-23.5,43.9-80.2,45.4v-88h30.6c-10.2-19.6-20.4-39.2-30.6-58.9v39.4v19.5H603.1v73h75.4v77.8h-75.3l39.8,150.8h69l-8.6-38
				h50.5v-68.2h-64.9l-10.9-44.6h75.7h0v0c0,0,0,0,0,0V1206.3z"/>
			<path fill="none" stroke="#FFFFFF" stroke-width="2" stroke-miterlimit="10" d="M1357.1,1131L1357.1,1131l-45.5,0.1l-18.4-75.3
				h-86.9v6.6l38,144.2l112.8,0v0h3.3c81.6-4.1,147.5-65.5,147.5-141.6v-9.2h-81v10.7C1426.8,1100.4,1395.3,1128,1357.1,1131z"/>
			<path fill="none" stroke="#FFFFFF" stroke-width="2" stroke-miterlimit="10" d="M1356.8,753.9h88.7V707c0-32,27.1-59.4,62-67.9
				l0-36h-105.8c-28,27.4-45,64.1-45,104.8V753.9z"/>
			<path fill="none" stroke="#FFFFFF" stroke-width="2" stroke-miterlimit="10" d="M1289.5,232.3v69.1h65.8l1.6,0
				c51.2-26.5,101-52.3,150.8-78.2v-72.6l-62.1,0l-88.7,46.8v-46.7h-150.5h-0.2v57.6h-65.6c-18.7,0-34.6,15.9-34.6,34.6v58.6h100.4
				v-69.3H1289.5z"/>
			<polygon fill="none" stroke="#FFFFFF" stroke-width="2" stroke-miterlimit="10" points="1399.6,532.4 1418.2,603 1507.5,603 
				1467.3,452.3 1356.8,452.3 1356.8,532.4 			"/>
			<path fill="none" stroke="#FFFFFF" stroke-width="2" stroke-miterlimit="10" d="M1386.3,409.4h121.3c0,0,0,0,0,0v-79.8
				c-0.5,0-1.1,0-1.6,0h-63v-28.1h-86.2v78.5C1356.9,395.9,1370.4,409.4,1386.3,409.4z"/>
			<path fill="none" stroke="#FFFFFF" stroke-width="2" stroke-miterlimit="10" d="M301.6,1138.6v-82.9h-50.4
				c-3,38.3-31,69.7-65,69.7h-35.4v-0.1c-44.6-23.1-89-46.2-134.5-69.8H0v16.2v134.6l150.8,0v0.1h33.9
				C233.4,1206.4,276.1,1179.4,301.6,1138.6z"/>
			<path fill="none" stroke="#FFFFFF" stroke-width="2" stroke-miterlimit="10" d="M532,1206.3h71.2v-126.4
				c0-13-10.9-24.1-23.8-24.4h23.8v-91.3c0-21.6-5.8-41.8-15.9-59.5h-48.8h-77.2c36.6,1.1,68.1,27.3,68.1,58.8v92h-50.6
				c-9,0-17.7,0.8-26.2,2.3v2.8c-3.4,38.3-13.6,54.7-43.9,54.7c0,0-59.1,0-59.1-0.1h-47.8v70.2h90.7c24.4,0,44.2-3.5,60-10.1v-48.7
				c8.5-3.3,17.8-5.2,27.5-5.2H532V1206.3z"/>
			<path fill="none" stroke="#FFFFFF" stroke-width="2" stroke-miterlimit="10" d="M1206.3,1080.2c0-13.2-11.2-24.4-24.4-24.4
				h-100.2c-9,0-17.7,0.8-26.2,2.3v68.8c8.5-3.3,17.8-5.2,27.5-5.2h52.1v84.9h71.2V1080.2z"/>
			<path fill="none" stroke="#FFFFFF" stroke-width="2" stroke-miterlimit="10" d="M1206.3,754.1h-150.8v150.8h150.8v-22.7h-78.8
				c-28,0-50.7-27.4-50.7-59.4v-46h129.4V754.1z"/>
			<path fill="none" stroke="#FFFFFF" stroke-width="2" stroke-miterlimit="10" d="M1055.5,968.5v-39.4c0-13.1-11.2-24.3-24.3-24.3
				H904.7v26.2v115.2L1055.5,968.5z"/>
			<path fill="none" stroke="#FFFFFF" stroke-width="2" stroke-miterlimit="10" d="M885.9,664.4c6.4,0,12.7,0.9,18.8,2.6l0-63.8h-44
				c-61,10-106.8,57.4-106.8,115.7V754h67.6v-35.8C821.5,688.8,851.5,664.4,885.9,664.4z"/>
		</g>
		<path fill="none" stroke="#FFFFFF" stroke-width="2" stroke-miterlimit="10" d="M301.6,833.9c0.5,0,1.1,0,1.6,0h63v71h86.2v-89.4
			c1.9,14.7,10.3,26.7,27.6,30.8l123.1,32.5V754H476.5v0.1h-38.3"/>
		<path fill="none" stroke="#FFFFFF" stroke-width="2" stroke-miterlimit="10" d="M438.2,673.9h14.2h24.2h12v80h76.8v-80h37.7v-70.8
			H452.3v70.8h-26.4l-18.6-70.7H318L358.2,754h94.1v29.1c-0.3-15.8-13.7-29-29.5-29H301.6c0,0,0,0,0,0"/>
	</g>
</g>
</svg>
