<?xml version="1.0" encoding="utf-8"?>
<!-- Generator: Adobe Illustrator 16.0.4, SVG Export Plug-In . SVG Version: 6.00 Build 0)  -->
<!DOCTYPE svg PUBLIC "-//W3C//DTD SVG 1.1//EN" "http://www.w3.org/Graphics/SVG/1.1/DTD/svg11.dtd">
<svg version="1.1" id="Layer_1" xmlns="http://www.w3.org/2000/svg" xmlns:xlink="http://www.w3.org/1999/xlink" x="0px" y="0px"
	 width="594.4px" height="40px" viewBox="0 0 594.4 40" enable-background="new 0 0 594.4 40" xml:space="preserve">
<g>
	<g>
		<path fill="#FFFFFF" d="M295.7,20c0,1.8-0.2,3.4-0.5,4.8c-0.3,1.4-0.8,2.7-1.5,3.7c-0.7,1-1.6,1.8-2.7,2.3
			c-1.1,0.5-2.5,0.8-4.1,0.8s-3-0.3-4.1-0.8c-1.1-0.5-2-1.3-2.7-2.3s-1.2-2.2-1.5-3.7s-0.5-3-0.5-4.8c0-1.8,0.2-3.4,0.5-4.8
			c0.3-1.4,0.8-2.7,1.5-3.7c0.7-1,1.6-1.8,2.7-2.3c1.1-0.5,2.5-0.8,4.1-0.8s3,0.3,4.1,0.8c1.1,0.5,2,1.3,2.7,2.3s1.2,2.2,1.5,3.6
			C295.6,16.6,295.7,18.2,295.7,20z M293.4,20c0-1.5-0.1-2.9-0.3-4.1c-0.2-1.2-0.6-2.2-1.1-3c-0.5-0.8-1.2-1.4-2-1.9
			c-0.8-0.4-1.8-0.6-3-0.6c-1.2,0-2.2,0.2-3,0.6c-0.8,0.4-1.5,1-2,1.9s-0.9,1.8-1.1,3c-0.2,1.2-0.3,2.6-0.3,4.1
			c0,1.5,0.1,2.9,0.3,4.1c0.2,1.2,0.6,2.2,1.1,3c0.5,0.8,1.2,1.4,2,1.9c0.8,0.4,1.8,0.6,3,0.6c1.2,0,2.2-0.2,3-0.6
			c0.8-0.4,1.5-1,2-1.9s0.9-1.8,1.1-3C293.3,22.9,293.4,21.5,293.4,20z"/>
		<path fill="#FFFFFF" d="M313.7,31.2l-5.7-9.4h-4.7v9.4h-2.2V8.8h6.3c1.2,0,2.3,0.1,3.2,0.3s1.7,0.6,2.3,1.1
			c0.6,0.5,1.1,1.1,1.4,1.9c0.3,0.8,0.5,1.8,0.5,2.9c0,1-0.1,1.8-0.3,2.6c-0.2,0.7-0.5,1.3-0.9,1.8c-0.4,0.5-0.9,0.9-1.5,1.2
			c-0.6,0.3-1.3,0.5-2,0.7l6.1,9.8H313.7z M312.6,15.2c0-0.8-0.1-1.5-0.3-2c-0.2-0.6-0.5-1-0.9-1.4c-0.4-0.3-0.9-0.6-1.6-0.8
			c-0.7-0.2-1.5-0.2-2.4-0.2h-4.1v9h4c1,0,1.9-0.1,2.5-0.2c0.7-0.2,1.2-0.4,1.6-0.8s0.7-0.8,0.9-1.4C312.5,16.7,312.6,16,312.6,15.2
			z"/>
	</g>
	<g opacity="0.5">
		<path fill="#FFFFFF" d="M0,18.1c0,0.9,0.7,1.6,1.6,1.6h263.5c0.9,0,1.6-0.7,1.6-1.6l0,0c0-0.9-0.7-1.6-1.6-1.6H1.6
			C0.7,16.4,0,17.2,0,18.1L0,18.1z"/>
		<path fill="#FFFFFF" d="M327.6,18.1c0,0.9,0.7,1.6,1.6,1.6h263.5c0.9,0,1.6-0.7,1.6-1.6l0,0c0-0.9-0.7-1.6-1.6-1.6H329.3
			C328.4,16.4,327.6,17.2,327.6,18.1L327.6,18.1z"/>
	</g>
</g>
</svg>
